Advent Pro-Regular Italic.ufo
<glyph name="exclam" format="1">
  <advance width="294"/>
  <unicode hex="0021"/>
  <outline>
    <contour>
      <point x="151" y="240" type="line"/>
      <point x="365" y="1342" type="line"/>
      <point x="376" y="1393"/>
      <point x="404" y="1416"/>
      <point x="447" y="1416" type="curve"/>
      <point x="491" y="1416"/>
      <point x="508" y="1392"/>
      <point x="498" y="1344" type="curve"/>
      <point x="245" y="240" type="line"/>
    </contour>
    <contour>
      <point x="174" y="134" type="curve"/>
      <point x="219" y="134"/>
      <point x="233" y="100"/>
      <point x="224" y="65" type="curve"/>
      <point x="215" y="31"/>
      <point x="187" y="0"/>
      <point x="146" y="0" type="curve"/>
      <point x="100" y="0"/>
      <point x="87" y="38"/>
      <point x="98" y="75" type="curve"/>
      <point x="107" y="107"/>
      <point x="135" y="134"/>
    </contour>
  </outline>
</glyph>
<glyph name="quotedbl" format="1">
  <advance width="532"/>
  <unicode hex="0022"/>
  <outline>
    <contour>
      <point x="609" y="1172" type="line"/>
      <point x="630" y="1402" type="line"/>
      <point x="650" y="1496"/>
      <point x="786" y="1496"/>
      <point x="766" y="1402" type="curve"/>
      <point x="689" y="1172" type="line"/>
    </contour>
    <contour>
      <point x="339" y="1172" type="line"/>
      <point x="360" y="1402" type="line"/>
      <point x="380" y="1496"/>
      <point x="516" y="1496"/>
      <point x="496" y="1402" type="curve"/>
      <point x="417" y="1172" type="line"/>
    </contour>
  </outline>
</glyph>
<glyph name="numbersign" format="1">
  <advance width="1218"/>
  <unicode hex="0023"/>
  <outline>
    <contour>
      <point x="1038" y="826" type="line"/>
      <point x="885" y="486" type="line"/>
      <point x="1257" y="486" type="line"/>
      <point x="1234" y="378" type="line"/>
      <point x="836" y="378" type="line"/>
      <point x="668" y="0" type="line"/>
      <point x="558" y="0" type="line"/>
      <point x="726" y="378" type="line"/>
      <point x="490" y="378" type="line"/>
      <point x="322" y="0" type="line"/>
      <point x="212" y="0" type="line"/>
      <point x="380" y="378" type="line"/>
      <point x="140" y="378" type="line"/>
      <point x="163" y="486" type="line"/>
      <point x="429" y="486" type="line"/>
      <point x="580" y="826" type="line"/>
      <point x="236" y="826" type="line"/>
      <point x="259" y="938" type="line"/>
      <point x="631" y="938" type="line"/>
      <point x="835" y="1396" type="line"/>
      <point x="945" y="1396" type="line"/>
      <point x="741" y="938" type="line"/>
      <point x="977" y="938" type="line"/>
      <point x="1183" y="1396" type="line"/>
      <point x="1291" y="1396" type="line"/>
      <point x="1085" y="938" type="line"/>
      <point x="1353" y="938" type="line"/>
      <point x="1330" y="826" type="line"/>
    </contour>
    <contour>
      <point x="539" y="486" type="line"/>
      <point x="777" y="486" type="line"/>
      <point x="928" y="826" type="line"/>
      <point x="690" y="826" type="line"/>
    </contour>
  </outline>
</glyph>
<glyph name="percent" format="1">
  <advance width="1422"/>
  <unicode hex="0025"/>
  <outline>
    <contour>
      <point x="230" y="0" type="line"/>
      <point x="96" y="0" type="line"/>
      <point x="1467" y="1396" type="line"/>
      <point x="1595" y="1396" type="line"/>
    </contour>
    <contour>
      <point x="653" y="1424" type="curve"/>
      <point x="813" y="1424"/>
      <point x="915" y="1295"/>
      <point x="881" y="1132" type="curve"/>
      <point x="847" y="972"/>
      <point x="689" y="842"/>
      <point x="529" y="842" type="curve"/>
      <point x="367" y="842"/>
      <point x="265" y="972"/>
      <point x="299" y="1132" type="curve"/>
      <point x="333" y="1295"/>
      <point x="491" y="1424"/>
    </contour>
    <contour>
      <point x="631" y="1322" type="curve"/>
      <point x="528" y="1322"/>
      <point x="423" y="1235"/>
      <point x="401" y="1132" type="curve"/>
      <point x="379" y="1032"/>
      <point x="447" y="944"/>
      <point x="551" y="944" type="curve"/>
      <point x="652" y="944"/>
      <point x="757" y="1032"/>
      <point x="779" y="1132" type="curve"/>
      <point x="801" y="1235"/>
      <point x="733" y="1322"/>
    </contour>
    <contour>
      <point x="1185" y="552" type="curve"/>
      <point x="1347" y="552"/>
      <point x="1448" y="422"/>
      <point x="1414" y="262" type="curve"/>
      <point x="1380" y="102"/>
      <point x="1224" y="-28"/>
      <point x="1062" y="-28" type="curve"/>
      <point x="905" y="-28"/>
      <point x="802" y="102"/>
      <point x="836" y="262" type="curve"/>
      <point x="870" y="422"/>
      <point x="1029" y="552"/>
    </contour>
    <contour>
      <point x="1164" y="452" type="curve"/>
      <point x="1063" y="452"/>
      <point x="961" y="370"/>
      <point x="938" y="262" type="curve"/>
      <point x="915" y="157"/>
      <point x="982" y="74"/>
      <point x="1084" y="74" type="curve"/>
      <point x="1191" y="74"/>
      <point x="1291" y="157"/>
      <point x="1314" y="262" type="curve"/>
      <point x="1337" y="370"/>
      <point x="1272" y="452"/>
    </contour>
  </outline>
</glyph>
<glyph name="ampersand" format="1">
  <advance width="1054"/>
  <unicode hex="0026"/>
  <outline>
    <contour>
      <point x="1104" y="1404" type="line"/>
      <point x="1033" y="1302" type="line"/>
      <point x="759" y="1302" type="line" smooth="yes"/>
      <point x="646" y="1302"/>
      <point x="560" y="1214"/>
      <point x="535" y="1086" type="curve"/>
      <point x="503" y="927"/>
      <point x="601" y="804"/>
      <point x="761" y="804" type="curve"/>
      <point x="861" y="804" type="line"/>
      <point x="905" y="1010" type="line"/>
      <point x="1011" y="1010" type="line"/>
      <point x="967" y="806" type="line"/>
      <point x="1165" y="806" type="line"/>
      <point x="1096" y="698" type="line"/>
      <point x="944" y="698" type="line"/>
      <point x="854" y="272" type="line" smooth="yes"/>
      <point x="832" y="168"/>
      <point x="865" y="100"/>
      <point x="946" y="68" type="curve"/>
      <point x="902" y="-18" type="line"/>
      <point x="817" y="9"/>
      <point x="764" y="52"/>
      <point x="750" y="124" type="curve"/>
      <point x="650" y="28"/>
      <point x="500" y="-12"/>
      <point x="411" y="-12" type="curve"/>
      <point x="202" y="-12"/>
      <point x="85" y="92"/>
      <point x="128" y="318" type="curve"/>
      <point x="168" y="508" type="line" smooth="yes"/>
      <point x="212" y="714"/>
      <point x="333" y="793"/>
      <point x="479" y="804" type="curve"/>
      <point x="517" y="804" type="line"/>
      <point x="413" y="884"/>
      <point x="411" y="1009"/>
      <point x="424" y="1092" type="curve"/>
      <point x="455" y="1273"/>
      <point x="588" y="1404"/>
      <point x="774" y="1404" type="curve"/>
    </contour>
    <contour>
      <point x="765" y="352" type="curve"/>
      <point x="838" y="698" type="line"/>
      <point x="516" y="698" type="line" smooth="yes"/>
      <point x="445" y="698"/>
      <point x="318" y="686"/>
      <point x="279" y="502" type="curve"/>
      <point x="242" y="328" type="line" smooth="yes"/>
      <point x="209" y="173"/>
      <point x="283" y="84"/>
      <point x="457" y="100" type="curve"/>
      <point x="623" y="116"/>
      <point x="735" y="212"/>
    </contour>
  </outline>
</glyph>
<glyph name="quotesingle" format="1">
  <advance width="532"/>
  <unicode hex="0027"/>
  <outline>
    <contour>
      <point x="474" y="1174" type="line"/>
      <point x="496" y="1404" type="line"/>
      <point x="516" y="1496"/>
      <point x="650" y="1498"/>
      <point x="630" y="1404" type="curve"/>
      <point x="554" y="1174" type="line"/>
    </contour>
  </outline>
</glyph>
<glyph name="parenleft" format="1">
  <advance width="362"/>
  <unicode hex="0028"/>
  <outline>
    <contour>
      <point x="638" y="1630" type="curve"/>
      <point x="659" y="1556" type="line"/>
      <point x="554" y="1492"/>
      <point x="490" y="1391"/>
      <point x="464" y="1270" type="curve"/>
      <point x="382" y="885"/>
      <point x="302" y="508"/>
      <point x="220" y="124" type="curve"/>
      <point x="194" y="-2"/>
      <point x="217" y="-98"/>
      <point x="294" y="-162" type="curve"/>
      <point x="241" y="-238" type="line"/>
      <point x="155" y="-163"/>
      <point x="58" y="-115"/>
      <point x="112" y="140" type="curve"/>
      <point x="348" y="1250" type="line" smooth="yes"/>
      <point x="390" y="1451"/>
      <point x="481" y="1553"/>
    </contour>
  </outline>
</glyph>
<glyph name="parenright" format="1">
  <advance width="364"/>
  <unicode hex="0029"/>
  <outline>
    <contour>
      <point x="365" y="1556" type="curve"/>
      <point x="418" y="1630" type="line"/>
      <point x="542" y="1554"/>
      <point x="588" y="1451"/>
      <point x="546" y="1250" type="curve"/>
      <point x="310" y="140" type="line" smooth="yes"/>
      <point x="255" y="-116"/>
      <point x="140" y="-162"/>
      <point x="21" y="-238" type="curve"/>
      <point x="0" y="-162" type="line"/>
      <point x="104" y="-98"/>
      <point x="168" y="-2"/>
      <point x="194" y="124" type="curve"/>
      <point x="276" y="508"/>
      <point x="356" y="885"/>
      <point x="438" y="1270" type="curve"/>
      <point x="464" y="1391"/>
      <point x="442" y="1492"/>
    </contour>
  </outline>
</glyph>
<glyph name="asterisk" format="1">
  <advance width="704"/>
  <unicode hex="002A"/>
  <outline>
    <contour>
      <point x="291" y="1154" type="line"/>
      <point x="348" y="1250" type="line"/>
      <point x="539" y="1170" type="line"/>
      <point x="587" y="1396" type="line"/>
      <point x="695" y="1396" type="line"/>
      <point x="647" y="1170" type="line"/>
      <point x="878" y="1250" type="line"/>
      <point x="899" y="1154" type="line"/>
      <point x="665" y="1078" type="line"/>
      <point x="759" y="898" type="line"/>
      <point x="664" y="836" type="line"/>
      <point x="567" y="1028" type="line"/>
      <point x="396" y="836" type="line"/>
      <point x="319" y="898" type="line"/>
      <point x="487" y="1078" type="line"/>
    </contour>
  </outline>
</glyph>
<glyph name="plus" format="1">
  <advance width="756"/>
  <unicode hex="002B"/>
  <outline>
    <contour>
      <point x="546" y="1056" type="line"/>
      <point x="656" y="1056" type="line"/>
      <point x="601" y="794" type="line"/>
      <point x="863" y="794" type="line"/>
      <point x="839" y="684" type="line"/>
      <point x="577" y="684" type="line"/>
      <point x="521" y="418" type="line"/>
      <point x="411" y="418" type="line"/>
      <point x="467" y="684" type="line"/>
      <point x="201" y="684" type="line"/>
      <point x="225" y="794" type="line"/>
      <point x="491" y="794" type="line"/>
    </contour>
  </outline>
</glyph>
<glyph name="comma" format="1">
  <advance width="532"/>
  <unicode hex="002C"/>
  <outline>
    <contour>
      <point x="189" y="-194" type="curve"/>
      <point x="160" y="-170" type="line"/>
      <point x="214" y="-117"/>
      <point x="239" y="-63"/>
      <point x="254" y="-20" type="curve"/>
      <point x="223" y="-15"/>
      <point x="205" y="14"/>
      <point x="212" y="46" type="curve"/>
      <point x="220" y="83"/>
      <point x="254" y="112"/>
      <point x="292" y="112" type="curve"/>
      <point x="329" y="112"/>
      <point x="352" y="86"/>
      <point x="346" y="46" type="curve"/>
      <point x="319" y="-80"/>
      <point x="235" y="-160"/>
    </contour>
  </outline>
</glyph>
<glyph name="hyphen" format="1">
  <advance width="782"/>
  <unicode hex="002D"/>
  <outline>
    <contour>
      <point x="857" y="710" type="line"/>
      <point x="219" y="710" type="line"/>
      <point x="244" y="826" type="line"/>
      <point x="882" y="826" type="line"/>
    </contour>
  </outline>
</glyph>
<glyph name="period" format="1">
  <advance width="272"/>
  <unicode hex="002E"/>
  <outline>
    <contour>
      <point x="160" y="114" type="curve"/>
      <point x="198" y="114"/>
      <point x="222" y="85"/>
      <point x="214" y="48" type="curve"/>
      <point x="206" y="11"/>
      <point x="170" y="-18"/>
      <point x="132" y="-18" type="curve"/>
      <point x="98" y="-18"/>
      <point x="72" y="11"/>
      <point x="80" y="48" type="curve"/>
      <point x="88" y="85"/>
      <point x="126" y="114"/>
    </contour>
  </outline>
</glyph>
<glyph name="one" format="1">
  <advance width="470"/>
  <unicode hex="0031"/>
  <outline>
    <contour>
      <point x="301" y="1162" type="curve"/>
      <point x="290" y="1240" type="line"/>
      <point x="284" y="1240"/>
      <point x="461" y="1283"/>
      <point x="573" y="1396" type="curve"/>
      <point x="681" y="1396" type="line"/>
      <point x="384" y="0" type="line"/>
      <point x="278" y="0" type="line"/>
      <point x="547" y="1264" type="line"/>
      <point x="491" y="1228"/>
      <point x="369" y="1170"/>
    </contour>
  </outline>
</glyph>
<glyph name="two" format="1">
  <advance width="824"/>
  <unicode hex="0032"/>
  <outline>
    <contour>
      <point x="430" y="1138" type="curve"/>
      <point x="334" y="1176" type="line"/>
      <point x="430" y="1341"/>
      <point x="581" y="1413"/>
      <point x="715" y="1416" type="curve"/>
      <point x="885" y="1420"/>
      <point x="1034" y="1300"/>
      <point x="987" y="1098" type="curve"/>
      <point x="970" y="1018"/>
      <point x="924" y="929"/>
      <point x="811" y="788" type="curve"/>
      <point x="611" y="559"/>
      <point x="411" y="334"/>
      <point x="211" y="106" type="curve"/>
      <point x="779" y="106" type="line"/>
      <point x="756" y="0" type="line"/>
      <point x="58" y="0" type="line"/>
      <point x="81" y="106" type="line"/>
      <point x="293" y="351"/>
      <point x="519" y="591"/>
      <point x="729" y="850" type="curve"/>
      <point x="832" y="975"/>
      <point x="852" y="1016"/>
      <point x="865" y="1078" type="curve"/>
      <point x="897" y="1226"/>
      <point x="806" y="1312"/>
      <point x="690" y="1308" type="curve"/>
      <point x="599" y="1308"/>
      <point x="500" y="1255"/>
    </contour>
  </outline>
</glyph>
<glyph name="three" format="1">
  <advance width="884"/>
  <unicode hex="0033"/>
  <outline>
    <contour>
      <point x="576" y="826" type="line"/>
      <point x="580" y="826" type="line"/>
      <point x="697" y="826"/>
      <point x="790" y="783"/>
      <point x="855" y="700" type="curve"/>
      <point x="918" y="616"/>
      <point x="938" y="515"/>
      <point x="913" y="398" type="curve"/>
      <point x="888" y="281"/>
      <point x="826" y="181"/>
      <point x="727" y="100" type="curve"/>
      <point x="627" y="17"/>
      <point x="518" y="-24"/>
      <point x="399" y="-24" type="curve"/>
      <point x="255" y="-24"/>
      <point x="140" y="49"/>
      <point x="87" y="164" type="curve"/>
      <point x="192" y="224" type="line"/>
      <point x="234" y="133"/>
      <point x="311" y="88"/>
      <point x="423" y="88" type="curve"/>
      <point x="508" y="88"/>
      <point x="589" y="116"/>
      <point x="664" y="180" type="curve"/>
      <point x="739" y="242"/>
      <point x="786" y="325"/>
      <point x="802" y="407" type="curve"/>
      <point x="817" y="483"/>
      <point x="804" y="558"/>
      <point x="761" y="614" type="curve"/>
      <point x="715" y="678"/>
      <point x="652" y="710"/>
      <point x="569" y="710" type="curve"/>
      <point x="347" y="710" type="line"/>
      <point x="854" y="1282" type="line"/>
      <point x="412" y="1282" type="line"/>
      <point x="437" y="1396" type="line"/>
      <point x="1015" y="1396" type="line"/>
      <point x="994" y="1298" type="line"/>
    </contour>
  </outline>
</glyph>
<glyph name="four" format="1">
  <advance width="974"/>
  <unicode hex="0034"/>
  <outline>
    <contour>
      <point x="776" y="0" type="line"/>
      <point x="662" y="0" type="line"/>
      <point x="813" y="710" type="line"/>
      <point x="183" y="710" type="line"/>
      <point x="715" y="1396" type="line"/>
      <point x="833" y="1396" type="line"/>
      <point x="400" y="826" type="line"/>
      <point x="838" y="826" type="line"/>
      <point x="959" y="1396" type="line"/>
      <point x="1073" y="1396" type="line"/>
      <point x="952" y="826" type="line"/>
      <point x="1096" y="826" type="line"/>
      <point x="1031" y="710" type="line"/>
      <point x="927" y="710" type="line"/>
    </contour>
  </outline>
</glyph>
<glyph name="five" format="1">
  <advance width="878"/>
  <unicode hex="0035"/>
  <outline>
    <contour>
      <point x="552" y="1282" type="line"/>
      <point x="407" y="822" type="line"/>
      <point x="513" y="822" type="line" smooth="yes"/>
      <point x="776" y="822"/>
      <point x="968" y="687"/>
      <point x="906" y="396" type="curve"/>
      <point x="863" y="192"/>
      <point x="663" y="-24"/>
      <point x="397" y="-24" type="curve"/>
      <point x="221" y="-27"/>
      <point x="73" y="87"/>
      <point x="74" y="84" type="curve"/>
      <point x="136" y="178" type="line"/>
      <point x="135" y="181"/>
      <point x="239" y="84"/>
      <point x="415" y="88" type="curve"/>
      <point x="574" y="88"/>
      <point x="755" y="210"/>
      <point x="795" y="400" type="curve"/>
      <point x="832" y="575"/>
      <point x="731" y="710"/>
      <point x="489" y="710" type="curve"/>
      <point x="259" y="710" type="line"/>
      <point x="479" y="1396" type="line"/>
      <point x="1009" y="1396" type="line"/>
      <point x="984" y="1282" type="line"/>
    </contour>
  </outline>
</glyph>
<glyph name="six" format="1">
  <advance width="964"/>
  <unicode hex="0036"/>
  <outline>
    <contour>
      <point x="895" y="1292" type="line"/>
      <point x="817" y="1292" type="line"/>
      <point x="582" y="1292"/>
      <point x="412" y="1130"/>
      <point x="365" y="906" type="curve"/>
      <point x="319" y="692" type="line"/>
      <point x="422" y="784"/>
      <point x="538" y="828"/>
      <point x="658" y="828" type="curve"/>
      <point x="900" y="828"/>
      <point x="1048" y="640"/>
      <point x="998" y="404" type="curve"/>
      <point x="948" y="172"/>
      <point x="722" y="-20"/>
      <point x="484" y="-20" type="curve"/>
      <point x="244" y="-20"/>
      <point x="98" y="172"/>
      <point x="148" y="404" type="curve"/>
      <point x="258" y="920" type="line" smooth="yes"/>
      <point x="318" y="1200"/>
      <point x="560" y="1396"/>
      <point x="847" y="1396" type="curve"/>
      <point x="917" y="1396" type="line"/>
    </contour>
    <contour>
      <point x="641" y="718" type="curve"/>
      <point x="469" y="718"/>
      <point x="294" y="574"/>
      <point x="258" y="404" type="curve"/>
      <point x="222" y="233"/>
      <point x="335" y="90"/>
      <point x="507" y="90" type="curve"/>
      <point x="678" y="90"/>
      <point x="852" y="234"/>
      <point x="888" y="404" type="curve"/>
      <point x="924" y="575"/>
      <point x="811" y="718"/>
    </contour>
  </outline>
</glyph>
<glyph name="seven" format="1">
  <advance width="868"/>
  <unicode hex="0037"/>
  <outline>
    <contour>
      <point x="1107" y="1286" type="line"/>
      <point x="198" y="0" type="line"/>
      <point x="74" y="0" type="line"/>
      <point x="980" y="1282" type="line"/>
      <point x="324" y="1282" type="line"/>
      <point x="349" y="1396" type="line"/>
      <point x="1131" y="1396" type="line"/>
    </contour>
  </outline>
</glyph>
<glyph name="eight" format="1">
  <advance width="962"/>
  <unicode hex="0038"/>
  <outline>
    <contour>
      <point x="781" y="1414" type="curve"/>
      <point x="879" y="1414"/>
      <point x="955" y="1380"/>
      <point x="1009" y="1312" type="curve"/>
      <point x="1063" y="1243"/>
      <point x="1077" y="1163"/>
      <point x="1056" y="1062" type="curve"/>
      <point x="1038" y="977"/>
      <point x="999" y="905"/>
      <point x="940" y="848" type="curve"/>
      <point x="913" y="821"/>
      <point x="879" y="795"/>
      <point x="843" y="774" type="curve"/>
      <point x="882" y="747"/>
      <point x="927" y="705"/>
      <point x="959" y="652" type="curve"/>
      <point x="997" y="580"/>
      <point x="1009" y="496"/>
      <point x="989" y="400" type="curve"/>
      <point x="965" y="285"/>
      <point x="901" y="180"/>
      <point x="801" y="100" type="curve"/>
      <point x="701" y="17"/>
      <point x="592" y="-24"/>
      <point x="473" y="-24" type="curve"/>
      <point x="353" y="-24"/>
      <point x="262" y="17"/>
      <point x="199" y="100" type="curve"/>
      <point x="134" y="180"/>
      <point x="115" y="285"/>
      <point x="139" y="400" type="curve"/>
      <point x="161" y="501"/>
      <point x="216" y="594"/>
      <point x="290" y="666" type="curve"/>
      <point x="337" y="711"/>
      <point x="389" y="749"/>
      <point x="445" y="776" type="curve"/>
      <point x="419" y="796"/>
      <point x="398" y="821"/>
      <point x="383" y="850" type="curve"/>
      <point x="349" y="906"/>
      <point x="340" y="979"/>
      <point x="358" y="1062" type="curve"/>
      <point x="378" y="1158"/>
      <point x="429" y="1241"/>
      <point x="511" y="1312" type="curve"/>
      <point x="593" y="1380"/>
      <point x="683" y="1414"/>
    </contour>
    <contour>
      <point x="653" y="822" type="curve"/>
      <point x="727" y="822"/>
      <point x="801" y="855"/>
      <point x="855" y="906" type="curve"/>
      <point x="901" y="949"/>
      <point x="934" y="1005"/>
      <point x="946" y="1064" type="curve"/>
      <point x="975" y="1199"/>
      <point x="890" y="1308"/>
      <point x="756" y="1308" type="curve"/>
      <point x="625" y="1308"/>
      <point x="491" y="1199"/>
      <point x="462" y="1064" type="curve"/>
      <point x="449" y="1003"/>
      <point x="458" y="950"/>
      <point x="489" y="906" type="curve"/>
      <point x="523" y="855"/>
      <point x="581" y="822"/>
    </contour>
    <contour>
      <point x="497" y="88" type="curve"/>
      <point x="672" y="88"/>
      <point x="841" y="228"/>
      <point x="877" y="400" type="curve"/>
      <point x="892" y="469"/>
      <point x="883" y="535"/>
      <point x="857" y="588" type="curve"/>
      <point x="815" y="665"/>
      <point x="733" y="712"/>
      <point x="629" y="712" type="curve"/>
      <point x="533" y="712"/>
      <point x="437" y="667"/>
      <point x="363" y="598" type="curve"/>
      <point x="310" y="547"/>
      <point x="267" y="477"/>
      <point x="251" y="400" type="curve"/>
      <point x="214" y="228"/>
      <point x="325" y="88"/>
    </contour>
  </outline>
</glyph>
<glyph name="nine" format="1">
  <advance width="960"/>
  <unicode hex="0039"/>
  <outline>
    <contour>
      <point x="771" y="1414" type="curve"/>
      <point x="889" y="1414"/>
      <point x="981" y="1373"/>
      <point x="1045" y="1292" type="curve"/>
      <point x="1110" y="1209"/>
      <point x="1130" y="1109"/>
      <point x="1104" y="990" type="curve"/>
      <point x="995" y="476" type="line" smooth="yes"/>
      <point x="972" y="367"/>
      <point x="917" y="261"/>
      <point x="828" y="168" type="curve"/>
      <point x="737" y="69"/>
      <point x="584" y="-2"/>
      <point x="408" y="-2" type="curve"/>
      <point x="338" y="-2" type="line"/>
      <point x="361" y="108" type="line"/>
      <point x="437" y="108" type="line" smooth="yes"/>
      <point x="538" y="108"/>
      <point x="632" y="140"/>
      <point x="717" y="204" type="curve"/>
      <point x="806" y="271"/>
      <point x="862" y="365"/>
      <point x="888" y="490" type="curve"/>
      <point x="934" y="704" type="line"/>
      <point x="830" y="615"/>
      <point x="719" y="568"/>
      <point x="597" y="568" type="curve"/>
      <point x="474" y="568"/>
      <point x="382" y="610"/>
      <point x="317" y="690" type="curve"/>
      <point x="252" y="773"/>
      <point x="231" y="873"/>
      <point x="256" y="990" type="curve"/>
      <point x="282" y="1109"/>
      <point x="344" y="1209"/>
      <point x="445" y="1292" type="curve"/>
      <point x="546" y="1373"/>
      <point x="655" y="1414"/>
    </contour>
    <contour>
      <point x="747" y="1304" type="curve"/>
      <point x="575" y="1304"/>
      <point x="406" y="1165"/>
      <point x="368" y="990" type="curve"/>
      <point x="332" y="818"/>
      <point x="442" y="678"/>
      <point x="614" y="678" type="curve"/>
      <point x="789" y="678"/>
      <point x="958" y="818"/>
      <point x="994" y="990" type="curve"/>
      <point x="1032" y="1165"/>
      <point x="922" y="1304"/>
    </contour>
  </outline>
</glyph>
<glyph name="colon" format="1">
  <advance width="286"/>
  <unicode hex="003A"/>
  <outline>
    <contour>
      <point x="267" y="286" type="curve"/>
      <point x="259" y="249"/>
      <point x="221" y="220"/>
      <point x="187" y="220" type="curve"/>
      <point x="149" y="220"/>
      <point x="125" y="249"/>
      <point x="133" y="286" type="curve"/>
      <point x="141" y="323"/>
      <point x="177" y="352"/>
      <point x="215" y="352" type="curve"/>
      <point x="249" y="352"/>
      <point x="275" y="323"/>
    </contour>
    <contour>
      <point x="369" y="768" type="curve"/>
      <point x="361" y="731"/>
      <point x="324" y="702"/>
      <point x="289" y="702" type="curve"/>
      <point x="252" y="702"/>
      <point x="227" y="731"/>
      <point x="235" y="768" type="curve"/>
      <point x="243" y="805"/>
      <point x="280" y="834"/>
      <point x="317" y="834" type="curve"/>
      <point x="352" y="834"/>
      <point x="377" y="805"/>
    </contour>
  </outline>
</glyph>
<glyph name="semicolon" format="1">
  <advance width="298"/>
  <unicode hex="003B"/>
  <outline>
    <contour>
      <point x="120" y="46" type="curve"/>
      <point x="91" y="70" type="line"/>
      <point x="145" y="123"/>
      <point x="170" y="177"/>
      <point x="185" y="220" type="curve"/>
      <point x="154" y="225"/>
      <point x="136" y="254"/>
      <point x="143" y="286" type="curve"/>
      <point x="151" y="323"/>
      <point x="185" y="352"/>
      <point x="223" y="352" type="curve"/>
      <point x="260" y="352"/>
      <point x="283" y="326"/>
      <point x="277" y="286" type="curve"/>
      <point x="250" y="160"/>
      <point x="166" y="80"/>
    </contour>
    <contour>
      <point x="383" y="768" type="curve"/>
      <point x="375" y="731"/>
      <point x="341" y="702"/>
      <point x="303" y="702" type="curve"/>
      <point x="269" y="702"/>
      <point x="241" y="731"/>
      <point x="249" y="768" type="curve"/>
      <point x="257" y="805"/>
      <point x="297" y="834"/>
      <point x="331" y="834" type="curve"/>
      <point x="369" y="834"/>
      <point x="391" y="805"/>
    </contour>
  </outline>
</glyph>
<glyph name="less" format="1">
  <advance width="748"/>
  <unicode hex="003C"/>
  <outline>
    <contour>
      <point x="638" y="158" type="line"/>
      <point x="202" y="716" type="line"/>
      <point x="874" y="1270" type="line"/>
      <point x="936" y="1194" type="line"/>
      <point x="353" y="712" type="line"/>
      <point x="732" y="236" type="line"/>
    </contour>
  </outline>
</glyph>
<glyph name="equal" format="1">
  <advance width="780"/>
  <unicode hex="003D"/>
  <outline>
    <contour>
      <point x="857" y="712" type="line"/>
      <point x="219" y="712" type="line"/>
      <point x="243" y="822" type="line"/>
      <point x="881" y="822" type="line"/>
    </contour>
    <contour>
      <point x="813" y="504" type="line"/>
      <point x="175" y="504" type="line"/>
      <point x="199" y="614" type="line"/>
      <point x="837" y="614" type="line"/>
    </contour>
  </outline>
</glyph>
<glyph name="greater" format="1">
  <advance width="748"/>
  <unicode hex="003E"/>
  <outline>
    <contour>
      <point x="689" y="712" type="line"/>
      <point x="314" y="1194" type="line"/>
      <point x="406" y="1270" type="line"/>
      <point x="842" y="716" type="line"/>
      <point x="170" y="158" type="line"/>
      <point x="110" y="236" type="line"/>
    </contour>
  </outline>
</glyph>
<glyph name="question" format="1">
  <advance width="808"/>
  <unicode hex="003F"/>
  <outline>
    <contour>
      <point x="389" y="1060" type="curve"/>
      <point x="275" y="1060" type="line"/>
      <point x="327" y="1303"/>
      <point x="531" y="1418"/>
      <point x="707" y="1414" type="curve"/>
      <point x="882" y="1410"/>
      <point x="1023" y="1285"/>
      <point x="978" y="1072" type="curve"/>
      <point x="947" y="925"/>
      <point x="851" y="834"/>
      <point x="741" y="730" type="curve"/>
      <point x="643" y="640"/>
      <point x="555" y="577"/>
      <point x="520" y="412" type="curve"/>
      <point x="483" y="238" type="line"/>
      <point x="381" y="238" type="line"/>
      <point x="420" y="422" type="line" smooth="yes"/>
      <point x="457" y="598"/>
      <point x="556" y="691"/>
      <point x="649" y="776" type="curve"/>
      <point x="743" y="864"/>
      <point x="839" y="935"/>
      <point x="867" y="1066" type="curve"/>
      <point x="901" y="1226"/>
      <point x="800" y="1304"/>
      <point x="684" y="1308" type="curve"/>
      <point x="564" y="1312"/>
      <point x="426" y="1233"/>
    </contour>
    <contour>
      <point x="408" y="114" type="curve"/>
      <point x="443" y="114"/>
      <point x="468" y="85"/>
      <point x="460" y="48" type="curve"/>
      <point x="452" y="11"/>
      <point x="415" y="-18"/>
      <point x="380" y="-18" type="curve"/>
      <point x="343" y="-18"/>
      <point x="316" y="11"/>
      <point x="324" y="48" type="curve"/>
      <point x="332" y="85"/>
      <point x="371" y="114"/>
    </contour>
  </outline>
</glyph>
<glyph name="at" format="1">
  <advance width="1434"/>
  <unicode hex="0040"/>
  <outline>
    <contour>
      <point x="1555" y="982" type="curve"/>
      <point x="1567" y="900" type="line"/>
      <point x="1517" y="879"/>
      <point x="1485" y="835"/>
      <point x="1470" y="760" type="curve"/>
      <point x="1382" y="340" type="line" smooth="yes"/>
      <point x="1311" y="4"/>
      <point x="976" y="-132"/>
      <point x="652" y="-132" type="curve"/>
      <point x="305" y="-132"/>
      <point x="73" y="47"/>
      <point x="146" y="391" type="curve"/>
      <point x="206" y="676" type="line" smooth="yes"/>
      <point x="265" y="953"/>
      <point x="490" y="1154"/>
      <point x="813" y="1154" type="curve"/>
      <point x="1120" y="1154"/>
      <point x="1229" y="1021"/>
      <point x="1216" y="884" type="curve"/>
      <point x="1342" y="884" type="line"/>
      <point x="1312" y="776" type="line"/>
      <point x="1201" y="776" type="line"/>
      <point x="1070" y="152" type="line"/>
      <point x="1072" y="152"/>
      <point x="874" y="124"/>
      <point x="722" y="122" type="curve"/>
      <point x="530" y="120"/>
      <point x="345" y="167"/>
      <point x="409" y="466" type="curve"/>
      <point x="432" y="576" type="line" smooth="yes"/>
      <point x="482" y="809"/>
      <point x="633" y="884"/>
      <point x="780" y="884" type="curve"/>
      <point x="1112" y="884" type="line"/>
      <point x="1131" y="991"/>
      <point x="1014" y="1058"/>
      <point x="808" y="1058" type="curve"/>
      <point x="584" y="1058"/>
      <point x="380" y="931"/>
      <point x="327" y="682" type="curve"/>
      <point x="262" y="378" type="line" smooth="yes"/>
      <point x="201" y="88"/>
      <point x="374" y="-24"/>
      <point x="678" y="-24" type="curve"/>
      <point x="930" y="-24"/>
      <point x="1213" y="70"/>
      <point x="1267" y="324" type="curve"/>
      <point x="1352" y="726" type="line" smooth="yes"/>
      <point x="1382" y="865"/>
      <point x="1434" y="949"/>
    </contour>
    <contour>
      <point x="1099" y="776" type="line"/>
      <point x="751" y="776" type="line"/>
      <point x="691" y="776"/>
      <point x="579" y="766"/>
      <point x="537" y="570" type="curve"/>
      <point x="513" y="454" type="line" smooth="yes"/>
      <point x="476" y="283"/>
      <point x="518" y="222"/>
      <point x="703" y="222" type="curve"/>
      <point x="844" y="222"/>
      <point x="986" y="240"/>
      <point x="985" y="238" type="curve"/>
    </contour>
  </outline>
</glyph>
<glyph name="A" format="1">
  <advance width="1090"/>
  <unicode hex="0041"/>
  <outline>
    <contour>
      <point x="893" y="1396" type="line"/>
      <point x="1050" y="0" type="line"/>
      <point x="932" y="0" type="line"/>
      <point x="876" y="488" type="line"/>
      <point x="422" y="488" type="line"/>
      <point x="162" y="0" type="line"/>
      <point x="42" y="0" type="line"/>
      <point x="787" y="1396" type="line"/>
    </contour>
    <contour>
      <point x="802" y="1224" type="line"/>
      <point x="475" y="598" type="line"/>
      <point x="869" y="598" type="line"/>
    </contour>
  </outline>
</glyph>
<glyph name="B" format="1">
  <advance width="1006"/>
  <unicode hex="0042"/>
  <outline>
    <contour>
      <point x="379" y="1396" type="line"/>
      <point x="798" y="1396" type="line"/>
      <point x="1028" y="1396"/>
      <point x="1146" y="1281"/>
      <point x="1098" y="1052" type="curve"/>
      <point x="1072" y="932"/>
      <point x="1008" y="845"/>
      <point x="907" y="786" type="curve"/>
      <point x="905" y="778" type="line"/>
      <point x="1012" y="727"/>
      <point x="1075" y="608"/>
      <point x="1034" y="416" type="curve"/>
      <point x="982" y="168"/>
      <point x="819" y="0"/>
      <point x="542" y="0" type="curve"/>
      <point x="82" y="0" type="line"/>
    </contour>
    <contour>
      <point x="369" y="822" type="line"/>
      <point x="695" y="822" type="line"/>
      <point x="857" y="822"/>
      <point x="953" y="915"/>
      <point x="982" y="1056" type="curve"/>
      <point x="1016" y="1213"/>
      <point x="948" y="1290"/>
      <point x="780" y="1290" type="curve"/>
      <point x="468" y="1290" type="line"/>
    </contour>
    <contour>
      <point x="217" y="106" type="line"/>
      <point x="561" y="106" type="line"/>
      <point x="752" y="106"/>
      <point x="871" y="211"/>
      <point x="916" y="424" type="curve"/>
      <point x="948" y="574"/>
      <point x="893" y="712"/>
      <point x="721" y="712" type="curve"/>
      <point x="345" y="712" type="line"/>
    </contour>
  </outline>
</glyph>
<glyph name="C" format="1">
  <advance width="844"/>
  <unicode hex="0043"/>
  <outline>
    <contour>
      <point x="1027" y="1350" type="curve"/>
      <point x="977" y="1274" type="line"/>
      <point x="908" y="1303"/>
      <point x="841" y="1316"/>
      <point x="772" y="1316" type="curve"/>
      <point x="577" y="1316"/>
      <point x="442" y="1235"/>
      <point x="398" y="1024" type="curve"/>
      <point x="259" y="370" type="line" smooth="yes"/>
      <point x="214" y="161"/>
      <point x="292" y="80"/>
      <point x="493" y="80" type="curve"/>
      <point x="571" y="80"/>
      <point x="675" y="102"/>
      <point x="795" y="138" type="curve"/>
      <point x="800" y="46" type="line"/>
      <point x="677" y="2"/>
      <point x="565" y="-20"/>
      <point x="464" y="-20" type="curve"/>
      <point x="421" y="-20"/>
      <point x="324" y="-21"/>
      <point x="238" y="30" type="curve"/>
      <point x="151" y="83"/>
      <point x="110" y="198"/>
      <point x="146" y="366" type="curve"/>
      <point x="284" y="1016" type="line" smooth="yes"/>
      <point x="343" y="1295"/>
      <point x="537" y="1416"/>
      <point x="757" y="1416" type="curve"/>
      <point x="861" y="1416"/>
      <point x="951" y="1394"/>
    </contour>
  </outline>
</glyph>
<glyph name="D" format="1">
  <advance width="990"/>
  <unicode hex="0044"/>
  <outline>
    <contour>
      <point x="379" y="1396" type="line"/>
      <point x="755" y="1396" type="line"/>
      <point x="1056" y="1396"/>
      <point x="1179" y="1218"/>
      <point x="1121" y="946" type="curve"/>
      <point x="1005" y="398" type="line" smooth="yes"/>
      <point x="948" y="134"/>
      <point x="781" y="0"/>
      <point x="498" y="0" type="curve"/>
      <point x="82" y="0" type="line"/>
    </contour>
    <contour>
      <point x="215" y="100" type="line"/>
      <point x="485" y="100" type="line"/>
      <point x="716" y="100"/>
      <point x="849" y="194"/>
      <point x="888" y="378" type="curve"/>
      <point x="1015" y="976" type="line" smooth="yes"/>
      <point x="1052" y="1148"/>
      <point x="988" y="1296"/>
      <point x="753" y="1296" type="curve"/>
      <point x="469" y="1296" type="line"/>
    </contour>
  </outline>
</glyph>
<glyph name="E" format="1">
  <advance width="810"/>
  <unicode hex="0045"/>
  <outline>
    <contour>
      <point x="744" y="0" type="line"/>
      <point x="82" y="0" type="line"/>
      <point x="379" y="1396" type="line"/>
      <point x="1045" y="1396" type="line"/>
      <point x="1023" y="1292" type="line"/>
      <point x="469" y="1292" type="line"/>
      <point x="369" y="822" type="line"/>
      <point x="749" y="822" type="line"/>
      <point x="696" y="712" type="line"/>
      <point x="345" y="712" type="line"/>
      <point x="215" y="100" type="line"/>
      <point x="765" y="100" type="line"/>
    </contour>
  </outline>
</glyph>
<glyph name="F" format="1">
  <advance width="780"/>
  <unicode hex="0046"/>
  <outline>
    <contour>
      <point x="379" y="1396" type="line"/>
      <point x="1045" y="1396" type="line"/>
      <point x="1022" y="1290" type="line"/>
      <point x="468" y="1290" type="line"/>
      <point x="369" y="822" type="line"/>
      <point x="751" y="822" type="line"/>
      <point x="702" y="712" type="line"/>
      <point x="345" y="712" type="line"/>
      <point x="194" y="0" type="line"/>
      <point x="82" y="0" type="line"/>
    </contour>
  </outline>
</glyph>
<glyph name="G" format="1">
  <advance width="954"/>
  <unicode hex="0047"/>
  <outline>
    <contour>
      <point x="1027" y="1348" type="curve"/>
      <point x="976" y="1272" type="line"/>
      <point x="908" y="1301"/>
      <point x="840" y="1314"/>
      <point x="773" y="1314" type="curve"/>
      <point x="575" y="1314"/>
      <point x="441" y="1228"/>
      <point x="397" y="1020" type="curve"/>
      <point x="259" y="372" type="line" smooth="yes"/>
      <point x="220" y="190"/>
      <point x="335" y="88"/>
      <point x="509" y="88" type="curve"/>
      <point x="681" y="88"/>
      <point x="826" y="196"/>
      <point x="863" y="372" type="curve"/>
      <point x="888" y="488" type="line"/>
      <point x="630" y="488" type="line"/>
      <point x="613" y="598" type="line"/>
      <point x="1017" y="598" type="line"/>
      <point x="890" y="0" type="line"/>
      <point x="788" y="0" type="line"/>
      <point x="797" y="82" type="line"/>
      <point x="710" y="13"/>
      <point x="614" y="-20"/>
      <point x="490" y="-20" type="curve"/>
      <point x="260" y="-20"/>
      <point x="93" y="116"/>
      <point x="148" y="376" type="curve"/>
      <point x="281" y="1004" type="line" smooth="yes"/>
      <point x="336" y="1260"/>
      <point x="505" y="1414"/>
      <point x="757" y="1414" type="curve"/>
      <point x="861" y="1414"/>
      <point x="951" y="1392"/>
    </contour>
  </outline>
</glyph>
<glyph name="I" format="1">
  <advance width="372"/>
  <unicode hex="0049"/>
  <outline>
    <contour>
      <point x="451" y="1294" type="line"/>
      <point x="316" y="1298" type="line"/>
      <point x="337" y="1396" type="line"/>
      <point x="583" y="1396" type="line"/>
      <point x="286" y="0" type="line"/>
      <point x="176" y="0" type="line"/>
    </contour>
  </outline>
</glyph>
<glyph name="J" format="1">
  <advance width="412"/>
  <unicode hex="004A"/>
  <outline>
    <contour>
      <point x="627" y="1396" type="line"/>
      <point x="380" y="236" type="line"/>
      <point x="346" y="72"/>
      <point x="248" y="-74"/>
      <point x="64" y="-74" type="curve"/>
      <point x="54" y="0" type="line"/>
      <point x="142" y="0"/>
      <point x="231" y="69"/>
      <point x="264" y="226" type="curve"/>
      <point x="491" y="1294" type="line"/>
      <point x="360" y="1298" type="line"/>
      <point x="381" y="1396" type="line"/>
    </contour>
  </outline>
</glyph>
<glyph name="K" format="1">
  <advance width="914"/>
  <unicode hex="004B"/>
  <outline>
    <contour>
      <point x="491" y="1396" type="line"/>
      <point x="350" y="732" type="line"/>
      <point x="937" y="1396" type="line"/>
      <point x="1067" y="1396" type="line"/>
      <point x="531" y="794" type="line"/>
      <point x="874" y="0" type="line"/>
      <point x="740" y="0" type="line"/>
      <point x="434" y="688" type="line"/>
      <point x="308" y="536" type="line"/>
      <point x="194" y="0" type="line"/>
      <point x="82" y="0" type="line"/>
      <point x="379" y="1396" type="line"/>
    </contour>
  </outline>
</glyph>
<glyph name="L" format="1">
  <advance width="846"/>
  <unicode hex="004C"/>
  <outline>
    <contour>
      <point x="802" y="0" type="line"/>
      <point x="82" y="0" type="line"/>
      <point x="379" y="1396" type="line"/>
      <point x="491" y="1396" type="line"/>
      <point x="215" y="100" type="line"/>
      <point x="823" y="100" type="line"/>
    </contour>
  </outline>
</glyph>
<glyph name="M" format="1">
  <advance width="1238"/>
  <unicode hex="004D"/>
  <outline>
    <contour>
      <point x="379" y="1396" type="line"/>
      <point x="491" y="1396" type="line"/>
      <point x="651" y="172" type="line"/>
      <point x="1337" y="1396" type="line"/>
      <point x="1449" y="1396" type="line"/>
      <point x="1152" y="0" type="line"/>
      <point x="1040" y="0" type="line"/>
      <point x="1267" y="1066" type="line"/>
      <point x="676" y="0" type="line"/>
      <point x="554" y="0" type="line"/>
      <point x="421" y="1066" type="line"/>
      <point x="194" y="0" type="line"/>
      <point x="82" y="0" type="line"/>
    </contour>
  </outline>
</glyph>
<glyph name="N" format="1">
  <advance width="1150"/>
  <unicode hex="004E"/>
  <outline>
    <contour>
      <point x="1249" y="1396" type="line"/>
      <point x="1361" y="1396" type="line"/>
      <point x="1064" y="0" type="line"/>
      <point x="952" y="0" type="line"/>
      <point x="447" y="1190" type="line"/>
      <point x="194" y="0" type="line"/>
      <point x="82" y="0" type="line"/>
      <point x="379" y="1396" type="line"/>
      <point x="491" y="1396" type="line"/>
      <point x="995" y="204" type="line"/>
    </contour>
  </outline>
</glyph>
<glyph name="O" format="1">
  <advance width="980"/>
  <unicode hex="004F"/>
  <outline>
    <contour>
      <point x="147" y="370" type="curve"/>
      <point x="283" y="1012" type="line"/>
      <point x="341" y="1284"/>
      <point x="532" y="1428"/>
      <point x="796" y="1428" type="curve"/>
      <point x="1060" y="1428"/>
      <point x="1178" y="1271"/>
      <point x="1123" y="1010" type="curve"/>
      <point x="987" y="370" type="line" smooth="yes"/>
      <point x="935" y="129"/>
      <point x="732" y="-22"/>
      <point x="485" y="-22" type="curve"/>
      <point x="249" y="-22"/>
      <point x="92" y="112"/>
    </contour>
    <contour>
      <point x="399" y="1030" type="curve"/>
      <point x="259" y="372" type="line"/>
      <point x="218" y="180"/>
      <point x="329" y="84"/>
      <point x="504" y="84" type="curve"/>
      <point x="687" y="84"/>
      <point x="835" y="176"/>
      <point x="877" y="372" type="curve"/>
      <point x="1017" y="1030" type="line" smooth="yes"/>
      <point x="1058" y="1225"/>
      <point x="956" y="1322"/>
      <point x="767" y="1322" type="curve"/>
      <point x="583" y="1322"/>
      <point x="440" y="1225"/>
    </contour>
  </outline>
</glyph>
<glyph name="P" format="1">
  <advance width="1008"/>
  <unicode hex="0050"/>
  <outline>
    <contour>
      <point x="379" y="1396" type="line"/>
      <point x="849" y="1396" type="line"/>
      <point x="1102" y="1396"/>
      <point x="1221" y="1286"/>
      <point x="1149" y="944" type="curve"/>
      <point x="1078" y="613"/>
      <point x="921" y="488"/>
      <point x="656" y="488" type="curve"/>
      <point x="561" y="488"/>
      <point x="424" y="488"/>
      <point x="298" y="488" type="curve"/>
      <point x="194" y="0" type="line"/>
      <point x="82" y="0" type="line"/>
    </contour>
    <contour>
      <point x="468" y="1290" type="line"/>
      <point x="321" y="598" type="line"/>
      <point x="468" y="598"/>
      <point x="601" y="598"/>
      <point x="689" y="598" type="curve"/>
      <point x="841" y="598"/>
      <point x="972" y="639"/>
      <point x="1037" y="944" type="curve"/>
      <point x="1097" y="1227"/>
      <point x="992" y="1290"/>
      <point x="836" y="1290" type="curve"/>
    </contour>
  </outline>
</glyph>
<glyph name="Q" format="1">
  <advance width="980"/>
  <unicode hex="0051"/>
  <outline>
    <contour>
      <point x="614" y="346" type="line"/>
      <point x="561" y="100" type="line"/>
      <point x="526" y="-65"/>
      <point x="604" y="-122"/>
      <point x="764" y="-122" type="curve"/>
      <point x="733" y="-214" type="line"/>
      <point x="500" y="-214"/>
      <point x="402" y="-123"/>
      <point x="450" y="102" type="curve"/>
      <point x="502" y="346" type="line"/>
    </contour>
    <component base="O"/>
  </outline>
</glyph>
<glyph name="R" format="1">
  <advance width="1016"/>
  <unicode hex="0052"/>
  <outline>
    <contour>
      <point x="379" y="1396" type="line"/>
      <point x="849" y="1396" type="line"/>
      <point x="1103" y="1396"/>
      <point x="1221" y="1286"/>
      <point x="1149" y="944" type="curve"/>
      <point x="1101" y="717"/>
      <point x="1015" y="589"/>
      <point x="876" y="528" type="curve"/>
      <point x="956" y="0" type="line"/>
      <point x="844" y="0" type="line"/>
      <point x="768" y="498" type="line"/>
      <point x="734" y="490"/>
      <point x="696" y="488"/>
      <point x="656" y="488" type="curve"/>
      <point x="298" y="488" type="line"/>
      <point x="194" y="0" type="line"/>
      <point x="82" y="0" type="line"/>
    </contour>
    <contour>
      <point x="321" y="598" type="line"/>
      <point x="689" y="598" type="line"/>
      <point x="840" y="598"/>
      <point x="972" y="639"/>
      <point x="1037" y="944" type="curve"/>
      <point x="1097" y="1227"/>
      <point x="992" y="1290"/>
      <point x="836" y="1290" type="curve"/>
      <point x="468" y="1290" type="line"/>
    </contour>
  </outline>
</glyph>
<glyph name="S" format="1">
  <advance width="1056"/>
  <unicode hex="0053"/>
  <outline>
    <contour>
      <point x="1157" y="1340" type="curve"/>
      <point x="1101" y="1236" type="line"/>
      <point x="1029" y="1282"/>
      <point x="940" y="1306"/>
      <point x="846" y="1306" type="curve"/>
      <point x="712" y="1306"/>
      <point x="505" y="1266"/>
      <point x="469" y="1094" type="curve"/>
      <point x="390" y="724"/>
      <point x="1178" y="858"/>
      <point x="1072" y="358" type="curve"/>
      <point x="1016" y="92"/>
      <point x="755" y="-24"/>
      <point x="519" y="-24" type="curve"/>
      <point x="333" y="-24"/>
      <point x="181" y="42"/>
      <point x="89" y="184" type="curve"/>
      <point x="174" y="254" type="line"/>
      <point x="234" y="142"/>
      <point x="398" y="84"/>
      <point x="534" y="84" type="curve"/>
      <point x="722" y="84"/>
      <point x="910" y="162"/>
      <point x="956" y="374" type="curve"/>
      <point x="1033" y="740"/>
      <point x="255" y="644"/>
      <point x="351" y="1094" type="curve"/>
      <point x="403" y="1340"/>
      <point x="663" y="1414"/>
      <point x="867" y="1414" type="curve"/>
      <point x="973" y="1414"/>
      <point x="1074" y="1390"/>
    </contour>
  </outline>
</glyph>
<glyph name="T" format="1">
  <advance width="832"/>
  <unicode hex="0054"/>
  <outline>
    <contour>
      <point x="1092" y="1296" type="line"/>
      <point x="740" y="1296" type="line"/>
      <point x="464" y="0" type="line"/>
      <point x="354" y="0" type="line"/>
      <point x="630" y="1296" type="line"/>
      <point x="290" y="1296" type="line"/>
      <point x="311" y="1396" type="line"/>
      <point x="1113" y="1396" type="line"/>
    </contour>
  </outline>
</glyph>
<glyph name="U" format="1">
  <advance width="992"/>
  <unicode hex="0055"/>
  <outline>
    <contour>
      <point x="1209" y="1396" type="line"/>
      <point x="991" y="370" type="line"/>
      <point x="962" y="235"/>
      <point x="900" y="136"/>
      <point x="803" y="72" type="curve"/>
      <point x="710" y="9"/>
      <point x="606" y="-22"/>
      <point x="491" y="-22" type="curve"/>
      <point x="375" y="-22"/>
      <point x="283" y="9"/>
      <point x="213" y="72" type="curve"/>
      <point x="146" y="137"/>
      <point x="126" y="237"/>
      <point x="155" y="370" type="curve"/>
      <point x="373" y="1396" type="line"/>
      <point x="483" y="1396" type="line"/>
      <point x="265" y="372" type="line" smooth="yes"/>
      <point x="244" y="272"/>
      <point x="260" y="197"/>
      <point x="313" y="148" type="curve"/>
      <point x="358" y="105"/>
      <point x="424" y="84"/>
      <point x="512" y="84" type="curve"/>
      <point x="608" y="84"/>
      <point x="694" y="109"/>
      <point x="758" y="162" type="curve"/>
      <point x="817" y="213"/>
      <point x="862" y="281"/>
      <point x="881" y="372" type="curve"/>
      <point x="1099" y="1396" type="line"/>
    </contour>
  </outline>
</glyph>
<glyph name="V" format="1">
  <advance width="1018"/>
  <unicode hex="0056"/>
  <outline>
    <contour>
      <point x="430" y="0" type="line"/>
      <point x="327" y="1396" type="line"/>
      <point x="447" y="1396" type="line"/>
      <point x="535" y="138" type="line"/>
      <point x="1161" y="1396" type="line"/>
      <point x="1279" y="1396" type="line"/>
      <point x="584" y="0" type="line"/>
    </contour>
  </outline>
</glyph>
<glyph name="W" format="1">
  <advance width="1462"/>
  <unicode hex="0057"/>
  <outline>
    <contour>
      <point x="928" y="1396" type="line"/>
      <point x="1068" y="1396" type="line"/>
      <point x="1068" y="184" type="line"/>
      <point x="1600" y="1396" type="line"/>
      <point x="1718" y="1396" type="line"/>
      <point x="1096" y="0" type="line"/>
      <point x="956" y="0" type="line"/>
      <point x="956" y="1148" type="line"/>
      <point x="514" y="0" type="line"/>
      <point x="348" y="0" type="line"/>
      <point x="348" y="1396" type="line"/>
      <point x="460" y="1396" type="line"/>
      <point x="460" y="138" type="line"/>
    </contour>
  </outline>
</glyph>
<glyph name="Z" format="1">
  <advance width="1090"/>
  <unicode hex="005A"/>
  <outline>
    <contour>
      <point x="379" y="1396" type="line"/>
      <point x="1315" y="1396" type="line"/>
      <point x="1293" y="1296" type="line"/>
      <point x="220" y="102" type="line"/>
      <point x="1050" y="102" type="line"/>
      <point x="1028" y="0" type="line"/>
      <point x="58" y="0" type="line"/>
      <point x="79" y="100" type="line"/>
      <point x="1149" y="1294" type="line"/>
      <point x="357" y="1294" type="line"/>
    </contour>
  </outline>
</glyph>
<glyph name="bracketleft" format="1">
  <advance width="444"/>
  <unicode hex="005B"/>
  <outline>
    <contour>
      <point x="733" y="1540" type="line"/>
      <point x="519" y="1520" type="line"/>
      <point x="171" y="-118" type="line"/>
      <point x="377" y="-138" type="line"/>
      <point x="358" y="-226" type="line"/>
      <point x="36" y="-226" type="line"/>
      <point x="430" y="1630" type="line"/>
      <point x="752" y="1630" type="line"/>
    </contour>
  </outline>
</glyph>
<glyph name="backslash" format="1">
  <advance width="826"/>
  <unicode hex="005C"/>
  <outline>
    <contour>
      <point x="744" y="-226" type="line"/>
      <point x="622" y="-226" type="line"/>
      <point x="378" y="1630" type="line"/>
      <point x="490" y="1630" type="line"/>
    </contour>
  </outline>
</glyph>
<glyph name="bracketright" format="1">
  <advance width="448"/>
  <unicode hex="005D"/>
  <outline>
    <contour>
      <point x="314" y="-226" type="line"/>
      <point x="-8" y="-226" type="line"/>
      <point x="11" y="-138" type="line"/>
      <point x="225" y="-118" type="line"/>
      <point x="573" y="1520" type="line"/>
      <point x="367" y="1540" type="line"/>
      <point x="386" y="1630" type="line"/>
      <point x="708" y="1630" type="line"/>
    </contour>
  </outline>
</glyph>
<glyph name="asciicircum" format="1">
  <advance width="532"/>
  <unicode hex="005E"/>
  <outline>
    <contour>
      <point x="651" y="1794" type="line"/>
      <point x="853" y="1540" type="line"/>
      <point x="760" y="1466" type="line"/>
      <point x="619" y="1642" type="line"/>
      <point x="394" y="1460" type="line"/>
      <point x="333" y="1538" type="line"/>
    </contour>
  </outline>
</glyph>
<glyph name="grave" format="1">
  <advance width="532"/>
  <unicode hex="0060"/>
  <outline>
    <contour>
      <point x="530" y="1430" type="curve"/>
      <point x="562" y="1216" type="line"/>
      <point x="490" y="1216" type="line"/>
      <point x="418" y="1374" type="line"/>
      <point x="400" y="1403"/>
      <point x="412" y="1451"/>
      <point x="450" y="1470" type="curve"/>
      <point x="492" y="1491"/>
      <point x="527" y="1467"/>
    </contour>
  </outline>
</glyph>
<glyph name="a" format="1">
  <advance width="892"/>
  <unicode hex="0061"/>
  <outline>
    <contour>
      <point x="856" y="698" type="curve"/>
      <point x="880" y="807"/>
      <point x="850" y="863"/>
      <point x="783" y="898" type="curve"/>
      <point x="737" y="922"/>
      <point x="672" y="928"/>
      <point x="597" y="928" type="curve"/>
      <point x="620" y="1014" type="line"/>
      <point x="713" y="1014"/>
      <point x="810" y="1008"/>
      <point x="882" y="960" type="curve"/>
      <point x="1008" y="878"/>
      <point x="968" y="698"/>
      <point x="942" y="574" type="curve"/>
      <point x="820" y="0" type="line"/>
      <point x="824" y="0"/>
      <point x="598" y="-18"/>
      <point x="500" y="-20" type="curve"/>
      <point x="244" y="-28"/>
      <point x="64" y="41"/>
      <point x="123" y="336" type="curve"/>
      <point x="159" y="502" type="line" smooth="yes"/>
      <point x="204" y="726"/>
      <point x="369" y="804"/>
      <point x="529" y="804" type="curve"/>
      <point x="660" y="804"/>
      <point x="774" y="751"/>
    </contour>
    <contour>
      <point x="728" y="92" type="curve"/>
      <point x="836" y="604" type="line"/>
      <point x="742" y="659"/>
      <point x="624" y="708"/>
      <point x="498" y="708" type="curve"/>
      <point x="428" y="708"/>
      <point x="307" y="678"/>
      <point x="268" y="498" type="curve"/>
      <point x="236" y="350" type="line" smooth="yes"/>
      <point x="195" y="160"/>
      <point x="243" y="64"/>
      <point x="512" y="76" type="curve"/>
      <point x="644" y="82"/>
      <point x="727" y="93"/>
    </contour>
  </outline>
</glyph>
<glyph name="b" format="1">
  <advance width="910"/>
  <unicode hex="0062"/>
  <outline>
    <contour>
      <point x="491" y="1396" type="line"/>
      <point x="394" y="942" type="line"/>
      <point x="493" y="982"/>
      <point x="603" y="1016"/>
      <point x="734" y="1016" type="curve"/>
      <point x="893" y="1016"/>
      <point x="1050" y="941"/>
      <point x="1002" y="716" type="curve"/>
      <point x="975" y="589"/>
      <point x="948" y="463"/>
      <point x="921" y="336" type="curve"/>
      <point x="859" y="42"/>
      <point x="648" y="-28"/>
      <point x="392" y="-20" type="curve"/>
      <point x="299" y="-18"/>
      <point x="77" y="0"/>
      <point x="82" y="0" type="curve"/>
      <point x="379" y="1396" type="line"/>
    </contour>
    <contour>
      <point x="214" y="92" type="curve"/>
      <point x="214" y="93"/>
      <point x="293" y="84"/>
      <point x="422" y="76" type="curve"/>
      <point x="687" y="65"/>
      <point x="774" y="160"/>
      <point x="814" y="350" type="curve"/>
      <point x="822" y="386"/>
      <point x="882" y="669"/>
      <point x="890" y="708" type="curve"/>
      <point x="930" y="893"/>
      <point x="796" y="922"/>
      <point x="722" y="922" type="curve"/>
      <point x="594" y="922"/>
      <point x="492" y="889"/>
      <point x="373" y="844" type="curve"/>
      <point x="320" y="594"/>
      <point x="267" y="344"/>
    </contour>
  </outline>
</glyph>
<glyph name="c" format="1">
  <advance width="760"/>
  <unicode hex="0063"/>
  <outline>
    <contour>
      <point x="898" y="952" type="curve"/>
      <point x="849" y="860" type="line"/>
      <point x="762" y="905"/>
      <point x="632" y="927"/>
      <point x="543" y="906" type="curve"/>
      <point x="481" y="893"/>
      <point x="419" y="852"/>
      <point x="373" y="788" type="curve"/>
      <point x="340" y="743"/>
      <point x="313" y="682"/>
      <point x="298" y="610" type="curve"/>
      <point x="247" y="370" type="line" smooth="yes"/>
      <point x="219" y="239"/>
      <point x="229" y="141"/>
      <point x="328" y="104" type="curve"/>
      <point x="440" y="49"/>
      <point x="706" y="112"/>
      <point x="701" y="110" type="curve"/>
      <point x="702" y="10" type="line"/>
      <point x="561" y="-25"/>
      <point x="394" y="-35"/>
      <point x="282" y="2" type="curve"/>
      <point x="156" y="47"/>
      <point x="90" y="151"/>
      <point x="132" y="346" type="curve"/>
      <point x="193" y="636" type="line"/>
      <point x="217" y="724"/>
      <point x="245" y="788"/>
      <point x="293" y="852" type="curve"/>
      <point x="365" y="940"/>
      <point x="452" y="989"/>
      <point x="546" y="1008" type="curve"/>
      <point x="669" y="1032"/>
      <point x="795" y="1005"/>
    </contour>
  </outline>
</glyph>
<glyph name="d" format="1">
  <advance width="912"/>
  <unicode hex="0064"/>
  <outline>
    <contour>
      <point x="1123" y="1396" type="line"/>
      <point x="826" y="0" type="line"/>
      <point x="830" y="0"/>
      <point x="602" y="-18"/>
      <point x="510" y="-20" type="curve"/>
      <point x="251" y="-28"/>
      <point x="67" y="42"/>
      <point x="129" y="336" type="curve"/>
      <point x="210" y="716" type="line" smooth="yes"/>
      <point x="258" y="941"/>
      <point x="448" y="1016"/>
      <point x="606" y="1016" type="curve"/>
      <point x="737" y="1016"/>
      <point x="834" y="982"/>
      <point x="916" y="942" type="curve"/>
      <point x="1013" y="1396" type="line"/>
    </contour>
    <contour>
      <point x="736" y="92" type="curve"/>
      <point x="895" y="844" type="line"/>
      <point x="798" y="889"/>
      <point x="706" y="922"/>
      <point x="578" y="922" type="curve"/>
      <point x="510" y="922"/>
      <point x="353" y="895"/>
      <point x="319" y="708" type="curve"/>
      <point x="242" y="350" type="line" smooth="yes"/>
      <point x="202" y="160"/>
      <point x="252" y="68"/>
      <point x="520" y="76" type="curve"/>
      <point x="649" y="80"/>
      <point x="736" y="93"/>
    </contour>
  </outline>
</glyph>
<glyph name="e" format="1">
  <advance width="842"/>
  <unicode hex="0065"/>
  <outline>
    <contour>
      <point x="257" y="390" type="line"/>
      <point x="231" y="266" type="line"/>
      <point x="202" y="128"/>
      <point x="280" y="72"/>
      <point x="411" y="72" type="curve"/>
      <point x="510" y="72"/>
      <point x="608" y="103"/>
      <point x="721" y="156" type="curve"/>
      <point x="747" y="70" type="line"/>
      <point x="633" y="9"/>
      <point x="502" y="-24"/>
      <point x="401" y="-24" type="curve"/>
      <point x="198" y="-24"/>
      <point x="72" y="44"/>
      <point x="119" y="266" type="curve"/>
      <point x="206" y="676" type="line" smooth="yes"/>
      <point x="252" y="896"/>
      <point x="410" y="1016"/>
      <point x="628" y="1016" type="curve"/>
      <point x="846" y="1016"/>
      <point x="972" y="898"/>
      <point x="927" y="682" type="curve"/>
      <point x="872" y="422" type="line"/>
    </contour>
    <contour>
      <point x="781" y="522" type="line"/>
      <point x="818" y="696" type="line"/>
      <point x="846" y="834"/>
      <point x="764" y="922"/>
      <point x="624" y="922" type="curve"/>
      <point x="462" y="922"/>
      <point x="354" y="832"/>
      <point x="317" y="674" type="curve"/>
      <point x="280" y="500" type="line"/>
    </contour>
  </outline>
</glyph>
<glyph name="f" format="1">
  <advance width="496"/>
  <unicode hex="0066"/>
  <outline>
    <contour>
      <point x="746" y="1410" type="curve"/>
      <point x="707" y="1312" type="line"/>
      <point x="689" y="1315"/>
      <point x="672" y="1316"/>
      <point x="656" y="1316" type="curve"/>
      <point x="534" y="1316"/>
      <point x="454" y="1242"/>
      <point x="423" y="1096" type="curve"/>
      <point x="402" y="996" type="line"/>
      <point x="630" y="996" type="line"/>
      <point x="562" y="892" type="line"/>
      <point x="380" y="892" type="line"/>
      <point x="190" y="0" type="line"/>
      <point x="78" y="0" type="line"/>
      <point x="311" y="1096" type="line" smooth="yes"/>
      <point x="364" y="1347"/>
      <point x="546" y="1420"/>
      <point x="675" y="1416" type="curve"/>
      <point x="702" y="1416"/>
      <point x="726" y="1415"/>
    </contour>
  </outline>
</glyph>
<glyph name="g" format="1">
  <advance width="880"/>
  <unicode hex="0067"/>
  <outline>
    <contour>
      <point x="1012" y="996" type="line"/>
      <point x="773" y="-128" type="line"/>
      <point x="739" y="-288"/>
      <point x="657" y="-372"/>
      <point x="495" y="-420" type="curve"/>
      <point x="481" y="-334" type="line"/>
      <point x="577" y="-298"/>
      <point x="637" y="-232"/>
      <point x="659" y="-126" type="curve"/>
      <point x="712" y="122" type="line"/>
      <point x="650" y="40"/>
      <point x="518" y="-24"/>
      <point x="399" y="-24" type="curve"/>
      <point x="175" y="-24"/>
      <point x="85" y="107"/>
      <point x="136" y="350" type="curve"/>
      <point x="209" y="690" type="line" smooth="yes"/>
      <point x="253" y="901"/>
      <point x="402" y="1027"/>
      <point x="618" y="1016" type="curve"/>
      <point x="714" y="1012"/>
      <point x="805" y="974"/>
      <point x="878" y="902" type="curve"/>
      <point x="898" y="996" type="line"/>
    </contour>
    <contour>
      <point x="760" y="346" type="curve"/>
      <point x="853" y="784" type="line"/>
      <point x="816" y="866"/>
      <point x="704" y="908"/>
      <point x="621" y="916" type="curve"/>
      <point x="499" y="928"/>
      <point x="358" y="864"/>
      <point x="319" y="684" type="curve"/>
      <point x="245" y="332" type="line" smooth="yes"/>
      <point x="209" y="164"/>
      <point x="275" y="80"/>
      <point x="427" y="80" type="curve"/>
      <point x="580" y="80"/>
      <point x="724" y="177"/>
    </contour>
  </outline>
</glyph>
<glyph name="h" format="1">
  <advance width="886"/>
  <unicode hex="0068"/>
  <outline>
    <contour>
      <point x="491" y="1396" type="line"/>
      <point x="392" y="930" type="line"/>
      <point x="480" y="983"/>
      <point x="589" y="1016"/>
      <point x="688" y="1016" type="curve"/>
      <point x="909" y="1016"/>
      <point x="1011" y="900"/>
      <point x="967" y="690" type="curve"/>
      <point x="820" y="0" type="line"/>
      <point x="708" y="0" type="line"/>
      <point x="853" y="684" type="line" smooth="yes"/>
      <point x="892" y="866"/>
      <point x="772" y="916"/>
      <point x="645" y="916" type="curve"/>
      <point x="554" y="916"/>
      <point x="467" y="893"/>
      <point x="374" y="848" type="curve"/>
      <point x="194" y="0" type="line"/>
      <point x="82" y="0" type="line"/>
      <point x="379" y="1396" type="line"/>
    </contour>
  </outline>
</glyph>
<glyph name="i" format="1">
  <advance width="300"/>
  <unicode hex="0069"/>
  <outline>
    <contour>
      <point x="188" y="0" type="line"/>
      <point x="76" y="0" type="line"/>
      <point x="288" y="998" type="line"/>
      <point x="400" y="998" type="line"/>
    </contour>
    <contour>
      <point x="451" y="1416" type="curve"/>
      <point x="486" y="1416"/>
      <point x="510" y="1385"/>
      <point x="503" y="1348" type="curve"/>
      <point x="495" y="1313"/>
      <point x="457" y="1282"/>
      <point x="422" y="1282" type="curve"/>
      <point x="385" y="1282"/>
      <point x="361" y="1313"/>
      <point x="369" y="1348" type="curve"/>
      <point x="376" y="1385"/>
      <point x="414" y="1416"/>
    </contour>
  </outline>
</glyph>
<glyph name="j" format="1">
  <advance width="398"/>
  <unicode hex="006A"/>
  <outline>
    <contour>
      <point x="510" y="998" type="line"/>
      <point x="271" y="-126" type="line"/>
      <point x="252" y="-217"/>
      <point x="220" y="-281"/>
      <point x="163" y="-332" type="curve"/>
      <point x="121" y="-369"/>
      <point x="68" y="-397"/>
      <point x="-3" y="-418" type="curve"/>
      <point x="-17" y="-332" type="line"/>
      <point x="29" y="-316"/>
      <point x="65" y="-291"/>
      <point x="92" y="-262" type="curve"/>
      <point x="127" y="-225"/>
      <point x="148" y="-180"/>
      <point x="160" y="-124" type="curve"/>
      <point x="376" y="894" type="line"/>
      <point x="248" y="894" type="line"/>
      <point x="270" y="998" type="line"/>
    </contour>
    <contour>
      <point x="601" y="1348" type="curve"/>
      <point x="593" y="1313"/>
      <point x="556" y="1282"/>
      <point x="518" y="1282" type="curve"/>
      <point x="481" y="1282"/>
      <point x="457" y="1313"/>
      <point x="465" y="1348" type="curve"/>
      <point x="472" y="1385"/>
      <point x="509" y="1414"/>
      <point x="547" y="1414" type="curve"/>
      <point x="584" y="1414"/>
      <point x="608" y="1385"/>
    </contour>
  </outline>
</glyph>
<glyph name="k" format="1">
  <advance width="852"/>
  <unicode hex="006B"/>
  <outline>
    <contour>
      <point x="878" y="960" type="line"/>
      <point x="527" y="702" type="line"/>
      <point x="814" y="0" type="line"/>
      <point x="680" y="0" type="line"/>
      <point x="432" y="632" type="line"/>
      <point x="310" y="544" type="line"/>
      <point x="194" y="0" type="line"/>
      <point x="82" y="0" type="line"/>
      <point x="379" y="1396" type="line"/>
      <point x="491" y="1396" type="line"/>
      <point x="336" y="668" type="line"/>
      <point x="814" y="1036" type="line"/>
    </contour>
  </outline>
</glyph>
<glyph name="l" format="1">
  <advance width="278"/>
  <unicode hex="006C"/>
  <outline>
    <contour>
      <point x="192" y="0" type="line"/>
      <point x="82" y="0" type="line"/>
      <point x="379" y="1396" type="line"/>
      <point x="489" y="1396" type="line"/>
    </contour>
  </outline>
</glyph>
<glyph name="m" format="1">
  <advance width="1430"/>
  <unicode hex="006D"/>
  <outline>
    <contour>
      <point x="1252" y="0" type="line"/>
      <point x="1397" y="682" type="line"/>
      <point x="1436" y="864"/>
      <point x="1331" y="914"/>
      <point x="1204" y="914" type="curve"/>
      <point x="1127" y="914"/>
      <point x="1036" y="893"/>
      <point x="927" y="834" type="curve"/>
      <point x="934" y="791"/>
      <point x="930" y="742"/>
      <point x="918" y="686" type="curve"/>
      <point x="772" y="0" type="line"/>
      <point x="668" y="0" type="line"/>
      <point x="813" y="682" type="line" smooth="yes"/>
      <point x="852" y="864"/>
      <point x="747" y="914"/>
      <point x="620" y="914" type="curve"/>
      <point x="530" y="914"/>
      <point x="460" y="892"/>
      <point x="367" y="844" type="curve"/>
      <point x="188" y="0" type="line"/>
      <point x="76" y="0" type="line"/>
      <point x="288" y="996" type="line"/>
      <point x="400" y="996" type="line"/>
      <point x="385" y="928" type="line"/>
      <point x="479" y="981"/>
      <point x="563" y="1014"/>
      <point x="662" y="1014" type="curve"/>
      <point x="787" y="1014"/>
      <point x="870" y="974"/>
      <point x="908" y="902" type="curve"/>
      <point x="1035" y="985"/>
      <point x="1160" y="1014"/>
      <point x="1246" y="1014" type="curve"/>
      <point x="1467" y="1014"/>
      <point x="1549" y="899"/>
      <point x="1504" y="686" type="curve"/>
      <point x="1358" y="0" type="line"/>
    </contour>
  </outline>
</glyph>
<glyph name="n" format="1">
  <advance width="884"/>
  <unicode hex="006E"/>
  <outline>
    <contour>
      <point x="702" y="0" type="line"/>
      <point x="847" y="682" type="line"/>
      <point x="885" y="862"/>
      <point x="765" y="916"/>
      <point x="637" y="916" type="curve"/>
      <point x="546" y="916"/>
      <point x="461" y="893"/>
      <point x="368" y="848" type="curve"/>
      <point x="188" y="0" type="line"/>
      <point x="76" y="0" type="line"/>
      <point x="288" y="998" type="line"/>
      <point x="400" y="998" type="line"/>
      <point x="386" y="930" type="line"/>
      <point x="474" y="983"/>
      <point x="581" y="1016"/>
      <point x="680" y="1016" type="curve"/>
      <point x="901" y="1016"/>
      <point x="1002" y="896"/>
      <point x="958" y="688" type="curve"/>
      <point x="812" y="0" type="line"/>
    </contour>
  </outline>
</glyph>
<glyph name="o" format="1">
  <advance width="858"/>
  <unicode hex="006F"/>
  <outline>
    <contour>
      <point x="930" y="630" type="curve"/>
      <point x="874" y="368" type="line"/>
      <point x="825" y="138"/>
      <point x="673" y="-20"/>
      <point x="430" y="-20" type="curve"/>
      <point x="181" y="-20"/>
      <point x="90" y="153"/>
      <point x="136" y="368" type="curve"/>
      <point x="192" y="630" type="line" smooth="yes"/>
      <point x="246" y="883"/>
      <point x="409" y="1020"/>
      <point x="647" y="1020" type="curve"/>
      <point x="884" y="1020"/>
      <point x="981" y="873"/>
    </contour>
    <contour>
      <point x="758" y="348" type="curve"/>
      <point x="818" y="630" type="line"/>
      <point x="859" y="822"/>
      <point x="803" y="920"/>
      <point x="630" y="920" type="curve"/>
      <point x="454" y="920"/>
      <point x="345" y="822"/>
      <point x="304" y="630" type="curve"/>
      <point x="244" y="348" type="line" smooth="yes"/>
      <point x="210" y="189"/>
      <point x="289" y="80"/>
      <point x="451" y="80" type="curve"/>
      <point x="618" y="80"/>
      <point x="723" y="185"/>
    </contour>
  </outline>
</glyph>
<glyph name="p" format="1">
  <advance width="882"/>
  <unicode hex="0070"/>
  <outline>
    <contour>
      <point x="963" y="690" type="curve"/>
      <point x="890" y="350" type="line"/>
      <point x="839" y="107"/>
      <point x="692" y="-24"/>
      <point x="471" y="-24" type="curve"/>
      <point x="346" y="-24"/>
      <point x="250" y="40"/>
      <point x="218" y="122" type="curve"/>
      <point x="102" y="-424" type="line"/>
      <point x="-1" y="-374" type="line"/>
      <point x="290" y="996" type="line"/>
      <point x="404" y="996" type="line"/>
      <point x="384" y="902" type="line"/>
      <point x="487" y="974"/>
      <point x="594" y="1012"/>
      <point x="692" y="1016" type="curve"/>
      <point x="916" y="1027"/>
      <point x="1007" y="901"/>
    </contour>
    <contour>
      <point x="773" y="332" type="curve"/>
      <point x="847" y="684" type="line"/>
      <point x="886" y="864"/>
      <point x="776" y="928"/>
      <point x="647" y="916" type="curve"/>
      <point x="558" y="908"/>
      <point x="434" y="866"/>
      <point x="359" y="784" type="curve"/>
      <point x="266" y="346" type="line" smooth="yes"/>
      <point x="230" y="177"/>
      <point x="333" y="80"/>
      <point x="487" y="80" type="curve"/>
      <point x="636" y="80"/>
      <point x="737" y="164"/>
    </contour>
  </outline>
</glyph>
<glyph name="q" format="1">
  <advance width="880"/>
  <unicode hex="0071"/>
  <outline>
    <contour>
      <point x="606" y="-374" type="line"/>
      <point x="712" y="124" type="line"/>
      <point x="650" y="43"/>
      <point x="518" y="-22"/>
      <point x="399" y="-22" type="curve"/>
      <point x="175" y="-22"/>
      <point x="85" y="109"/>
      <point x="137" y="352" type="curve"/>
      <point x="209" y="690" type="line" smooth="yes"/>
      <point x="254" y="903"/>
      <point x="402" y="1029"/>
      <point x="618" y="1018" type="curve"/>
      <point x="715" y="1014"/>
      <point x="805" y="976"/>
      <point x="878" y="904" type="curve"/>
      <point x="898" y="996" type="line"/>
      <point x="1012" y="996" type="line"/>
      <point x="710" y="-422" type="line"/>
    </contour>
    <contour>
      <point x="760" y="346" type="curve"/>
      <point x="853" y="786" type="line"/>
      <point x="815" y="870"/>
      <point x="705" y="910"/>
      <point x="621" y="918" type="curve"/>
      <point x="499" y="926"/>
      <point x="358" y="866"/>
      <point x="320" y="686" type="curve"/>
      <point x="245" y="334" type="line" smooth="yes"/>
      <point x="210" y="169"/>
      <point x="275" y="82"/>
      <point x="427" y="82" type="curve"/>
      <point x="582" y="82"/>
      <point x="723" y="176"/>
    </contour>
  </outline>
</glyph>
<glyph name="r" format="1">
  <advance width="664"/>
  <unicode hex="0072"/>
  <outline>
    <contour>
      <point x="834" y="1014" type="curve"/>
      <point x="805" y="918" type="line"/>
      <point x="805" y="918"/>
      <point x="765" y="923"/>
      <point x="722" y="920" type="curve"/>
      <point x="610" y="916"/>
      <point x="444" y="865"/>
      <point x="361" y="816" type="curve"/>
      <point x="188" y="0" type="line"/>
      <point x="76" y="0" type="line"/>
      <point x="288" y="998" type="line"/>
      <point x="400" y="998" type="line"/>
      <point x="386" y="932" type="line"/>
      <point x="494" y="977"/>
      <point x="600" y="1015"/>
      <point x="745" y="1020" type="curve"/>
      <point x="794" y="1025"/>
      <point x="834" y="1014"/>
    </contour>
  </outline>
</glyph>
<glyph name="s" format="1">
  <advance width="832"/>
  <unicode hex="0073"/>
  <outline>
    <contour>
      <point x="892" y="950" type="curve"/>
      <point x="830" y="876" type="line"/>
      <point x="780" y="911"/>
      <point x="698" y="930"/>
      <point x="627" y="926" type="curve"/>
      <point x="512" y="920"/>
      <point x="370" y="864"/>
      <point x="363" y="728" type="curve"/>
      <point x="361" y="683"/>
      <point x="389" y="649"/>
      <point x="428" y="622" type="curve"/>
      <point x="471" y="595"/>
      <point x="527" y="573"/>
      <point x="583" y="552" type="curve"/>
      <point x="710" y="500"/>
      <point x="853" y="436"/>
      <point x="829" y="266" type="curve"/>
      <point x="811" y="159"/>
      <point x="738" y="73"/>
      <point x="644" y="20" type="curve"/>
      <point x="578" y="-17"/>
      <point x="498" y="-36"/>
      <point x="418" y="-36" type="curve"/>
      <point x="352" y="-36"/>
      <point x="286" y="-21"/>
      <point x="226" y="8" type="curve"/>
      <point x="171" y="37"/>
      <point x="119" y="77"/>
      <point x="81" y="136" type="curve"/>
      <point x="157" y="200" type="line"/>
      <point x="226" y="112"/>
      <point x="316" y="68"/>
      <point x="440" y="68" type="curve"/>
      <point x="542" y="68"/>
      <point x="694" y="122"/>
      <point x="720" y="244" type="curve"/>
      <point x="732" y="303"/>
      <point x="716" y="344"/>
      <point x="678" y="376" type="curve"/>
      <point x="640" y="411"/>
      <point x="580" y="435"/>
      <point x="516" y="462" type="curve"/>
      <point x="450" y="489"/>
      <point x="383" y="512"/>
      <point x="332" y="554" type="curve"/>
      <point x="283" y="595"/>
      <point x="249" y="646"/>
      <point x="258" y="724" type="curve"/>
      <point x="270" y="833"/>
      <point x="337" y="913"/>
      <point x="425" y="964" type="curve"/>
      <point x="489" y="1001"/>
      <point x="566" y="1020"/>
      <point x="643" y="1020" type="curve"/>
      <point x="724" y="1020"/>
      <point x="806" y="1009"/>
    </contour>
  </outline>
</glyph>
<glyph name="t" format="1">
  <advance width="480"/>
  <unicode hex="0074"/>
  <outline>
    <contour>
      <point x="380" y="894" type="line"/>
      <point x="246" y="264" type="line"/>
      <point x="223" y="157"/>
      <point x="253" y="89"/>
      <point x="335" y="60" type="curve"/>
      <point x="282" y="-26" type="line"/>
      <point x="145" y="17"/>
      <point x="101" y="107"/>
      <point x="134" y="264" type="curve"/>
      <point x="375" y="1396" type="line"/>
      <point x="487" y="1396" type="line"/>
      <point x="402" y="998" type="line"/>
      <point x="642" y="998" type="line"/>
      <point x="572" y="894" type="line"/>
    </contour>
  </outline>
</glyph>
<glyph name="u" format="1">
  <advance width="888"/>
  <unicode hex="0075"/>
  <outline>
    <contour>
      <point x="696" y="0" type="line"/>
      <point x="716" y="96" type="line"/>
      <point x="633" y="19"/>
      <point x="516" y="-21"/>
      <point x="414" y="-20" type="curve"/>
      <point x="209" y="-17"/>
      <point x="88" y="86"/>
      <point x="136" y="312" type="curve"/>
      <point x="282" y="998" type="line"/>
      <point x="394" y="998" type="line"/>
      <point x="250" y="318" type="line" smooth="yes"/>
      <point x="211" y="136"/>
      <point x="294" y="73"/>
      <point x="461" y="88" type="curve"/>
      <point x="602" y="102"/>
      <point x="739" y="202"/>
      <point x="769" y="344" type="curve"/>
      <point x="908" y="998" type="line"/>
      <point x="1020" y="998" type="line"/>
      <point x="808" y="0" type="line"/>
    </contour>
  </outline>
</glyph>
<glyph name="w" format="1">
  <advance width="1412"/>
  <unicode hex="0077"/>
  <outline>
    <contour>
      <point x="858" y="996" type="line"/>
      <point x="972" y="996" type="line"/>
      <point x="1004" y="114" type="line"/>
      <point x="1458" y="996" type="line"/>
      <point x="1576" y="996" type="line"/>
      <point x="1054" y="0" type="line"/>
      <point x="900" y="0" type="line"/>
      <point x="872" y="808" type="line"/>
      <point x="496" y="0" type="line"/>
      <point x="342" y="0" type="line"/>
      <point x="250" y="996" type="line"/>
      <point x="366" y="996" type="line"/>
      <point x="446" y="114" type="line"/>
    </contour>
  </outline>
</glyph>
<glyph name="x" format="1">
  <advance width="872"/>
  <unicode hex="0078"/>
  <outline>
    <contour>
      <point x="400" y="996" type="line"/>
      <point x="565" y="598" type="line"/>
      <point x="902" y="996" type="line"/>
      <point x="1026" y="996" type="line"/>
      <point x="607" y="496" type="line"/>
      <point x="814" y="0" type="line"/>
      <point x="682" y="0" type="line"/>
      <point x="522" y="394" type="line"/>
      <point x="192" y="0" type="line"/>
      <point x="60" y="0" type="line"/>
      <point x="477" y="496" type="line"/>
      <point x="272" y="996" type="line"/>
    </contour>
  </outline>
</glyph>
<glyph name="y" format="1">
  <advance width="934"/>
  <unicode hex="0079"/>
  <outline>
    <contour>
      <point x="1051" y="1020" type="curve"/>
      <point x="1073" y="936" type="line"/>
      <point x="1032" y="920"/>
      <point x="999" y="897"/>
      <point x="981" y="814" type="curve"/>
      <point x="782" y="-124" type="line" smooth="yes"/>
      <point x="746" y="-292"/>
      <point x="670" y="-366"/>
      <point x="510" y="-416" type="curve"/>
      <point x="496" y="-330" type="line"/>
      <point x="592" y="-294"/>
      <point x="648" y="-222"/>
      <point x="670" y="-122" type="curve"/>
      <point x="717" y="100" type="line"/>
      <point x="634" y="20"/>
      <point x="516" y="-18"/>
      <point x="414" y="-18" type="curve"/>
      <point x="194" y="-18"/>
      <point x="89" y="88"/>
      <point x="137" y="314" type="curve"/>
      <point x="282" y="998" type="line"/>
      <point x="394" y="998" type="line"/>
      <point x="250" y="322" type="line" smooth="yes"/>
      <point x="211" y="137"/>
      <point x="337" y="88"/>
      <point x="461" y="88" type="curve"/>
      <point x="603" y="88"/>
      <point x="740" y="206"/>
      <point x="770" y="346" type="curve"/>
      <point x="869" y="816" type="line" smooth="yes"/>
      <point x="889" y="906"/>
      <point x="949" y="988"/>
    </contour>
  </outline>
</glyph>
<glyph name="z" format="1">
  <advance width="854"/>
  <unicode hex="007A"/>
  <outline>
    <contour>
      <point x="292" y="998" type="line"/>
      <point x="966" y="998" type="line"/>
      <point x="945" y="900" type="line"/>
      <point x="222" y="102" type="line"/>
      <point x="818" y="102" type="line"/>
      <point x="796" y="0" type="line"/>
      <point x="62" y="0" type="line"/>
      <point x="83" y="100" type="line"/>
      <point x="801" y="898" type="line"/>
      <point x="271" y="898" type="line"/>
    </contour>
  </outline>
</glyph>
<glyph name="braceleft" format="1">
  <advance width="514"/>
  <unicode hex="007B"/>
  <outline>
    <contour>
      <point x="591" y="1256" type="curve"/>
      <point x="543" y="1030" type="line"/>
      <point x="531" y="974"/>
      <point x="513" y="919"/>
      <point x="488" y="864" type="curve"/>
      <point x="463" y="809"/>
      <point x="413" y="756"/>
      <point x="340" y="704" type="curve"/>
      <point x="391" y="652"/>
      <point x="418" y="599"/>
      <point x="420" y="544" type="curve"/>
      <point x="421" y="489"/>
      <point x="416" y="434"/>
      <point x="404" y="378" type="curve"/>
      <point x="356" y="152" type="line" smooth="yes"/>
      <point x="319" y="-25"/>
      <point x="392" y="-103"/>
      <point x="448" y="-134" type="curve"/>
      <point x="380" y="-234" type="line"/>
      <point x="371" y="-229"/>
      <point x="174" y="-168"/>
      <point x="242" y="152" type="curve"/>
      <point x="290" y="378" type="line" smooth="yes"/>
      <point x="302" y="434"/>
      <point x="306" y="487"/>
      <point x="302" y="538" type="curve"/>
      <point x="298" y="589"/>
      <point x="270" y="639"/>
      <point x="218" y="688" type="curve"/>
      <point x="200" y="704" type="line"/>
      <point x="225" y="720" type="line" smooth="yes"/>
      <point x="298" y="768"/>
      <point x="347" y="818"/>
      <point x="373" y="869" type="curve"/>
      <point x="398" y="920"/>
      <point x="417" y="974"/>
      <point x="429" y="1030" type="curve"/>
      <point x="477" y="1256" type="line" smooth="yes"/>
      <point x="545" y="1578"/>
      <point x="772" y="1634"/>
      <point x="779" y="1640" type="curve"/>
      <point x="802" y="1544" type="line"/>
      <point x="737" y="1512"/>
      <point x="629" y="1436"/>
    </contour>
  </outline>
</glyph>
<glyph name="bar" format="1">
  <advance width="280"/>
  <unicode hex="007C"/>
  <outline>
    <contour>
      <point x="146" y="-226" type="line"/>
      <point x="36" y="-226" type="line"/>
      <point x="430" y="1630" type="line"/>
      <point x="540" y="1630" type="line"/>
    </contour>
  </outline>
</glyph>
<glyph name="braceright" format="1">
  <advance width="524"/>
  <unicode hex="007D"/>
  <outline>
    <contour>
      <point x="370" y="1544" type="curve"/>
      <point x="435" y="1640" type="line"/>
      <point x="442" y="1636"/>
      <point x="639" y="1577"/>
      <point x="571" y="1256" type="curve"/>
      <point x="523" y="1030" type="line" smooth="yes"/>
      <point x="499" y="917"/>
      <point x="489" y="817"/>
      <point x="597" y="720" type="curve"/>
      <point x="616" y="704" type="line"/>
      <point x="590" y="688" type="line" smooth="yes"/>
      <point x="440" y="591"/>
      <point x="408" y="489"/>
      <point x="384" y="378" type="curve"/>
      <point x="336" y="152" type="line" smooth="yes"/>
      <point x="268" y="-168"/>
      <point x="46" y="-229"/>
      <point x="34" y="-234" type="curve"/>
      <point x="12" y="-134" type="line"/>
      <point x="76" y="-102"/>
      <point x="187" y="-26"/>
      <point x="224" y="152" type="curve"/>
      <point x="272" y="378" type="line" smooth="yes"/>
      <point x="296" y="490"/>
      <point x="331" y="600"/>
      <point x="474" y="704" type="curve"/>
      <point x="376" y="808"/>
      <point x="387" y="918"/>
      <point x="411" y="1030" type="curve"/>
      <point x="459" y="1256" type="line" smooth="yes"/>
      <point x="497" y="1436"/>
      <point x="422" y="1512"/>
    </contour>
  </outline>
</glyph>
<glyph name="asciitilde" format="1">
  <advance width="532"/>
  <unicode hex="007E"/>
  <outline>
    <contour>
      <point x="673" y="692" type="curve"/>
      <point x="706" y="610" type="line"/>
      <point x="630" y="543"/>
      <point x="569" y="521"/>
      <point x="519" y="524" type="curve"/>
      <point x="426" y="524"/>
      <point x="356" y="592"/>
      <point x="265" y="596" type="curve"/>
      <point x="223" y="599"/>
      <point x="177" y="587"/>
      <point x="119" y="542" type="curve"/>
      <point x="91" y="624" type="line"/>
      <point x="162" y="685"/>
      <point x="221" y="706"/>
      <point x="272" y="706" type="curve"/>
      <point x="373" y="706"/>
      <point x="446" y="634"/>
      <point x="539" y="634" type="curve"/>
      <point x="590" y="637"/>
      <point x="634" y="657"/>
    </contour>
  </outline>
</glyph>
<glyph name="exclamdown" format="1">
  <advance width="294"/>
  <unicode hex="00A1"/>
  <outline>
    <contour>
      <point x="444" y="1176" type="line"/>
      <point x="227" y="72" type="line"/>
      <point x="217" y="24"/>
      <point x="190" y="0"/>
      <point x="146" y="0" type="curve"/>
      <point x="103" y="0"/>
      <point x="85" y="23"/>
      <point x="96" y="74" type="curve"/>
      <point x="350" y="1176" type="line"/>
    </contour>
    <contour>
      <point x="499" y="1348" type="curve"/>
      <point x="491" y="1313"/>
      <point x="456" y="1282"/>
      <point x="418" y="1282" type="curve"/>
      <point x="381" y="1282"/>
      <point x="357" y="1313"/>
      <point x="365" y="1348" type="curve"/>
      <point x="372" y="1385"/>
      <point x="409" y="1414"/>
      <point x="447" y="1414" type="curve"/>
      <point x="484" y="1414"/>
      <point x="506" y="1385"/>
    </contour>
  </outline>
</glyph>
<glyph name="cent" format="1">
  <advance width="760"/>
  <unicode hex="00A2"/>
  <outline>
    <contour>
      <point x="440" y="-226" type="line"/>
      <point x="328" y="-226" type="line"/>
      <point x="640" y="1242" type="line"/>
      <point x="752" y="1242" type="line"/>
    </contour>
    <component base="c"/>
  </outline>
</glyph>
<glyph name="sterling" format="1">
  <advance width="854"/>
  <unicode hex="00A3"/>
  <outline>
    <contour>
      <point x="91" y="106" type="line"/>
      <point x="249" y="106" type="line"/>
      <point x="432" y="106"/>
      <point x="636" y="216"/>
      <point x="660" y="414" type="curve"/>
      <point x="666" y="470"/>
      <point x="654" y="528"/>
      <point x="618" y="582" type="curve"/>
      <point x="554" y="678" type="line"/>
      <point x="212" y="678" type="line"/>
      <point x="236" y="792" type="line"/>
      <point x="476" y="792" type="line"/>
      <point x="446" y="838" type="line" smooth="yes"/>
      <point x="396" y="916"/>
      <point x="360" y="998"/>
      <point x="362" y="1086" type="curve"/>
      <point x="368" y="1288"/>
      <point x="546" y="1412"/>
      <point x="734" y="1412" type="curve"/>
      <point x="830" y="1414"/>
      <point x="926" y="1386"/>
      <point x="1004" y="1338" type="curve"/>
      <point x="946" y="1240" type="line"/>
      <point x="874" y="1291"/>
      <point x="787" y="1317"/>
      <point x="702" y="1308" type="curve"/>
      <point x="582" y="1296"/>
      <point x="478" y="1208"/>
      <point x="478" y="1082" type="curve"/>
      <point x="478" y="1012"/>
      <point x="514" y="952"/>
      <point x="545" y="906" type="curve"/>
      <point x="620" y="792" type="line"/>
      <point x="952" y="792" type="line"/>
      <point x="928" y="678" type="line"/>
      <point x="698" y="678" type="line"/>
      <point x="716" y="648" type="line" smooth="yes"/>
      <point x="762" y="576"/>
      <point x="780" y="494"/>
      <point x="770" y="412" type="curve"/>
      <point x="754" y="294"/>
      <point x="668" y="164"/>
      <point x="563" y="106" type="curve"/>
      <point x="807" y="106" type="line"/>
      <point x="784" y="0" type="line"/>
      <point x="68" y="0" type="line"/>
    </contour>
  </outline>
</glyph>
<glyph name="currency" format="1">
  <advance width="930"/>
  <unicode hex="00A4"/>
  <outline>
    <contour>
      <point x="1054" y="896" type="line"/>
      <point x="855" y="730" type="line"/>
      <point x="878" y="685"/>
      <point x="885" y="627"/>
      <point x="872" y="566" type="curve"/>
      <point x="859" y="502"/>
      <point x="826" y="443"/>
      <point x="785" y="398" type="curve"/>
      <point x="914" y="234" type="line"/>
      <point x="828" y="162" type="line"/>
      <point x="698" y="328" type="line"/>
      <point x="642" y="293"/>
      <point x="584" y="274"/>
      <point x="522" y="274" type="curve"/>
      <point x="458" y="274"/>
      <point x="404" y="293"/>
      <point x="366" y="328" type="curve"/>
      <point x="166" y="162" type="line"/>
      <point x="112" y="234" type="line"/>
      <point x="311" y="398" type="line"/>
      <point x="288" y="443"/>
      <point x="281" y="502"/>
      <point x="294" y="566" type="curve"/>
      <point x="307" y="627"/>
      <point x="335" y="685"/>
      <point x="379" y="730" type="curve"/>
      <point x="252" y="896" type="line"/>
      <point x="337" y="966" type="line"/>
      <point x="464" y="800" type="line"/>
      <point x="521" y="837"/>
      <point x="582" y="856"/>
      <point x="646" y="856" type="curve"/>
      <point x="707" y="856"/>
      <point x="761" y="837"/>
      <point x="798" y="800" type="curve"/>
      <point x="999" y="966" type="line"/>
    </contour>
    <contour>
      <point x="544" y="376" type="curve"/>
      <point x="647" y="376"/>
      <point x="748" y="460"/>
      <point x="770" y="566" type="curve"/>
      <point x="792" y="669"/>
      <point x="727" y="752"/>
      <point x="624" y="752" type="curve"/>
      <point x="518" y="752"/>
      <point x="416" y="669"/>
      <point x="394" y="566" type="curve"/>
      <point x="372" y="460"/>
      <point x="438" y="376"/>
    </contour>
  </outline>
</glyph>
<glyph name="yen" format="1">
  <advance width="1028"/>
  <unicode hex="00A5"/>
  <outline>
    <contour>
      <point x="542" y="396" type="line"/>
      <point x="278" y="396" type="line"/>
      <point x="302" y="506" type="line"/>
      <point x="566" y="506" type="line"/>
      <point x="602" y="678" type="line"/>
      <point x="339" y="1396" type="line"/>
      <point x="467" y="1396" type="line"/>
      <point x="684" y="810" type="line"/>
      <point x="1157" y="1396" type="line"/>
      <point x="1281" y="1396" type="line"/>
      <point x="715" y="682" type="line"/>
      <point x="678" y="506" type="line"/>
      <point x="940" y="506" type="line"/>
      <point x="916" y="396" type="line"/>
      <point x="654" y="396" type="line"/>
      <point x="633" y="296" type="line"/>
      <point x="895" y="296" type="line"/>
      <point x="872" y="188" type="line"/>
      <point x="610" y="188" type="line"/>
      <point x="570" y="0" type="line"/>
      <point x="458" y="0" type="line"/>
      <point x="498" y="188" type="line"/>
      <point x="234" y="188" type="line"/>
      <point x="257" y="296" type="line"/>
      <point x="521" y="296" type="line"/>
    </contour>
  </outline>
</glyph>
<glyph name="dieresis" format="1">
  <advance width="532"/>
  <unicode hex="00A8"/>
  <outline>
    <contour>
      <point x="423" y="1480" type="curve"/>
      <point x="460" y="1480"/>
      <point x="484" y="1449"/>
      <point x="476" y="1412" type="curve"/>
      <point x="468" y="1375"/>
      <point x="431" y="1346"/>
      <point x="394" y="1346" type="curve"/>
      <point x="359" y="1346"/>
      <point x="334" y="1375"/>
      <point x="342" y="1412" type="curve"/>
      <point x="350" y="1449"/>
      <point x="388" y="1480"/>
    </contour>
    <contour>
      <point x="735" y="1480" type="curve"/>
      <point x="772" y="1480"/>
      <point x="796" y="1449"/>
      <point x="788" y="1412" type="curve"/>
      <point x="780" y="1374"/>
      <point x="743" y="1346"/>
      <point x="706" y="1346" type="curve"/>
      <point x="671" y="1346"/>
      <point x="646" y="1374"/>
      <point x="654" y="1412" type="curve"/>
      <point x="662" y="1449"/>
      <point x="700" y="1480"/>
    </contour>
  </outline>
</glyph>
<glyph name="copyright" format="1">
  <advance width="1388"/>
  <unicode hex="00A9"/>
  <outline>
    <contour>
      <point x="1463" y="652" type="curve"/>
      <point x="1403" y="374" type="line"/>
      <point x="1331" y="32"/>
      <point x="1032" y="-138"/>
      <point x="663" y="-138" type="curve"/>
      <point x="298" y="-138"/>
      <point x="69" y="31"/>
      <point x="141" y="374" type="curve"/>
      <point x="201" y="652" type="line" smooth="yes"/>
      <point x="272" y="989"/>
      <point x="574" y="1164"/>
      <point x="939" y="1164" type="curve"/>
      <point x="1308" y="1164"/>
      <point x="1534" y="990"/>
    </contour>
    <contour>
      <point x="1296" y="422" type="curve"/>
      <point x="1334" y="602" type="line"/>
      <point x="1404" y="930"/>
      <point x="1265" y="1056"/>
      <point x="916" y="1056" type="curve"/>
      <point x="566" y="1056"/>
      <point x="378" y="930"/>
      <point x="308" y="602" type="curve"/>
      <point x="270" y="422" type="line" smooth="yes"/>
      <point x="201" y="97"/>
      <point x="337" y="-30"/>
      <point x="686" y="-30" type="curve"/>
      <point x="1036" y="-30"/>
      <point x="1227" y="97"/>
    </contour>
    <contour>
      <point x="1181" y="840" type="curve"/>
      <point x="1133" y="766" type="line"/>
      <point x="1067" y="794"/>
      <point x="993" y="808"/>
      <point x="926" y="808" type="curve"/>
      <point x="838" y="808"/>
      <point x="766" y="789"/>
      <point x="708" y="752" type="curve"/>
      <point x="631" y="704"/>
      <point x="578" y="620"/>
      <point x="554" y="508" type="curve"/>
      <point x="532" y="404"/>
      <point x="537" y="317"/>
      <point x="593" y="266" type="curve"/>
      <point x="631" y="234"/>
      <point x="693" y="216"/>
      <point x="784" y="216" type="curve"/>
      <point x="863" y="216"/>
      <point x="965" y="236"/>
      <point x="1086" y="274" type="curve"/>
      <point x="1090" y="180" type="line"/>
      <point x="969" y="137"/>
      <point x="857" y="116"/>
      <point x="753" y="116" type="curve"/>
      <point x="710" y="116"/>
      <point x="615" y="112"/>
      <point x="529" y="164" type="curve"/>
      <point x="442" y="216"/>
      <point x="402" y="330"/>
      <point x="438" y="498" type="curve"/>
      <point x="475" y="674"/>
      <point x="559" y="787"/>
      <point x="688" y="856" type="curve"/>
      <point x="755" y="893"/>
      <point x="831" y="906"/>
      <point x="911" y="906" type="curve"/>
      <point x="1012" y="906"/>
      <point x="1108" y="885"/>
    </contour>
  </outline>
</glyph>
<glyph name="ordfeminine" format="1">
  <advance width="656"/>
  <unicode hex="00AA"/>
  <outline>
    <contour>
      <point x="749" y="778" type="curve"/>
      <point x="659" y="767"/>
      <point x="575" y="756"/>
      <point x="503" y="756" type="curve"/>
      <point x="330" y="761"/>
      <point x="220" y="821"/>
      <point x="266" y="1034" type="curve"/>
      <point x="294" y="1165"/>
      <point x="388" y="1262"/>
      <point x="523" y="1258" type="curve"/>
      <point x="584" y="1255"/>
      <point x="654" y="1233"/>
      <point x="731" y="1182" type="curve"/>
      <point x="741" y="1227"/>
      <point x="732" y="1270"/>
      <point x="694" y="1298" type="curve"/>
      <point x="663" y="1320"/>
      <point x="603" y="1328"/>
      <point x="528" y="1328" type="curve"/>
      <point x="555" y="1414" type="line"/>
      <point x="664" y="1414"/>
      <point x="742" y="1397"/>
      <point x="785" y="1352" type="curve"/>
      <point x="832" y="1307"/>
      <point x="845" y="1229"/>
      <point x="819" y="1106" type="curve"/>
      <point x="796" y="998"/>
      <point x="773" y="887"/>
    </contour>
    <contour>
      <point x="658" y="856" type="curve"/>
      <point x="706" y="1082" type="line"/>
      <point x="636" y="1130"/>
      <point x="557" y="1164"/>
      <point x="493" y="1164" type="curve"/>
      <point x="429" y="1164"/>
      <point x="379" y="1126"/>
      <point x="358" y="1024" type="curve"/>
      <point x="341" y="944"/>
      <point x="362" y="893"/>
      <point x="420" y="864" type="curve"/>
      <point x="487" y="831"/>
      <point x="661" y="857"/>
    </contour>
  </outline>
</glyph>
<glyph name="registered" format="1">
  <advance width="1388"/>
  <unicode hex="00AE"/>
  <outline>
    <contour>
      <point x="1463" y="652" type="curve"/>
      <point x="1403" y="374" type="line"/>
      <point x="1331" y="32"/>
      <point x="1032" y="-134"/>
      <point x="663" y="-138" type="curve"/>
      <point x="298" y="-134"/>
      <point x="69" y="31"/>
      <point x="141" y="374" type="curve"/>
      <point x="201" y="652" type="line" smooth="yes"/>
      <point x="272" y="989"/>
      <point x="574" y="1164"/>
      <point x="939" y="1164" type="curve"/>
      <point x="1308" y="1164"/>
      <point x="1534" y="990"/>
    </contour>
    <contour>
      <point x="1292" y="422" type="curve"/>
      <point x="1330" y="602" type="line"/>
      <point x="1400" y="930"/>
      <point x="1265" y="1052"/>
      <point x="916" y="1056" type="curve"/>
      <point x="566" y="1052"/>
      <point x="378" y="930"/>
      <point x="308" y="602" type="curve"/>
      <point x="270" y="422" type="line" smooth="yes"/>
      <point x="201" y="97"/>
      <point x="337" y="-26"/>
      <point x="686" y="-30" type="curve"/>
      <point x="1036" y="-26"/>
      <point x="1223" y="97"/>
    </contour>
    <contour>
      <point x="548" y="884" type="line"/>
      <point x="956" y="884" type="line"/>
      <point x="1062" y="884"/>
      <point x="1206" y="861"/>
      <point x="1160" y="622" type="curve"/>
      <point x="1128" y="459"/>
      <point x="1041" y="394"/>
      <point x="959" y="370" type="curve"/>
      <point x="1031" y="118" type="line"/>
      <point x="903" y="118" type="line"/>
      <point x="839" y="352" type="line"/>
      <point x="541" y="352" type="line"/>
      <point x="491" y="118" type="line"/>
      <point x="385" y="118" type="line"/>
    </contour>
    <contour>
      <point x="565" y="464" type="line"/>
      <point x="873" y="464" type="line"/>
      <point x="974" y="464"/>
      <point x="1033" y="513"/>
      <point x="1056" y="620" type="curve"/>
      <point x="1079" y="729"/>
      <point x="1046" y="776"/>
      <point x="939" y="776" type="curve"/>
      <point x="631" y="776" type="line"/>
    </contour>
  </outline>
</glyph>
<glyph name="macron" format="1">
  <advance width="532"/>
  <unicode hex="00AF"/>
  <outline>
    <contour>
      <point x="332" y="1350" type="line"/>
      <point x="772" y="1350" type="line"/>
      <point x="748" y="1234" type="line"/>
      <point x="308" y="1234" type="line"/>
    </contour>
  </outline>
</glyph>
<glyph name="overscore" format="1">
  <advance width="532"/>
  <unicode hex="00AF"/>
  <outline>
    <contour>
      <point x="620" y="1350" type="line"/>
      <point x="1060" y="1350" type="line"/>
      <point x="1011" y="1234" type="line"/>
      <point x="571" y="1234" type="line"/>
    </contour>
  </outline>
</glyph>
<glyph name="degree" format="1">
  <advance width="532"/>
  <unicode hex="00B0"/>
  <outline>
    <contour>
      <point x="797" y="1126" type="curve"/>
      <point x="763" y="966"/>
      <point x="606" y="836"/>
      <point x="446" y="836" type="curve"/>
      <point x="284" y="836"/>
      <point x="181" y="966"/>
      <point x="215" y="1126" type="curve"/>
      <point x="249" y="1286"/>
      <point x="408" y="1416"/>
      <point x="569" y="1416" type="curve"/>
      <point x="729" y="1416"/>
      <point x="831" y="1286"/>
    </contour>
    <contour>
      <point x="548" y="1316" type="curve"/>
      <point x="445" y="1316"/>
      <point x="339" y="1229"/>
      <point x="317" y="1126" type="curve"/>
      <point x="296" y="1026"/>
      <point x="364" y="938"/>
      <point x="467" y="938" type="curve"/>
      <point x="569" y="938"/>
      <point x="674" y="1026"/>
      <point x="695" y="1126" type="curve"/>
      <point x="717" y="1229"/>
      <point x="650" y="1316"/>
    </contour>
  </outline>
</glyph>
<glyph name="plusminus" format="1">
  <advance width="764"/>
  <unicode hex="00B1"/>
  <outline>
    <contour>
      <point x="488" y="754" type="line"/>
      <point x="222" y="754" type="line"/>
      <point x="245" y="862" type="line"/>
      <point x="511" y="862" type="line"/>
      <point x="567" y="1126" type="line"/>
      <point x="677" y="1126" type="line"/>
      <point x="621" y="862" type="line"/>
      <point x="883" y="862" type="line"/>
      <point x="860" y="754" type="line"/>
      <point x="598" y="754" type="line"/>
      <point x="543" y="492" type="line"/>
      <point x="803" y="492" type="line"/>
      <point x="778" y="378" type="line"/>
      <point x="140" y="378" type="line"/>
      <point x="165" y="492" type="line"/>
      <point x="433" y="492" type="line"/>
    </contour>
  </outline>
</glyph>
<glyph name="acute" format="1">
  <advance width="532"/>
  <unicode hex="00B4"/>
  <outline>
    <contour>
      <point x="682" y="1364" type="curve"/>
      <point x="542" y="1206" type="line"/>
      <point x="472" y="1206" type="line"/>
      <point x="594" y="1420" type="line" smooth="yes"/>
      <point x="615" y="1457"/>
      <point x="657" y="1478"/>
      <point x="688" y="1458" type="curve"/>
      <point x="720" y="1438"/>
      <point x="711" y="1397"/>
    </contour>
  </outline>
</glyph>
<glyph name="mu" format="1">
  <advance width="928"/>
  <unicode hex="00B5"/>
  <outline>
    <contour>
      <point x="1032" y="1016" type="line"/>
      <point x="856" y="188" type="line"/>
      <point x="837" y="104"/>
      <point x="884" y="51"/>
      <point x="881" y="52" type="curve"/>
      <point x="813" y="-12" type="line"/>
      <point x="815" y="-10"/>
      <point x="766" y="6"/>
      <point x="740" y="80" type="curve"/>
      <point x="676" y="10"/>
      <point x="586" y="-24"/>
      <point x="487" y="-24" type="curve"/>
      <point x="269" y="-24"/>
      <point x="214" y="111"/>
      <point x="214" y="106" type="curve"/>
      <point x="103" y="-418" type="line"/>
      <point x="-3" y="-371" type="line"/>
      <point x="290" y="998" type="line"/>
      <point x="404" y="998" type="line"/>
      <point x="260" y="316" type="line" smooth="yes"/>
      <point x="231" y="177"/>
      <point x="345" y="66"/>
      <point x="518" y="86" type="curve"/>
      <point x="657" y="102"/>
      <point x="750" y="197"/>
      <point x="780" y="346" type="curve"/>
      <point x="913" y="992" type="line"/>
    </contour>
  </outline>
</glyph>
<glyph name="paragraph" format="1">
  <advance width="1240"/>
  <unicode hex="00B6"/>
  <outline>
    <contour>
      <point x="919" y="492" type="line"/>
      <point x="559" y="492" type="line"/>
      <point x="297" y="492"/>
      <point x="191" y="617"/>
      <point x="262" y="948" type="curve"/>
      <point x="334" y="1290"/>
      <point x="497" y="1400"/>
      <point x="752" y="1400" type="curve"/>
      <point x="1452" y="1400" type="line"/>
      <point x="1154" y="2" type="line"/>
      <point x="1042" y="2" type="line"/>
      <point x="1318" y="1294" type="line"/>
      <point x="1200" y="1294" type="line"/>
      <point x="924" y="2" type="line"/>
      <point x="814" y="2" type="line"/>
    </contour>
    <contour>
      <point x="1089" y="1294" type="line"/>
      <point x="721" y="1294" type="line"/>
      <point x="565" y="1294"/>
      <point x="434" y="1231"/>
      <point x="374" y="948" type="curve"/>
      <point x="306" y="640"/>
      <point x="425" y="605"/>
      <point x="574" y="600" type="curve"/>
      <point x="942" y="600" type="line"/>
    </contour>
  </outline>
</glyph>
<glyph name="cedilla" format="1">
  <advance width="532"/>
  <unicode hex="00B8"/>
  <outline>
    <contour>
      <point x="230" y="0" type="line"/>
      <point x="330" y="0" type="line"/>
      <point x="259" y="-88" type="line"/>
      <point x="276" y="-85"/>
      <point x="294" y="-85"/>
      <point x="312" y="-84" type="curve"/>
      <point x="448" y="-80"/>
      <point x="503" y="-172"/>
      <point x="483" y="-270" type="curve"/>
      <point x="455" y="-402"/>
      <point x="329" y="-466"/>
      <point x="211" y="-466" type="curve"/>
      <point x="120" y="-466"/>
      <point x="18" y="-442"/>
      <point x="14" y="-442" type="curve"/>
      <point x="43" y="-383"/>
      <point x="29" y="-405"/>
      <point x="58" y="-346" type="curve"/>
      <point x="113" y="-354"/>
      <point x="167" y="-368"/>
      <point x="220" y="-368" type="curve"/>
      <point x="299" y="-368"/>
      <point x="366" y="-336"/>
      <point x="383" y="-266" type="curve"/>
      <point x="400" y="-196"/>
      <point x="355" y="-182"/>
      <point x="285" y="-182" type="curve"/>
      <point x="242" y="-185"/>
      <point x="189" y="-191"/>
      <point x="134" y="-196" type="curve"/>
      <point x="121" y="-138" type="line"/>
    </contour>
  </outline>
</glyph>
<glyph name="guillemotright" format="1">
  <advance width="1004"/>
  <unicode hex="00BB"/>
  <outline>
    <contour>
      <point x="114" y="226" type="line"/>
      <point x="473" y="532" type="line"/>
      <point x="239" y="832" type="line"/>
      <point x="327" y="906" type="line"/>
      <point x="621" y="532" type="line"/>
      <point x="168" y="158" type="line"/>
    </contour>
    <contour>
      <point x="552" y="226" type="line"/>
      <point x="911" y="532" type="line"/>
      <point x="677" y="832" type="line"/>
      <point x="767" y="906" type="line"/>
      <point x="1059" y="532" type="line"/>
      <point x="608" y="158" type="line"/>
    </contour>
  </outline>
</glyph>
<glyph name="questiondown" format="1">
  <advance width="816"/>
  <unicode hex="00BF"/>
  <outline>
    <contour>
      <point x="712" y="322" type="curve"/>
      <point x="824" y="322" type="line"/>
      <point x="770" y="74"/>
      <point x="566" y="-34"/>
      <point x="392" y="-30" type="curve"/>
      <point x="244" y="-26"/>
      <point x="76" y="96"/>
      <point x="124" y="310" type="curve"/>
      <point x="158" y="458"/>
      <point x="252" y="550"/>
      <point x="360" y="652" type="curve"/>
      <point x="458" y="742"/>
      <point x="546" y="804"/>
      <point x="580" y="970" type="curve"/>
      <point x="618" y="1144" type="line"/>
      <point x="722" y="1144" type="line"/>
      <point x="682" y="960" type="line" smooth="yes"/>
      <point x="646" y="786"/>
      <point x="544" y="688"/>
      <point x="452" y="604" type="curve"/>
      <point x="358" y="520"/>
      <point x="264" y="450"/>
      <point x="234" y="314" type="curve"/>
      <point x="202" y="158"/>
      <point x="302" y="78"/>
      <point x="418" y="74" type="curve"/>
      <point x="540" y="70"/>
      <point x="676" y="152"/>
    </contour>
    <contour>
      <point x="722" y="1402" type="curve"/>
      <point x="759" y="1402"/>
      <point x="783" y="1371"/>
      <point x="776" y="1334" type="curve"/>
      <point x="768" y="1297"/>
      <point x="731" y="1268"/>
      <point x="694" y="1268" type="curve"/>
      <point x="659" y="1268"/>
      <point x="634" y="1297"/>
      <point x="642" y="1334" type="curve"/>
      <point x="649" y="1371"/>
      <point x="687" y="1402"/>
    </contour>
  </outline>
</glyph>
<glyph name="AE" format="1">
  <advance width="1500"/>
  <unicode hex="00C6"/>
  <outline>
    <contour>
      <point x="1432" y="0" type="line"/>
      <point x="766" y="0" type="line"/>
      <point x="869" y="486" type="line"/>
      <point x="449" y="486" type="line"/>
      <point x="158" y="0" type="line"/>
      <point x="40" y="0" type="line"/>
      <point x="879" y="1396" type="line"/>
      <point x="1735" y="1396" type="line"/>
      <point x="1712" y="1290" type="line"/>
      <point x="1154" y="1290" type="line"/>
      <point x="1056" y="826" type="line"/>
      <point x="1438" y="826" type="line"/>
      <point x="1375" y="710" type="line"/>
      <point x="1031" y="710" type="line"/>
      <point x="901" y="100" type="line"/>
      <point x="1453" y="100" type="line"/>
    </contour>
    <contour>
      <point x="932" y="1290" type="line"/>
      <point x="515" y="598" type="line"/>
      <point x="893" y="598" type="line"/>
      <point x="1040" y="1290" type="line"/>
    </contour>
  </outline>
</glyph>
<glyph name="Eth" format="1">
  <advance width="990"/>
  <unicode hex="00D0"/>
  <outline>
    <contour>
      <point x="689" y="712" type="line"/>
      <point x="285" y="712" type="line"/>
      <point x="309" y="822" type="line"/>
      <point x="749" y="822" type="line"/>
    </contour>
    <component base="D"/>
  </outline>
</glyph>
<glyph name="multiply" format="1">
  <advance width="692"/>
  <unicode hex="00D7"/>
  <outline>
    <contour>
      <point x="352" y="990" type="line"/>
      <point x="505" y="748" type="line"/>
      <point x="756" y="990" type="line"/>
      <point x="824" y="922" type="line"/>
      <point x="557" y="664" type="line"/>
      <point x="715" y="410" type="line"/>
      <point x="617" y="334" type="line"/>
      <point x="469" y="578" type="line"/>
      <point x="217" y="334" type="line"/>
      <point x="149" y="410" type="line"/>
      <point x="413" y="664" type="line"/>
      <point x="258" y="922" type="line"/>
    </contour>
  </outline>
</glyph>
<glyph name="Oslash" format="1">
  <advance width="980"/>
  <unicode hex="00D8"/>
  <outline>
    <contour>
      <point x="246" y="-226" type="line"/>
      <point x="124" y="-226" type="line"/>
      <point x="1166" y="1630" type="line"/>
      <point x="1278" y="1630" type="line"/>
    </contour>
    <component base="O"/>
  </outline>
</glyph>
<glyph name="Thorn" format="1">
  <advance width="860"/>
  <unicode hex="00DE"/>
  <outline>
    <contour>
      <point x="985" y="870" type="curve"/>
      <point x="923" y="578" type="line"/>
      <point x="880" y="384"/>
      <point x="774" y="281"/>
      <point x="626" y="236" type="curve"/>
      <point x="512" y="201"/>
      <point x="363" y="204"/>
      <point x="244" y="236" type="curve"/>
      <point x="194" y="0" type="line"/>
      <point x="82" y="0" type="line"/>
      <point x="379" y="1396" type="line"/>
      <point x="491" y="1396" type="line"/>
      <point x="449" y="1198" type="line"/>
      <point x="565" y="1243"/>
      <point x="693" y="1261"/>
      <point x="790" y="1240" type="curve"/>
      <point x="974" y="1198"/>
      <point x="1018" y="1034"/>
    </contour>
    <contour>
      <point x="748" y="1140" type="curve"/>
      <point x="674" y="1162"/>
      <point x="524" y="1137"/>
      <point x="427" y="1094" type="curve"/>
      <point x="266" y="338" type="line"/>
      <point x="307" y="333"/>
      <point x="497" y="289"/>
      <point x="623" y="336" type="curve"/>
      <point x="736" y="376"/>
      <point x="792" y="469"/>
      <point x="820" y="602" type="curve"/>
      <point x="871" y="840" type="line" smooth="yes"/>
      <point x="896" y="956"/>
      <point x="884" y="1100"/>
    </contour>
  </outline>
</glyph>
<glyph name="germandbls" format="1">
  <advance width="928"/>
  <unicode hex="00DF"/>
  <outline>
    <contour>
      <point x="419" y="1078" type="curve"/>
      <point x="190" y="0" type="line"/>
      <point x="153" y="0"/>
      <point x="115" y="0"/>
      <point x="78" y="0" type="curve"/>
      <point x="306" y="1072" type="line" smooth="yes"/>
      <point x="349" y="1277"/>
      <point x="470" y="1390"/>
      <point x="643" y="1396" type="curve"/>
      <point x="812" y="1402"/>
      <point x="872" y="1270"/>
      <point x="850" y="1140" type="curve"/>
      <point x="838" y="1066"/>
      <point x="801" y="995"/>
      <point x="738" y="950" type="curve"/>
      <point x="740" y="950"/>
      <point x="675" y="950"/>
      <point x="678" y="950" type="curve"/>
      <point x="657" y="926"/>
      <point x="647" y="902"/>
      <point x="645" y="878" type="curve"/>
      <point x="640" y="800"/>
      <point x="715" y="729"/>
      <point x="791" y="646" type="curve"/>
      <point x="880" y="550"/>
      <point x="969" y="435"/>
      <point x="936" y="282" type="curve"/>
      <point x="893" y="79"/>
      <point x="724" y="-14"/>
      <point x="559" y="-22" type="curve"/>
      <point x="451" y="-26"/>
      <point x="348" y="7"/>
      <point x="281" y="72" type="curve"/>
      <point x="346" y="154" type="line"/>
      <point x="422" y="92"/>
      <point x="486" y="86"/>
      <point x="564" y="86" type="curve"/>
      <point x="677" y="86"/>
      <point x="793" y="153"/>
      <point x="821" y="286" type="curve"/>
      <point x="847" y="407"/>
      <point x="763" y="499"/>
      <point x="679" y="588" type="curve"/>
      <point x="598" y="674"/>
      <point x="516" y="760"/>
      <point x="528" y="866" type="curve"/>
      <point x="535" y="911"/>
      <point x="553" y="961"/>
      <point x="593" y="1012" type="curve"/>
      <point x="684" y="1012"/>
      <point x="733" y="1081"/>
      <point x="742" y="1150" type="curve"/>
      <point x="754" y="1222"/>
      <point x="716" y="1290"/>
      <point x="630" y="1290" type="curve"/>
      <point x="520" y="1290"/>
      <point x="449" y="1219"/>
    </contour>
  </outline>
</glyph>
<glyph name="ae" format="1">
  <advance width="1494"/>
  <unicode hex="00E6"/>
  <outline>
    <contour>
      <point x="909" y="390" type="line"/>
      <point x="883" y="266" type="line"/>
      <point x="842" y="76"/>
      <point x="1000" y="72"/>
      <point x="1063" y="72" type="curve"/>
      <point x="1170" y="72"/>
      <point x="1261" y="103"/>
      <point x="1371" y="156" type="curve"/>
      <point x="1397" y="70" type="line"/>
      <point x="1285" y="9"/>
      <point x="1155" y="-21"/>
      <point x="1053" y="-24" type="curve"/>
      <point x="995" y="-24"/>
      <point x="891" y="-21"/>
      <point x="826" y="28" type="curve"/>
      <point x="820" y="0" type="line"/>
      <point x="794" y="-6"/>
      <point x="452" y="-20"/>
      <point x="408" y="-20" type="curve"/>
      <point x="204" y="-8"/>
      <point x="69" y="79"/>
      <point x="123" y="336" type="curve"/>
      <point x="159" y="502" type="line" smooth="yes"/>
      <point x="206" y="726"/>
      <point x="369" y="804"/>
      <point x="529" y="804" type="curve"/>
      <point x="660" y="804"/>
      <point x="774" y="751"/>
      <point x="856" y="698" type="curve"/>
      <point x="896" y="885"/>
      <point x="778" y="928"/>
      <point x="597" y="928" type="curve"/>
      <point x="606" y="957"/>
      <point x="611" y="987"/>
      <point x="620" y="1014" type="curve"/>
      <point x="745" y="1014"/>
      <point x="907" y="996"/>
      <point x="952" y="874" type="curve"/>
      <point x="1038" y="967"/>
      <point x="1154" y="1016"/>
      <point x="1298" y="1016" type="curve"/>
      <point x="1514" y="1016"/>
      <point x="1625" y="899"/>
      <point x="1579" y="682" type="curve"/>
      <point x="1524" y="422" type="line"/>
    </contour>
    <contour>
      <point x="728" y="92" type="curve"/>
      <point x="836" y="604" type="line"/>
      <point x="742" y="659"/>
      <point x="624" y="708"/>
      <point x="498" y="708" type="curve"/>
      <point x="428" y="708"/>
      <point x="306" y="678"/>
      <point x="268" y="498" type="curve"/>
      <point x="236" y="350" type="line" smooth="yes"/>
      <point x="196" y="160"/>
      <point x="243" y="65"/>
      <point x="512" y="76" type="curve"/>
      <point x="644" y="84"/>
      <point x="727" y="93"/>
    </contour>
    <contour>
      <point x="1431" y="522" type="line"/>
      <point x="1468" y="696" type="line"/>
      <point x="1507" y="878"/>
      <point x="1359" y="922"/>
      <point x="1274" y="922" type="curve"/>
      <point x="1100" y="922"/>
      <point x="1002" y="830"/>
      <point x="957" y="616" type="curve"/>
      <point x="932" y="500" type="line"/>
    </contour>
  </outline>
</glyph>
<glyph name="eth" format="1">
  <advance width="848"/>
  <unicode hex="00F0"/>
  <outline>
    <contour>
      <point x="649" y="1340" type="curve"/>
      <point x="675" y="1398" type="line"/>
      <point x="803" y="1381"/>
      <point x="895" y="1330"/>
      <point x="950" y="1245" type="curve"/>
      <point x="1004" y="1160"/>
      <point x="1019" y="1058"/>
      <point x="993" y="938" type="curve"/>
      <point x="873" y="374" type="line" smooth="yes"/>
      <point x="820" y="121"/>
      <point x="656" y="-18"/>
      <point x="418" y="-18" type="curve"/>
      <point x="181" y="-18"/>
      <point x="84" y="131"/>
      <point x="135" y="374" type="curve"/>
      <point x="160" y="490" type="line" smooth="yes"/>
      <point x="212" y="735"/>
      <point x="359" y="866"/>
      <point x="578" y="866" type="curve"/>
      <point x="702" y="866"/>
      <point x="806" y="803"/>
      <point x="833" y="718" type="curve"/>
      <point x="884" y="958" type="line" smooth="yes"/>
      <point x="946" y="1249"/>
      <point x="712" y="1325"/>
    </contour>
    <contour>
      <point x="276" y="506" type="curve"/>
      <point x="247" y="374" type="line" smooth="yes"/>
      <point x="206" y="179"/>
      <point x="266" y="86"/>
      <point x="434" y="86" type="curve"/>
      <point x="610" y="86"/>
      <point x="718" y="179"/>
      <point x="759" y="374" type="curve"/>
      <point x="785" y="496" type="line" smooth="yes"/>
      <point x="822" y="666"/>
      <point x="718" y="760"/>
      <point x="566" y="760" type="curve"/>
      <point x="414" y="760"/>
      <point x="311" y="674"/>
    </contour>
    <contour>
      <point x="996" y="1402" type="line"/>
      <point x="1040" y="1346" type="line"/>
      <point x="606" y="988" type="line"/>
      <point x="562" y="1044" type="line"/>
    </contour>
  </outline>
</glyph>
<glyph name="divide" format="1">
  <advance width="756"/>
  <unicode hex="00F7"/>
  <outline>
    <contour>
      <point x="845" y="710" type="line"/>
      <point x="207" y="710" type="line"/>
      <point x="230" y="818" type="line"/>
      <point x="868" y="818" type="line"/>
    </contour>
    <contour>
      <point x="607" y="1088" type="curve"/>
      <point x="645" y="1088"/>
      <point x="669" y="1057"/>
      <point x="661" y="1020" type="curve"/>
      <point x="653" y="985"/>
      <point x="616" y="954"/>
      <point x="579" y="954" type="curve"/>
      <point x="541" y="954"/>
      <point x="519" y="985"/>
      <point x="527" y="1020" type="curve"/>
      <point x="535" y="1057"/>
      <point x="570" y="1088"/>
    </contour>
    <contour>
      <point x="498" y="574" type="curve"/>
      <point x="535" y="573"/>
      <point x="560" y="545"/>
      <point x="552" y="508" type="curve"/>
      <point x="544" y="471"/>
      <point x="507" y="443"/>
      <point x="470" y="442" type="curve"/>
      <point x="424" y="440"/>
      <point x="411" y="477"/>
      <point x="421" y="513" type="curve"/>
      <point x="430" y="546"/>
      <point x="458" y="575"/>
    </contour>
  </outline>
</glyph>
<glyph name="oslash" format="1">
  <advance width="858"/>
  <unicode hex="00F8"/>
  <outline>
    <contour>
      <point x="821" y="1025" type="line"/>
      <point x="937" y="1025" type="line"/>
      <point x="248" y="-40" type="line"/>
      <point x="136" y="-40" type="line"/>
    </contour>
    <component base="o"/>
  </outline>
</glyph>
<glyph name="thorn" format="1">
  <advance width="888"/>
  <unicode hex="00FE"/>
  <outline>
    <contour>
      <point x="491" y="1396" type="line"/>
      <point x="387" y="906" type="line"/>
      <point x="480" y="981"/>
      <point x="573" y="1014"/>
      <point x="688" y="1014" type="curve"/>
      <point x="908" y="1014"/>
      <point x="1015" y="843"/>
      <point x="968" y="620" type="curve"/>
      <point x="917" y="380"/>
      <point x="735" y="232"/>
      <point x="513" y="232" type="curve"/>
      <point x="417" y="232"/>
      <point x="308" y="285"/>
      <point x="273" y="370" type="curve"/>
      <point x="194" y="0" type="line"/>
      <point x="82" y="0" type="line"/>
      <point x="379" y="1396" type="line"/>
    </contour>
    <contour>
      <point x="656" y="914" type="curve"/>
      <point x="514" y="914"/>
      <point x="378" y="830"/>
      <point x="333" y="646" type="curve"/>
      <point x="284" y="442"/>
      <point x="377" y="332"/>
      <point x="532" y="332" type="curve"/>
      <point x="691" y="332"/>
      <point x="816" y="434"/>
      <point x="858" y="632" type="curve"/>
      <point x="901" y="832"/>
      <point x="803" y="914"/>
    </contour>
  </outline>
</glyph>
<glyph name="dcroat" format="1">
  <advance width="912"/>
  <unicode hex="0111"/>
  <outline>
    <contour>
      <point x="1181" y="1230" type="line"/>
      <point x="1159" y="1124" type="line"/>
      <point x="687" y="1124" type="line"/>
      <point x="709" y="1230" type="line"/>
    </contour>
    <component base="d"/>
  </outline>
</glyph>
<glyph name="Hbar" format="1">
  <advance width="1026"/>
  <unicode hex="0126"/>
  <outline>
    <contour>
      <point x="1255" y="1104" type="line"/>
      <point x="1232" y="996" type="line"/>
      <point x="206" y="996" type="line"/>
      <point x="229" y="1104" type="line"/>
    </contour>
    <component base="Eta"/>
  </outline>
</glyph>
<glyph name="hbar" format="1">
  <advance width="942"/>
  <unicode hex="0127"/>
  <outline>
    <contour>
      <point x="783" y="1230" type="line"/>
      <point x="761" y="1124" type="line"/>
      <point x="291" y="1124" type="line"/>
      <point x="313" y="1230" type="line"/>
    </contour>
    <contour>
      <point x="551" y="1396" type="line"/>
      <point x="452" y="930" type="line"/>
      <point x="540" y="983"/>
      <point x="649" y="1016"/>
      <point x="748" y="1016" type="curve"/>
      <point x="969" y="1016"/>
      <point x="1071" y="900"/>
      <point x="1027" y="690" type="curve"/>
      <point x="880" y="0" type="line"/>
      <point x="768" y="0" type="line"/>
      <point x="913" y="684" type="line" smooth="yes"/>
      <point x="952" y="866"/>
      <point x="832" y="916"/>
      <point x="705" y="916" type="curve"/>
      <point x="614" y="916"/>
      <point x="527" y="893"/>
      <point x="434" y="848" type="curve"/>
      <point x="254" y="0" type="line"/>
      <point x="142" y="0" type="line"/>
      <point x="439" y="1396" type="line"/>
    </contour>
  </outline>
</glyph>
<glyph name="dotlessi" format="1">
  <advance width="268"/>
  <unicode hex="0131"/>
  <outline>
    <contour>
      <point x="188" y="0" type="line"/>
      <point x="76" y="0" type="line"/>
      <point x="288" y="998" type="line"/>
      <point x="400" y="998" type="line"/>
    </contour>
  </outline>
</glyph>
<glyph name="IJ" format="1">
  <advance width="1098"/>
  <unicode hex="0132"/>
  <outline>
    <contour>
      <point x="1061" y="1396" type="line"/>
      <point x="1307" y="1396" type="line"/>
      <point x="1089" y="370" type="line" smooth="yes"/>
      <point x="1036" y="120"/>
      <point x="840" y="-22"/>
      <point x="589" y="-22" type="curve"/>
      <point x="354" y="-22"/>
      <point x="198" y="114"/>
      <point x="253" y="370" type="curve"/>
      <point x="268" y="444" type="line"/>
      <point x="378" y="444" type="line"/>
      <point x="363" y="372" type="line" smooth="yes"/>
      <point x="323" y="183"/>
      <point x="420" y="80"/>
      <point x="604" y="80" type="curve"/>
      <point x="792" y="80"/>
      <point x="939" y="184"/>
      <point x="979" y="372" type="curve"/>
      <point x="1175" y="1294" type="line"/>
      <point x="1040" y="1298" type="line"/>
    </contour>
    <contour>
      <point x="335" y="1396" type="line"/>
      <point x="581" y="1396" type="line"/>
      <point x="400" y="548" type="line"/>
      <point x="290" y="548" type="line"/>
      <point x="449" y="1294" type="line"/>
      <point x="314" y="1298" type="line"/>
    </contour>
  </outline>
</glyph>
<glyph name="ij" format="1">
  <advance width="930"/>
  <unicode hex="0133"/>
  <outline>
    <contour>
      <point x="451" y="1416" type="curve"/>
      <point x="486" y="1416"/>
      <point x="510" y="1385"/>
      <point x="503" y="1348" type="curve"/>
      <point x="495" y="1313"/>
      <point x="457" y="1282"/>
      <point x="422" y="1282" type="curve"/>
      <point x="385" y="1282"/>
      <point x="361" y="1313"/>
      <point x="369" y="1348" type="curve"/>
      <point x="376" y="1385"/>
      <point x="414" y="1416"/>
    </contour>
    <contour>
      <point x="1123" y="1348" type="curve"/>
      <point x="1115" y="1313"/>
      <point x="1078" y="1282"/>
      <point x="1040" y="1282" type="curve"/>
      <point x="1006" y="1282"/>
      <point x="981" y="1313"/>
      <point x="989" y="1348" type="curve"/>
      <point x="996" y="1385"/>
      <point x="1034" y="1414"/>
      <point x="1069" y="1414" type="curve"/>
      <point x="1106" y="1414"/>
      <point x="1130" y="1385"/>
    </contour>
    <contour>
      <point x="792" y="346" type="curve"/>
      <point x="931" y="1000" type="line"/>
      <point x="1043" y="1000" type="line"/>
      <point x="804" y="-124" type="line" smooth="yes"/>
      <point x="768" y="-292"/>
      <point x="692" y="-366"/>
      <point x="532" y="-416" type="curve"/>
      <point x="518" y="-330" type="line"/>
      <point x="614" y="-294"/>
      <point x="670" y="-222"/>
      <point x="692" y="-122" type="curve"/>
      <point x="739" y="100" type="line"/>
      <point x="656" y="20"/>
      <point x="538" y="-18"/>
      <point x="436" y="-18" type="curve"/>
      <point x="216" y="-18"/>
      <point x="111" y="88"/>
      <point x="159" y="314" type="curve"/>
      <point x="304" y="998" type="line"/>
      <point x="416" y="998" type="line"/>
      <point x="272" y="322" type="line" smooth="yes"/>
      <point x="233" y="137"/>
      <point x="359" y="88"/>
      <point x="483" y="88" type="curve"/>
      <point x="625" y="88"/>
      <point x="762" y="206"/>
    </contour>
  </outline>
</glyph>
<glyph name="Lslash" format="1">
  <advance width="1018"/>
  <unicode hex="0141"/>
  <outline>
    <contour>
      <point x="974" y="0" type="line"/>
      <point x="252" y="0" type="line"/>
      <point x="399" y="692" type="line"/>
      <point x="211" y="616" type="line"/>
      <point x="188" y="716" type="line"/>
      <point x="425" y="812" type="line"/>
      <point x="549" y="1396" type="line"/>
      <point x="661" y="1396" type="line"/>
      <point x="547" y="862" type="line"/>
      <point x="825" y="976" type="line"/>
      <point x="851" y="878" type="line"/>
      <point x="522" y="744" type="line"/>
      <point x="385" y="100" type="line"/>
      <point x="995" y="100" type="line"/>
    </contour>
  </outline>
</glyph>
<glyph name="lslash" format="1">
  <advance width="706"/>
  <unicode hex="0142"/>
  <outline>
    <contour>
      <point x="185" y="712" type="line"/>
      <point x="466" y="828" type="line"/>
      <point x="587" y="1396" type="line"/>
      <point x="699" y="1396" type="line"/>
      <point x="589" y="878" type="line"/>
      <point x="821" y="974" type="line"/>
      <point x="846" y="876" type="line"/>
      <point x="564" y="760" type="line"/>
      <point x="402" y="0" type="line"/>
      <point x="290" y="0" type="line"/>
      <point x="440" y="708" type="line"/>
      <point x="209" y="614" type="line"/>
    </contour>
  </outline>
</glyph>
<glyph name="Eng" format="1">
  <advance width="1152"/>
  <unicode hex="014A"/>
  <outline>
    <contour>
      <point x="1363" y="1396" type="line"/>
      <point x="1040" y="-124" type="line"/>
      <point x="1020" y="-215"/>
      <point x="988" y="-279"/>
      <point x="932" y="-330" type="curve"/>
      <point x="889" y="-367"/>
      <point x="837" y="-395"/>
      <point x="766" y="-416" type="curve"/>
      <point x="754" y="-330" type="line"/>
      <point x="797" y="-314"/>
      <point x="833" y="-289"/>
      <point x="861" y="-260" type="curve"/>
      <point x="895" y="-223"/>
      <point x="916" y="-177"/>
      <point x="928" y="-124" type="curve"/>
      <point x="954" y="2" type="line"/>
      <point x="447" y="1190" type="line"/>
      <point x="194" y="0" type="line"/>
      <point x="82" y="0" type="line"/>
      <point x="379" y="1396" type="line"/>
      <point x="493" y="1396" type="line"/>
      <point x="998" y="206" type="line"/>
      <point x="1251" y="1396" type="line"/>
    </contour>
  </outline>
</glyph>
<glyph name="eng" format="1">
  <advance width="884"/>
  <unicode hex="014B"/>
  <outline>
    <contour>
      <point x="959" y="690" type="curve"/>
      <point x="793" y="-90" type="line"/>
      <point x="774" y="-181"/>
      <point x="741" y="-246"/>
      <point x="686" y="-294" type="curve"/>
      <point x="643" y="-331"/>
      <point x="592" y="-359"/>
      <point x="521" y="-380" type="curve"/>
      <point x="506" y="-294" type="line"/>
      <point x="548" y="-281"/>
      <point x="584" y="-258"/>
      <point x="612" y="-226" type="curve"/>
      <point x="646" y="-191"/>
      <point x="669" y="-147"/>
      <point x="681" y="-88" type="curve"/>
      <point x="845" y="684" type="line" smooth="yes"/>
      <point x="884" y="866"/>
      <point x="764" y="916"/>
      <point x="637" y="916" type="curve"/>
      <point x="546" y="916"/>
      <point x="455" y="893"/>
      <point x="368" y="848" type="curve"/>
      <point x="188" y="0" type="line"/>
      <point x="76" y="0" type="line"/>
      <point x="288" y="996" type="line"/>
      <point x="400" y="996" type="line"/>
      <point x="386" y="930" type="line"/>
      <point x="474" y="983"/>
      <point x="581" y="1016"/>
      <point x="680" y="1016" type="curve"/>
      <point x="901" y="1016"/>
      <point x="1003" y="900"/>
    </contour>
  </outline>
</glyph>
<glyph name="OE" format="1">
  <advance width="1524"/>
  <unicode hex="0152"/>
  <outline>
    <contour>
      <point x="1458" y="0" type="line"/>
      <point x="794" y="0" type="line"/>
      <point x="812" y="86" type="line"/>
      <point x="724" y="16"/>
      <point x="608" y="-22"/>
      <point x="485" y="-22" type="curve"/>
      <point x="249" y="-22"/>
      <point x="92" y="112"/>
      <point x="147" y="370" type="curve"/>
      <point x="283" y="1012" type="line" smooth="yes"/>
      <point x="341" y="1284"/>
      <point x="532" y="1428"/>
      <point x="796" y="1428" type="curve"/>
      <point x="924" y="1428"/>
      <point x="1020" y="1389"/>
      <point x="1075" y="1320" type="curve"/>
      <point x="1091" y="1396" type="line"/>
      <point x="1759" y="1396" type="line"/>
      <point x="1737" y="1292" type="line"/>
      <point x="1183" y="1292" type="line"/>
      <point x="1083" y="822" type="line"/>
      <point x="1463" y="822" type="line"/>
      <point x="1401" y="712" type="line"/>
      <point x="1059" y="712" type="line"/>
      <point x="929" y="100" type="line"/>
      <point x="1479" y="100" type="line"/>
    </contour>
    <contour>
      <point x="399" y="1030" type="curve"/>
      <point x="259" y="372" type="line"/>
      <point x="218" y="180"/>
      <point x="329" y="84"/>
      <point x="504" y="84" type="curve"/>
      <point x="673" y="84"/>
      <point x="812" y="162"/>
      <point x="864" y="328" type="curve"/>
      <point x="1022" y="1072" type="line"/>
      <point x="1041" y="1237"/>
      <point x="940" y="1322"/>
      <point x="767" y="1322" type="curve"/>
      <point x="583" y="1322"/>
      <point x="440" y="1225"/>
    </contour>
  </outline>
</glyph>
<glyph name="oe" format="1">
  <advance width="1478"/>
  <unicode hex="0153"/>
  <outline>
    <contour>
      <point x="893" y="390" type="line"/>
      <point x="867" y="266" type="line"/>
      <point x="837" y="126"/>
      <point x="915" y="72"/>
      <point x="1047" y="72" type="curve"/>
      <point x="1146" y="72"/>
      <point x="1245" y="103"/>
      <point x="1355" y="156" type="curve"/>
      <point x="1381" y="70" type="line"/>
      <point x="1269" y="9"/>
      <point x="1139" y="-21"/>
      <point x="1037" y="-24" type="curve"/>
      <point x="893" y="-24"/>
      <point x="810" y="-4"/>
      <point x="756" y="116" type="curve"/>
      <point x="682" y="31"/>
      <point x="568" y="-20"/>
      <point x="430" y="-20" type="curve"/>
      <point x="181" y="-20"/>
      <point x="90" y="153"/>
      <point x="136" y="368" type="curve"/>
      <point x="192" y="630" type="line" smooth="yes"/>
      <point x="246" y="883"/>
      <point x="409" y="1020"/>
      <point x="647" y="1020" type="curve"/>
      <point x="796" y="1020"/>
      <point x="888" y="962"/>
      <point x="924" y="858" type="curve"/>
      <point x="1010" y="968"/>
      <point x="1145" y="1016"/>
      <point x="1282" y="1016" type="curve"/>
      <point x="1498" y="1016"/>
      <point x="1609" y="897"/>
      <point x="1563" y="682" type="curve"/>
      <point x="1508" y="422" type="line"/>
    </contour>
    <contour>
      <point x="758" y="348" type="curve"/>
      <point x="818" y="630" type="line"/>
      <point x="859" y="822"/>
      <point x="803" y="920"/>
      <point x="630" y="920" type="curve"/>
      <point x="454" y="920"/>
      <point x="345" y="822"/>
      <point x="304" y="630" type="curve"/>
      <point x="244" y="348" type="line" smooth="yes"/>
      <point x="210" y="189"/>
      <point x="289" y="80"/>
      <point x="451" y="80" type="curve"/>
      <point x="618" y="80"/>
      <point x="723" y="185"/>
    </contour>
    <contour>
      <point x="1417" y="522" type="line"/>
      <point x="1454" y="696" type="line"/>
      <point x="1483" y="834"/>
      <point x="1400" y="922"/>
      <point x="1260" y="922" type="curve"/>
      <point x="1100" y="922"/>
      <point x="987" y="830"/>
      <point x="953" y="674" type="curve"/>
      <point x="916" y="500" type="line"/>
    </contour>
  </outline>
</glyph>
<glyph name="Tbar" format="1">
  <advance width="926"/>
  <unicode hex="0166"/>
  <outline>
    <contour>
      <point x="195" y="644" type="line"/>
      <point x="219" y="756" type="line"/>
      <point x="1017" y="756" type="line"/>
      <point x="993" y="644" type="line"/>
    </contour>
    <contour>
      <point x="1135" y="1296" type="line"/>
      <point x="783" y="1296" type="line"/>
      <point x="508" y="0" type="line"/>
      <point x="398" y="0" type="line"/>
      <point x="673" y="1296" type="line"/>
      <point x="333" y="1296" type="line"/>
      <point x="355" y="1396" type="line"/>
      <point x="1157" y="1396" type="line"/>
    </contour>
  </outline>
</glyph>
<glyph name="tbar" format="1">
  <advance width="572"/>
  <unicode hex="0167"/>
  <outline>
    <contour>
      <point x="661" y="710" type="line"/>
      <point x="638" y="604" type="line"/>
      <point x="178" y="604" type="line"/>
      <point x="201" y="710" type="line"/>
    </contour>
    <contour>
      <point x="462" y="894" type="line"/>
      <point x="328" y="264" type="line"/>
      <point x="305" y="157"/>
      <point x="335" y="89"/>
      <point x="417" y="60" type="curve"/>
      <point x="364" y="-26" type="line"/>
      <point x="227" y="17"/>
      <point x="183" y="107"/>
      <point x="216" y="264" type="curve"/>
      <point x="457" y="1396" type="line"/>
      <point x="569" y="1396" type="line"/>
      <point x="484" y="998" type="line"/>
      <point x="724" y="998" type="line"/>
      <point x="654" y="894" type="line"/>
    </contour>
  </outline>
</glyph>
<glyph name="dotlessj" format="1">
  <advance width="374"/>
  <unicode hex="0237"/>
  <outline>
    <contour>
      <point x="506" y="998" type="line"/>
      <point x="267" y="-126" type="line"/>
      <point x="233" y="-288"/>
      <point x="157" y="-370"/>
      <point x="-5" y="-418" type="curve"/>
      <point x="-19" y="-332" type="line"/>
      <point x="81" y="-296"/>
      <point x="135" y="-220"/>
      <point x="156" y="-124" type="curve"/>
      <point x="372" y="894" type="line"/>
      <point x="246" y="894" type="line"/>
      <point x="268" y="998" type="line"/>
    </contour>
  </outline>
</glyph>
<glyph name="circumflex" format="1">
  <advance width="532"/>
  <unicode hex="02C6"/>
  <outline>
    <contour>
      <point x="595" y="1538" type="line"/>
      <point x="799" y="1284" type="line"/>
      <point x="711" y="1216" type="line"/>
      <point x="571" y="1392" type="line"/>
      <point x="340" y="1206" type="line"/>
      <point x="278" y="1282" type="line"/>
    </contour>
  </outline>
</glyph>
<glyph name="caron" format="1">
  <advance width="532"/>
  <unicode hex="02C7"/>
  <outline>
    <contour>
      <point x="766" y="1506" type="line"/>
      <point x="830" y="1430" type="line"/>
      <point x="512" y="1174" type="line"/>
      <point x="309" y="1426" type="line"/>
      <point x="397" y="1496" type="line"/>
      <point x="536" y="1322" type="line"/>
    </contour>
  </outline>
</glyph>
<glyph name="breve" format="1">
  <advance width="532"/>
  <unicode hex="02D8"/>
  <outline>
    <contour>
      <point x="698" y="1404" type="line"/>
      <point x="788" y="1404" type="line"/>
      <point x="785" y="1390" type="line" smooth="yes"/>
      <point x="759" y="1265"/>
      <point x="637" y="1164"/>
      <point x="513" y="1164" type="curve"/>
      <point x="390" y="1164"/>
      <point x="309" y="1264"/>
      <point x="335" y="1390" type="curve"/>
      <point x="338" y="1404" type="line"/>
      <point x="428" y="1404" type="line"/>
      <point x="425" y="1390" type="line" smooth="yes"/>
      <point x="410" y="1315"/>
      <point x="458" y="1254"/>
      <point x="533" y="1254" type="curve"/>
      <point x="610" y="1254"/>
      <point x="680" y="1315"/>
      <point x="695" y="1390" type="curve"/>
    </contour>
  </outline>
</glyph>
<glyph name="dotaccent" format="1">
  <advance width="532"/>
  <unicode hex="02D9"/>
  <outline>
    <contour>
      <point x="584" y="1496" type="curve"/>
      <point x="621" y="1496"/>
      <point x="643" y="1465"/>
      <point x="636" y="1428" type="curve"/>
      <point x="628" y="1393"/>
      <point x="593" y="1362"/>
      <point x="556" y="1362" type="curve"/>
      <point x="518" y="1362"/>
      <point x="496" y="1393"/>
      <point x="504" y="1428" type="curve"/>
      <point x="511" y="1465"/>
      <point x="547" y="1496"/>
    </contour>
  </outline>
</glyph>
<glyph name="ring" format="1">
  <advance width="532"/>
  <unicode hex="02DA"/>
  <outline>
    <contour>
      <point x="595" y="1546" type="curve"/>
      <point x="717" y="1546"/>
      <point x="800" y="1447"/>
      <point x="773" y="1320" type="curve"/>
      <point x="745" y="1192"/>
      <point x="621" y="1092"/>
      <point x="498" y="1092" type="curve"/>
      <point x="374" y="1092"/>
      <point x="291" y="1191"/>
      <point x="319" y="1320" type="curve"/>
      <point x="346" y="1447"/>
      <point x="471" y="1546"/>
    </contour>
    <contour>
      <point x="576" y="1458" type="curve"/>
      <point x="538" y="1458"/>
      <point x="501" y="1444"/>
      <point x="471" y="1420" type="curve"/>
      <point x="439" y="1395"/>
      <point x="415" y="1360"/>
      <point x="407" y="1320" type="curve"/>
      <point x="399" y="1286"/>
      <point x="405" y="1254"/>
      <point x="420" y="1230" type="curve"/>
      <point x="439" y="1199"/>
      <point x="474" y="1180"/>
      <point x="517" y="1180" type="curve"/>
      <point x="559" y="1180"/>
      <point x="599" y="1198"/>
      <point x="631" y="1227" type="curve"/>
      <point x="657" y="1252"/>
      <point x="677" y="1284"/>
      <point x="685" y="1320" type="curve"/>
      <point x="692" y="1355"/>
      <point x="686" y="1386"/>
      <point x="671" y="1410" type="curve"/>
      <point x="652" y="1440"/>
      <point x="619" y="1458"/>
    </contour>
  </outline>
</glyph>
<glyph name="ogonek" format="1">
  <advance width="532"/>
  <unicode hex="02DB"/>
  <outline>
    <contour>
      <point x="237" y="16" type="line"/>
      <point x="327" y="22" type="line"/>
      <point x="323" y="4" type="line"/>
      <point x="128" y="-244" type="line" smooth="yes"/>
      <point x="56" y="-336"/>
      <point x="95" y="-400"/>
      <point x="200" y="-368" type="curve"/>
      <point x="319" y="-327"/>
      <point x="407" y="-301"/>
      <point x="408" y="-300" type="curve"/>
      <point x="428" y="-378" type="line"/>
      <point x="429" y="-378"/>
      <point x="240" y="-442"/>
      <point x="204" y="-452" type="curve"/>
      <point x="16" y="-501"/>
      <point x="-51" y="-361"/>
      <point x="60" y="-216" type="curve"/>
      <point x="235" y="6" type="line"/>
    </contour>
  </outline>
</glyph>
<glyph name="tilde" format="1">
  <advance width="532"/>
  <unicode hex="02DC"/>
  <outline>
    <contour>
      <point x="707" y="1398" type="curve"/>
      <point x="715" y="1434" type="line"/>
      <point x="815" y="1434" type="line"/>
      <point x="807" y="1398" type="line" smooth="yes"/>
      <point x="790" y="1315"/>
      <point x="734" y="1234"/>
      <point x="640" y="1234" type="curve"/>
      <point x="598" y="1234"/>
      <point x="567" y="1255"/>
      <point x="537" y="1276" type="curve"/>
      <point x="516" y="1289"/>
      <point x="497" y="1307"/>
      <point x="479" y="1320" type="curve"/>
      <point x="463" y="1333"/>
      <point x="439" y="1345"/>
      <point x="417" y="1332" type="curve"/>
      <point x="402" y="1321"/>
      <point x="396" y="1289"/>
      <point x="393" y="1276" type="curve"/>
      <point x="386" y="1240" type="line"/>
      <point x="286" y="1240" type="line"/>
      <point x="293" y="1276" type="line" smooth="yes"/>
      <point x="303" y="1324"/>
      <point x="324" y="1375"/>
      <point x="372" y="1410" type="curve"/>
      <point x="419" y="1442"/>
      <point x="477" y="1443"/>
      <point x="518" y="1422" type="curve"/>
      <point x="545" y="1411"/>
      <point x="571" y="1389"/>
      <point x="593" y="1370" type="curve"/>
      <point x="612" y="1357"/>
      <point x="620" y="1348"/>
      <point x="637" y="1340" type="curve"/>
      <point x="680" y="1319"/>
      <point x="699" y="1361"/>
    </contour>
  </outline>
</glyph>
<glyph name="hungarumlaut" format="1">
  <advance width="532"/>
  <unicode hex="02DD"/>
  <outline>
    <contour>
      <point x="570" y="1316" type="curve"/>
      <point x="429" y="1160" type="line"/>
      <point x="359" y="1160" type="line"/>
      <point x="480" y="1372" type="line" smooth="yes"/>
      <point x="501" y="1409"/>
      <point x="546" y="1433"/>
      <point x="576" y="1412" type="curve"/>
      <point x="609" y="1393"/>
      <point x="599" y="1347"/>
    </contour>
    <contour>
      <point x="792" y="1316" type="curve"/>
      <point x="653" y="1160" type="line"/>
      <point x="583" y="1160" type="line"/>
      <point x="702" y="1372" type="line" smooth="yes"/>
      <point x="723" y="1409"/>
      <point x="768" y="1433"/>
      <point x="798" y="1412" type="curve"/>
      <point x="831" y="1393"/>
      <point x="821" y="1349"/>
    </contour>
  </outline>
</glyph>
<glyph name="uni0302" format="1">
  <advance width="532"/>
  <unicode hex="0302"/>
  <outline>
    <contour>
      <point x="594" y="1538" type="line"/>
      <point x="798" y="1284" type="line"/>
      <point x="702" y="1210" type="line"/>
      <point x="562" y="1386" type="line"/>
      <point x="340" y="1206" type="line"/>
      <point x="278" y="1282" type="line"/>
    </contour>
  </outline>
</glyph>
<glyph name="uni0304" format="1">
  <advance width="532"/>
  <unicode hex="0304"/>
  <outline>
    <contour>
      <point x="332" y="1350" type="line"/>
      <point x="772" y="1350" type="line"/>
      <point x="748" y="1234" type="line"/>
      <point x="308" y="1234" type="line"/>
    </contour>
  </outline>
</glyph>
<glyph name="uni0306" format="1">
  <advance width="532"/>
  <unicode hex="0306"/>
  <outline>
    <contour>
      <point x="698" y="1404" type="line"/>
      <point x="788" y="1404" type="line"/>
      <point x="784" y="1390" type="line"/>
      <point x="770" y="1326"/>
      <point x="734" y="1270"/>
      <point x="686" y="1230" type="curve"/>
      <point x="636" y="1190"/>
      <point x="574" y="1164"/>
      <point x="512" y="1164" type="curve"/>
      <point x="450" y="1164"/>
      <point x="400" y="1190"/>
      <point x="368" y="1230" type="curve"/>
      <point x="336" y="1270"/>
      <point x="320" y="1326"/>
      <point x="334" y="1390" type="curve"/>
      <point x="338" y="1404" type="line"/>
      <point x="428" y="1404" type="line"/>
      <point x="424" y="1390" type="line"/>
      <point x="408" y="1316"/>
      <point x="458" y="1254"/>
      <point x="532" y="1254" type="curve"/>
      <point x="610" y="1254"/>
      <point x="678" y="1316"/>
      <point x="694" y="1390" type="curve"/>
    </contour>
  </outline>
</glyph>
<glyph name="uni0307" format="1">
  <advance width="532"/>
  <unicode hex="0307"/>
  <outline>
    <contour>
      <point x="582" y="1496" type="curve"/>
      <point x="620" y="1496"/>
      <point x="642" y="1466"/>
      <point x="634" y="1428" type="curve"/>
      <point x="628" y="1394"/>
      <point x="592" y="1362"/>
      <point x="554" y="1362" type="curve"/>
      <point x="516" y="1362"/>
      <point x="496" y="1394"/>
      <point x="502" y="1428" type="curve"/>
      <point x="510" y="1466"/>
      <point x="544" y="1496"/>
    </contour>
  </outline>
</glyph>
<glyph name="uni0308" format="1">
  <advance width="532"/>
  <unicode hex="0308"/>
  <outline>
    <contour>
      <point x="422" y="1480" type="curve"/>
      <point x="460" y="1480"/>
      <point x="484" y="1450"/>
      <point x="476" y="1412" type="curve"/>
      <point x="468" y="1374"/>
      <point x="432" y="1346"/>
      <point x="394" y="1346" type="curve"/>
      <point x="360" y="1346"/>
      <point x="334" y="1374"/>
      <point x="342" y="1412" type="curve"/>
      <point x="350" y="1450"/>
      <point x="388" y="1480"/>
    </contour>
    <contour>
      <point x="738" y="1480" type="curve"/>
      <point x="776" y="1480"/>
      <point x="798" y="1450"/>
      <point x="790" y="1412" type="curve"/>
      <point x="782" y="1374"/>
      <point x="748" y="1346"/>
      <point x="710" y="1346" type="curve"/>
      <point x="672" y="1346"/>
      <point x="650" y="1374"/>
      <point x="658" y="1412" type="curve"/>
      <point x="666" y="1450"/>
      <point x="700" y="1480"/>
    </contour>
  </outline>
</glyph>
<glyph name="tonos" format="1">
  <advance width="532"/>
  <unicode hex="0384"/>
  <outline>
    <contour>
      <point x="694" y="1364" type="curve"/>
      <point x="554" y="1206" type="line"/>
      <point x="484" y="1206" type="line"/>
      <point x="606" y="1420" type="line" smooth="yes"/>
      <point x="627" y="1457"/>
      <point x="670" y="1479"/>
      <point x="700" y="1458" type="curve"/>
      <point x="733" y="1439"/>
      <point x="727" y="1393"/>
    </contour>
  </outline>
</glyph>
<glyph name="dieresistonos" format="1">
  <advance width="532"/>
  <unicode hex="0385"/>
  <outline>
    <contour>
      <point x="467" y="1380" type="curve"/>
      <point x="459" y="1343"/>
      <point x="425" y="1314"/>
      <point x="387" y="1314" type="curve"/>
      <point x="350" y="1314"/>
      <point x="325" y="1343"/>
      <point x="333" y="1380" type="curve"/>
      <point x="341" y="1417"/>
      <point x="378" y="1446"/>
      <point x="415" y="1446" type="curve"/>
      <point x="453" y="1446"/>
      <point x="475" y="1417"/>
    </contour>
    <contour>
      <point x="783" y="1380" type="curve"/>
      <point x="775" y="1343"/>
      <point x="739" y="1314"/>
      <point x="701" y="1314" type="curve"/>
      <point x="667" y="1314"/>
      <point x="641" y="1343"/>
      <point x="649" y="1380" type="curve"/>
      <point x="657" y="1417"/>
      <point x="695" y="1446"/>
      <point x="729" y="1446" type="curve"/>
      <point x="767" y="1446"/>
      <point x="791" y="1417"/>
    </contour>
    <contour>
      <point x="736" y="1626" type="curve"/>
      <point x="596" y="1468" type="line"/>
      <point x="524" y="1468" type="line"/>
      <point x="645" y="1680" type="line" smooth="yes"/>
      <point x="666" y="1717"/>
      <point x="711" y="1741"/>
      <point x="742" y="1720" type="curve"/>
      <point x="775" y="1701"/>
      <point x="766" y="1655"/>
    </contour>
  </outline>
</glyph>
<glyph name="Deltagreek" format="1">
  <advance width="1090"/>
  <unicode hex="0394"/>
  <outline>
    <contour>
      <point x="596" y="1396" type="line"/>
      <point x="1050" y="0" type="line"/>
      <point x="42" y="0" type="line"/>
      <point x="490" y="1396" type="line"/>
    </contour>
    <contour>
      <point x="542" y="1224" type="line"/>
      <point x="190" y="100" type="line"/>
      <point x="898" y="100" type="line"/>
    </contour>
  </outline>
</glyph>
<glyph name="Zeta" format="1">
  <advance width="1092"/>
  <unicode hex="0396"/>
  <outline>
    <contour>
      <point x="381" y="1396" type="line"/>
      <point x="1315" y="1396" type="line"/>
      <point x="1293" y="1296" type="line"/>
      <point x="224" y="102" type="line"/>
      <point x="1052" y="102" type="line"/>
      <point x="1030" y="0" type="line"/>
      <point x="58" y="0" type="line"/>
      <point x="79" y="100" type="line"/>
      <point x="1151" y="1294" type="line"/>
      <point x="359" y="1294" type="line"/>
    </contour>
  </outline>
</glyph>
<glyph name="Eta" format="1">
  <advance width="1026"/>
  <unicode hex="0397"/>
  <outline>
    <contour>
      <point x="369" y="822" type="line"/>
      <point x="1003" y="822" type="line"/>
      <point x="1125" y="1396" type="line"/>
      <point x="1237" y="1396" type="line"/>
      <point x="940" y="0" type="line"/>
      <point x="828" y="0" type="line"/>
      <point x="979" y="712" type="line"/>
      <point x="345" y="712" type="line"/>
      <point x="194" y="0" type="line"/>
      <point x="82" y="0" type="line"/>
      <point x="379" y="1396" type="line"/>
      <point x="491" y="1396" type="line"/>
    </contour>
  </outline>
</glyph>
<glyph name="Lambda" format="1">
  <advance width="1090"/>
  <unicode hex="039B"/>
  <outline>
    <contour>
      <point x="930" y="0" type="line"/>
      <point x="802" y="1224" type="line"/>
      <point x="162" y="0" type="line"/>
      <point x="42" y="0" type="line"/>
      <point x="787" y="1396" type="line"/>
      <point x="893" y="1396" type="line"/>
      <point x="1050" y="0" type="line"/>
    </contour>
  </outline>
</glyph>
<glyph name="Xi" format="1">
  <advance width="1124"/>
  <unicode hex="039E"/>
  <outline>
    <contour>
      <point x="377" y="1154" type="curve"/>
      <point x="298" y="1186" type="line"/>
      <point x="373" y="1335"/>
      <point x="475" y="1396"/>
      <point x="633" y="1396" type="curve"/>
      <point x="1281" y="1396" type="line"/>
      <point x="1217" y="1296" type="line"/>
      <point x="611" y="1296" type="line" smooth="yes"/>
      <point x="507" y="1296"/>
      <point x="432" y="1250"/>
    </contour>
    <contour>
      <point x="984" y="724" type="line"/>
      <point x="960" y="612" type="line"/>
      <point x="428" y="612" type="line"/>
      <point x="452" y="724" type="line"/>
    </contour>
    <contour>
      <point x="191" y="106" type="line"/>
      <point x="795" y="106" type="line"/>
      <point x="899" y="106"/>
      <point x="976" y="153"/>
      <point x="1030" y="244" type="curve"/>
      <point x="1109" y="212" type="line"/>
      <point x="1035" y="63"/>
      <point x="932" y="0"/>
      <point x="772" y="0" type="curve"/>
      <point x="126" y="0" type="line"/>
    </contour>
  </outline>
</glyph>
<glyph name="Pi" format="1">
  <advance width="1026"/>
  <unicode hex="03A0"/>
  <outline>
    <contour>
      <point x="940" y="0" type="line"/>
      <point x="826" y="0" type="line"/>
      <point x="1098" y="1282" type="line"/>
      <point x="466" y="1282" type="line"/>
      <point x="194" y="0" type="line"/>
      <point x="82" y="0" type="line"/>
      <point x="379" y="1396" type="line"/>
      <point x="1237" y="1396" type="line"/>
    </contour>
  </outline>
</glyph>
<glyph name="Sigma" format="1">
  <advance width="1042"/>
  <unicode hex="03A3"/>
  <outline>
    <contour>
      <point x="266" y="100" type="line"/>
      <point x="707" y="100" type="line"/>
      <point x="809" y="100"/>
      <point x="899" y="151"/>
      <point x="947" y="242" type="curve"/>
      <point x="1027" y="212" type="line"/>
      <point x="953" y="63"/>
      <point x="851" y="0"/>
      <point x="694" y="0" type="curve"/>
      <point x="50" y="0" type="line"/>
      <point x="663" y="768" type="line"/>
      <point x="379" y="1396" type="line"/>
      <point x="1233" y="1396" type="line"/>
      <point x="1172" y="1290" type="line"/>
      <point x="556" y="1290" type="line"/>
      <point x="798" y="762" type="line"/>
    </contour>
  </outline>
</glyph>
<glyph name="Upsilon" format="1">
  <advance width="1026"/>
  <unicode hex="03A5"/>
  <outline>
    <contour>
      <point x="1241" y="1396" type="line"/>
      <point x="1010" y="310" type="line"/>
      <point x="969" y="115"/>
      <point x="870" y="5"/>
      <point x="733" y="-14" type="curve"/>
      <point x="723" y="60" type="line"/>
      <point x="814" y="92"/>
      <point x="868" y="172"/>
      <point x="897" y="304" type="curve"/>
      <point x="962" y="610" type="line"/>
      <point x="918" y="571"/>
      <point x="805" y="500"/>
      <point x="622" y="488" type="curve"/>
      <point x="479" y="483"/>
      <point x="375" y="521"/>
      <point x="309" y="590" type="curve"/>
      <point x="241" y="659"/>
      <point x="222" y="761"/>
      <point x="256" y="924" type="curve"/>
      <point x="357" y="1396" type="line"/>
      <point x="469" y="1396" type="line"/>
      <point x="364" y="902" type="line" smooth="yes"/>
      <point x="340" y="790"/>
      <point x="353" y="721"/>
      <point x="406" y="668" type="curve"/>
      <point x="462" y="620"/>
      <point x="537" y="598"/>
      <point x="625" y="598" type="curve"/>
      <point x="706" y="598"/>
      <point x="778" y="611"/>
      <point x="840" y="638" type="curve"/>
      <point x="925" y="678"/>
      <point x="994" y="761"/>
      <point x="1011" y="844" type="curve"/>
      <point x="1129" y="1396" type="line"/>
    </contour>
  </outline>
</glyph>
<glyph name="Phi" format="1">
  <advance width="1186"/>
  <unicode hex="03A6"/>
  <outline>
    <contour>
      <point x="599" y="1408" type="curve"/>
      <point x="640" y="1318" type="line"/>
      <point x="513" y="1290"/>
      <point x="431" y="1192"/>
      <point x="397" y="1032" type="curve"/>
      <point x="269" y="430" type="line" smooth="yes"/>
      <point x="232" y="253"/>
      <point x="318" y="158"/>
      <point x="480" y="158" type="curve"/>
      <point x="566" y="158" type="line"/>
      <point x="788" y="1206" type="line" smooth="yes"/>
      <point x="817" y="1343"/>
      <point x="928" y="1416"/>
      <point x="1052" y="1416" type="curve"/>
      <point x="1286" y="1416"/>
      <point x="1384" y="1261"/>
      <point x="1332" y="1018" type="curve"/>
      <point x="1211" y="448" type="line" smooth="yes"/>
      <point x="1160" y="208"/>
      <point x="1012" y="60"/>
      <point x="757" y="60" type="curve"/>
      <point x="659" y="60" type="line"/>
      <point x="631" y="-70" type="line"/>
      <point x="520" y="-56" type="line"/>
      <point x="545" y="60" type="line"/>
      <point x="459" y="60" type="line" smooth="yes"/>
      <point x="204" y="60"/>
      <point x="110" y="208"/>
      <point x="161" y="448" type="curve"/>
      <point x="285" y="1032" type="line" smooth="yes"/>
      <point x="328" y="1232"/>
      <point x="433" y="1357"/>
    </contour>
    <contour>
      <point x="680" y="158" type="line"/>
      <point x="778" y="158" type="line"/>
      <point x="940" y="158"/>
      <point x="1064" y="253"/>
      <point x="1101" y="430" type="curve"/>
      <point x="1231" y="1038" type="line" smooth="yes"/>
      <point x="1265" y="1200"/>
      <point x="1194" y="1312"/>
      <point x="1050" y="1312" type="curve"/>
      <point x="974" y="1312"/>
      <point x="914" y="1257"/>
      <point x="896" y="1174" type="curve"/>
    </contour>
  </outline>
</glyph>
<glyph name="Chi" format="1">
  <advance width="1108"/>
  <unicode hex="03A7"/>
  <outline>
    <contour>
      <point x="509" y="1396" type="line"/>
      <point x="734" y="822" type="line"/>
      <point x="1201" y="1396" type="line"/>
      <point x="1348" y="1396" type="line"/>
      <point x="784" y="704" type="line"/>
      <point x="1060" y="0" type="line"/>
      <point x="934" y="0" type="line"/>
      <point x="696" y="598" type="line"/>
      <point x="200" y="0" type="line"/>
      <point x="50" y="0" type="line"/>
      <point x="648" y="718" type="line"/>
      <point x="383" y="1396" type="line"/>
    </contour>
  </outline>
</glyph>
<glyph name="Psi" format="1">
  <advance width="1178"/>
  <unicode hex="03A8"/>
  <outline>
    <contour>
      <point x="471" y="1396" type="line"/>
      <point x="342" y="790" type="line"/>
      <point x="305" y="614"/>
      <point x="390" y="526"/>
      <point x="550" y="526" type="curve"/>
      <point x="638" y="526" type="line"/>
      <point x="823" y="1396" type="line"/>
      <point x="937" y="1396" type="line"/>
      <point x="752" y="526" type="line"/>
      <point x="852" y="526" type="line" smooth="yes"/>
      <point x="1009" y="526"/>
      <point x="1131" y="614"/>
      <point x="1168" y="790" type="curve"/>
      <point x="1239" y="1124" type="line"/>
      <point x="1283" y="1317"/>
      <point x="1202" y="1380"/>
      <point x="1206" y="1382" type="curve"/>
      <point x="1301" y="1414" type="line"/>
      <point x="1363" y="1366"/>
      <point x="1383" y="1274"/>
      <point x="1345" y="1096" type="curve"/>
      <point x="1284" y="810" type="line" smooth="yes"/>
      <point x="1233" y="567"/>
      <point x="1083" y="424"/>
      <point x="830" y="424" type="curve"/>
      <point x="730" y="424" type="line"/>
      <point x="640" y="0" type="line"/>
      <point x="526" y="0" type="line"/>
      <point x="616" y="424" type="line"/>
      <point x="528" y="424" type="line" smooth="yes"/>
      <point x="277" y="424"/>
      <point x="183" y="567"/>
      <point x="234" y="810" type="curve"/>
      <point x="359" y="1396" type="line"/>
    </contour>
  </outline>
</glyph>
<glyph name="Omegagreek" format="1">
  <advance width="1160"/>
  <unicode hex="03A9"/>
  <outline>
    <contour>
      <point x="1279" y="1002" type="curve"/>
      <point x="1148" y="388" type="line"/>
      <point x="1121" y="257"/>
      <point x="1055" y="159"/>
      <point x="941" y="100" type="curve"/>
      <point x="1081" y="100" type="line"/>
      <point x="1092" y="-2" type="line"/>
      <point x="636" y="-2" type="line"/>
      <point x="657" y="100" type="line"/>
      <point x="833" y="100"/>
      <point x="999" y="202"/>
      <point x="1038" y="388" type="curve"/>
      <point x="1173" y="1020" type="line" smooth="yes"/>
      <point x="1210" y="1196"/>
      <point x="1126" y="1304"/>
      <point x="969" y="1304" type="curve"/>
      <point x="745" y="1304" type="line" smooth="yes"/>
      <point x="588" y="1304"/>
      <point x="460" y="1196"/>
      <point x="423" y="1020" type="curve"/>
      <point x="288" y="388" type="line" smooth="yes"/>
      <point x="248" y="199"/>
      <point x="358" y="100"/>
      <point x="543" y="100" type="curve"/>
      <point x="522" y="-2" type="line"/>
      <point x="66" y="-2" type="line"/>
      <point x="123" y="100" type="line"/>
      <point x="251" y="100" type="line"/>
      <point x="174" y="157"/>
      <point x="148" y="255"/>
      <point x="176" y="388" type="curve"/>
      <point x="307" y="1002" type="line" smooth="yes"/>
      <point x="359" y="1247"/>
      <point x="517" y="1410"/>
      <point x="767" y="1410" type="curve"/>
      <point x="972" y="1410" type="line" smooth="yes"/>
      <point x="1220" y="1410"/>
      <point x="1331" y="1247"/>
    </contour>
  </outline>
</glyph>
<glyph name="alpha" format="1">
  <advance width="876"/>
  <unicode hex="03B1"/>
  <outline>
    <contour>
      <point x="931" y="1012" type="curve"/>
      <point x="1010" y="970" type="line"/>
      <point x="1010" y="970"/>
      <point x="980" y="894"/>
      <point x="960" y="798" type="curve"/>
      <point x="792" y="8" type="line"/>
      <point x="796" y="8"/>
      <point x="538" y="-5"/>
      <point x="448" y="-8" type="curve"/>
      <point x="256" y="-13"/>
      <point x="70" y="37"/>
      <point x="133" y="336" type="curve"/>
      <point x="212" y="706" type="line" smooth="yes"/>
      <point x="262" y="943"/>
      <point x="422" y="1012"/>
      <point x="571" y="1012" type="curve"/>
      <point x="678" y="1012"/>
      <point x="791" y="976"/>
      <point x="887" y="926" type="curve"/>
      <point x="887" y="926"/>
      <point x="908" y="977"/>
    </contour>
    <contour>
      <point x="321" y="700" type="curve"/>
      <point x="241" y="324" type="line"/>
      <point x="209" y="175"/>
      <point x="272" y="92"/>
      <point x="430" y="92" type="curve"/>
      <point x="572" y="92"/>
      <point x="699" y="104"/>
      <point x="700" y="104" type="curve"/>
      <point x="854" y="828" type="line"/>
      <point x="738" y="884"/>
      <point x="660" y="908"/>
      <point x="571" y="908" type="curve"/>
      <point x="502" y="908"/>
      <point x="362" y="895"/>
    </contour>
  </outline>
</glyph>
<glyph name="beta" format="1">
  <advance width="882"/>
  <unicode hex="03B2"/>
  <outline>
    <contour>
      <point x="1" y="-374" type="line"/>
      <point x="299" y="1040" type="line"/>
      <point x="341" y="1232"/>
      <point x="488" y="1402"/>
      <point x="712" y="1402" type="curve"/>
      <point x="898" y="1402"/>
      <point x="975" y="1269"/>
      <point x="931" y="1088" type="curve"/>
      <point x="912" y="1008"/>
      <point x="857" y="884"/>
      <point x="718" y="808" type="curve"/>
      <point x="750" y="808" type="line"/>
      <point x="890" y="792"/>
      <point x="974" y="714"/>
      <point x="930" y="506" type="curve"/>
      <point x="893" y="336" type="line" smooth="yes"/>
      <point x="831" y="42"/>
      <point x="644" y="-28"/>
      <point x="388" y="-20" type="curve"/>
      <point x="340" y="-20"/>
      <point x="258" y="-10"/>
      <point x="193" y="4" type="curve"/>
      <point x="100" y="-424" type="line"/>
    </contour>
    <contour>
      <point x="414" y="1048" type="curve"/>
      <point x="352" y="762" type="line"/>
      <point x="491" y="792" type="line" smooth="yes"/>
      <point x="672" y="832"/>
      <point x="777" y="955"/>
      <point x="814" y="1086" type="curve"/>
      <point x="845" y="1197"/>
      <point x="801" y="1290"/>
      <point x="686" y="1290" type="curve"/>
      <point x="553" y="1290"/>
      <point x="440" y="1168"/>
    </contour>
    <contour>
      <point x="329" y="649" type="line"/>
      <point x="214" y="100" type="line"/>
      <point x="213" y="101"/>
      <point x="292" y="76"/>
      <point x="420" y="76" type="curve"/>
      <point x="686" y="76"/>
      <point x="750" y="160"/>
      <point x="790" y="350" type="curve"/>
      <point x="823" y="502" type="line" smooth="yes"/>
      <point x="861" y="683"/>
      <point x="751" y="712"/>
      <point x="675" y="712" type="curve"/>
      <point x="609" y="712"/>
      <point x="509" y="691"/>
      <point x="444" y="676" type="curve"/>
    </contour>
  </outline>
</glyph>
<glyph name="gamma" format="1">
  <advance width="1006"/>
  <unicode hex="03B3"/>
  <outline>
    <contour>
      <point x="1106" y="1016" type="curve"/>
      <point x="1167" y="954" type="line"/>
      <point x="1045" y="917"/>
      <point x="970" y="796"/>
      <point x="947" y="748" type="curve"/>
      <point x="503" y="-116" type="line"/>
      <point x="453" y="-201"/>
      <point x="387" y="-391"/>
      <point x="146" y="-396" type="curve"/>
      <point x="144" y="-310" type="line"/>
      <point x="254" y="-306"/>
      <point x="322" y="-243"/>
      <point x="368" y="-158" type="curve"/>
      <point x="443" y="-12" type="line"/>
      <point x="339" y="33"/>
      <point x="320" y="140"/>
      <point x="310" y="256" type="curve"/>
      <point x="252" y="996" type="line"/>
      <point x="366" y="996" type="line"/>
      <point x="425" y="278" type="line" smooth="yes"/>
      <point x="436" y="150"/>
      <point x="456" y="110"/>
      <point x="496" y="86" type="curve"/>
      <point x="852" y="772" type="line" smooth="yes"/>
      <point x="926" y="914"/>
      <point x="985" y="992"/>
    </contour>
  </outline>
</glyph>
<glyph name="delta" format="1">
  <advance width="862"/>
  <unicode hex="03B4"/>
  <outline>
    <contour>
      <point x="945" y="1302" type="line"/>
      <point x="759" y="1302" type="line"/>
      <point x="688" y="1302"/>
      <point x="622" y="1262"/>
      <point x="608" y="1198" type="curve"/>
      <point x="591" y="1119"/>
      <point x="630" y="1078"/>
      <point x="679" y="1042" type="curve"/>
      <point x="722" y="1008"/>
      <point x="766" y="976"/>
      <point x="806" y="938" type="curve"/>
      <point x="848" y="900"/>
      <point x="884" y="856"/>
      <point x="907" y="804" type="curve"/>
      <point x="937" y="735"/>
      <point x="937" y="643"/>
      <point x="919" y="558" type="curve"/>
      <point x="878" y="366" type="line" smooth="yes"/>
      <point x="823" y="107"/>
      <point x="671" y="-22"/>
      <point x="425" y="-22" type="curve"/>
      <point x="172" y="-22"/>
      <point x="82" y="123"/>
      <point x="134" y="366" type="curve"/>
      <point x="187" y="616" type="line" smooth="yes"/>
      <point x="215" y="747"/>
      <point x="277" y="847"/>
      <point x="358" y="914" type="curve"/>
      <point x="433" y="973"/>
      <point x="526" y="1004"/>
      <point x="567" y="1010" type="curve"/>
      <point x="553" y="1026" type="line" smooth="yes"/>
      <point x="500" y="1084"/>
      <point x="492" y="1172"/>
      <point x="506" y="1222" type="curve"/>
      <point x="537" y="1335"/>
      <point x="641" y="1404"/>
      <point x="785" y="1396" type="curve"/>
      <point x="1009" y="1396" type="line"/>
    </contour>
    <contour>
      <point x="762" y="346" type="curve"/>
      <point x="813" y="588" type="line"/>
      <point x="841" y="719"/>
      <point x="786" y="827"/>
      <point x="698" y="894" type="curve"/>
      <point x="653" y="926" type="line"/>
      <point x="655" y="923"/>
      <point x="523" y="927"/>
      <point x="418" y="836" type="curve"/>
      <point x="361" y="786"/>
      <point x="319" y="712"/>
      <point x="299" y="616" type="curve"/>
      <point x="242" y="346" type="line" smooth="yes"/>
      <point x="204" y="170"/>
      <point x="289" y="76"/>
      <point x="448" y="76" type="curve"/>
      <point x="618" y="76"/>
      <point x="724" y="168"/>
    </contour>
  </outline>
</glyph>
<glyph name="epsilon" format="1">
  <advance width="790"/>
  <unicode hex="03B5"/>
  <outline>
    <contour>
      <point x="812" y="990" type="curve"/>
      <point x="790" y="890" type="line"/>
      <point x="688" y="924"/>
      <point x="612" y="924"/>
      <point x="546" y="910" type="curve"/>
      <point x="442" y="888"/>
      <point x="387" y="831"/>
      <point x="372" y="762" type="curve"/>
      <point x="355" y="682"/>
      <point x="401" y="600"/>
      <point x="492" y="600" type="curve"/>
      <point x="730" y="600" type="line"/>
      <point x="667" y="492" type="line"/>
      <point x="471" y="492" type="line" smooth="yes"/>
      <point x="394" y="492"/>
      <point x="246" y="441"/>
      <point x="214" y="290" type="curve"/>
      <point x="189" y="173"/>
      <point x="276" y="84"/>
      <point x="442" y="84" type="curve"/>
      <point x="534" y="84"/>
      <point x="637" y="112"/>
      <point x="741" y="148" type="curve"/>
      <point x="752" y="46" type="line"/>
      <point x="649" y="3"/>
      <point x="517" y="-22"/>
      <point x="399" y="-22" type="curve"/>
      <point x="204" y="-22"/>
      <point x="62" y="88"/>
      <point x="100" y="288" type="curve"/>
      <point x="122" y="402"/>
      <point x="200" y="518"/>
      <point x="326" y="560" type="curve"/>
      <point x="268" y="598"/>
      <point x="238" y="672"/>
      <point x="255" y="756" type="curve"/>
      <point x="280" y="884"/>
      <point x="404" y="1018"/>
      <point x="618" y="1018" type="curve"/>
      <point x="677" y="1018"/>
      <point x="742" y="1011"/>
    </contour>
  </outline>
</glyph>
<glyph name="zeta" format="1">
  <advance width="824"/>
  <unicode hex="03B6"/>
  <outline>
    <contour>
      <point x="1027" y="1396" type="line"/>
      <point x="1051" y="1304" type="line"/>
      <point x="1054" y="1303"/>
      <point x="875" y="1203"/>
      <point x="674" y="996" type="curve"/>
      <point x="587" y="907"/>
      <point x="506" y="816"/>
      <point x="437" y="728" type="curve"/>
      <point x="340" y="597"/>
      <point x="269" y="470"/>
      <point x="242" y="366" type="curve"/>
      <point x="222" y="283"/>
      <point x="229" y="217"/>
      <point x="277" y="164" type="curve"/>
      <point x="344" y="88"/>
      <point x="478" y="73"/>
      <point x="784" y="108" type="curve"/>
      <point x="665" y="-424" type="line"/>
      <point x="566" y="-371" type="line"/>
      <point x="649" y="-10" type="line"/>
      <point x="374" y="-36"/>
      <point x="245" y="7"/>
      <point x="169" y="100" type="curve"/>
      <point x="118" y="161"/>
      <point x="104" y="256"/>
      <point x="130" y="368" type="curve"/>
      <point x="158" y="485"/>
      <point x="228" y="625"/>
      <point x="353" y="788" type="curve"/>
      <point x="416" y="871"/>
      <point x="494" y="954"/>
      <point x="587" y="1042" type="curve"/>
      <point x="673" y="1126"/>
      <point x="773" y="1218"/>
      <point x="883" y="1302" type="curve"/>
      <point x="465" y="1302" type="line"/>
      <point x="485" y="1396" type="line"/>
    </contour>
  </outline>
</glyph>
<glyph name="eta" format="1">
  <advance width="886"/>
  <unicode hex="03B7"/>
  <outline>
    <contour>
      <point x="623" y="-372" type="line"/>
      <point x="847" y="684" type="line"/>
      <point x="886" y="866"/>
      <point x="765" y="916"/>
      <point x="637" y="916" type="curve"/>
      <point x="546" y="916"/>
      <point x="461" y="893"/>
      <point x="368" y="848" type="curve"/>
      <point x="188" y="0" type="line"/>
      <point x="76" y="0" type="line"/>
      <point x="288" y="998" type="line"/>
      <point x="400" y="998" type="line"/>
      <point x="386" y="930" type="line"/>
      <point x="474" y="983"/>
      <point x="581" y="1016"/>
      <point x="680" y="1016" type="curve"/>
      <point x="901" y="1016"/>
      <point x="1003" y="900"/>
      <point x="959" y="690" type="curve"/>
      <point x="723" y="-418" type="line"/>
    </contour>
  </outline>
</glyph>
<glyph name="theta" format="1">
  <advance width="882"/>
  <unicode hex="03B8"/>
  <outline>
    <contour>
      <point x="739" y="1414" type="curve"/>
      <point x="992" y="1414"/>
      <point x="1076" y="1259"/>
      <point x="1022" y="1006" type="curve"/>
      <point x="888" y="376" type="line" smooth="yes"/>
      <point x="833" y="117"/>
      <point x="681" y="-12"/>
      <point x="435" y="-12" type="curve"/>
      <point x="185" y="-12"/>
      <point x="92" y="133"/>
      <point x="144" y="376" type="curve"/>
      <point x="196" y="620" type="line" smooth="yes"/>
      <point x="221" y="740"/>
      <point x="273" y="835"/>
      <point x="346" y="902" type="curve"/>
      <point x="316" y="980"/>
      <point x="327" y="1066"/>
      <point x="337" y="1114" type="curve"/>
      <point x="370" y="1271"/>
      <point x="515" y="1414"/>
    </contour>
    <contour>
      <point x="863" y="786" type="curve"/>
      <point x="910" y="1008" type="line"/>
      <point x="956" y="1224"/>
      <point x="870" y="1308"/>
      <point x="718" y="1308" type="curve"/>
      <point x="570" y="1308"/>
      <point x="475" y="1218"/>
      <point x="452" y="1110" type="curve"/>
      <point x="444" y="1074"/>
      <point x="404" y="928"/>
      <point x="558" y="844" type="curve"/>
      <point x="620" y="810"/>
      <point x="718" y="786"/>
    </contour>
    <contour>
      <point x="456" y="84" type="curve"/>
      <point x="627" y="84"/>
      <point x="733" y="174"/>
      <point x="770" y="350" type="curve"/>
      <point x="844" y="696" type="line"/>
      <point x="602" y="685"/>
      <point x="469" y="741"/>
      <point x="399" y="816" type="curve"/>
      <point x="355" y="768"/>
      <point x="325" y="703"/>
      <point x="308" y="620" type="curve"/>
      <point x="250" y="350" type="line" smooth="yes"/>
      <point x="213" y="174"/>
      <point x="300" y="84"/>
    </contour>
  </outline>
</glyph>
<glyph name="kappa" format="1">
  <advance width="866"/>
  <unicode hex="03BA"/>
  <outline>
    <contour>
      <point x="499" y="590" type="line"/>
      <point x="678" y="234" type="line"/>
      <point x="728" y="143"/>
      <point x="777" y="94"/>
      <point x="830" y="94" type="curve"/>
      <point x="814" y="-2" type="line"/>
      <point x="764" y="-2"/>
      <point x="723" y="9"/>
      <point x="691" y="32" type="curve"/>
      <point x="660" y="61"/>
      <point x="631" y="84"/>
      <point x="615" y="108" type="curve"/>
      <point x="601" y="132"/>
      <point x="579" y="169"/>
      <point x="553" y="220" type="curve"/>
      <point x="406" y="506" type="line"/>
      <point x="272" y="394" type="line"/>
      <point x="188" y="0" type="line"/>
      <point x="76" y="0" type="line"/>
      <point x="293" y="1020" type="line"/>
      <point x="399" y="994" type="line"/>
      <point x="304" y="546" type="line"/>
      <point x="814" y="998" type="line"/>
      <point x="962" y="998" type="line"/>
    </contour>
  </outline>
</glyph>
<glyph name="lambda" format="1">
  <advance width="1004"/>
  <unicode hex="03BB"/>
  <outline>
    <contour>
      <point x="770" y="1110" type="curve"/>
      <point x="846" y="246" type="line"/>
      <point x="849" y="203"/>
      <point x="869" y="76"/>
      <point x="977" y="40" type="curve"/>
      <point x="949" y="21"/>
      <point x="918" y="-1"/>
      <point x="889" y="-22" type="curve"/>
      <point x="776" y="7"/>
      <point x="752" y="79"/>
      <point x="737" y="222" type="curve"/>
      <point x="717" y="452"/>
      <point x="698" y="679"/>
      <point x="677" y="908" type="curve"/>
      <point x="627" y="884"/>
      <point x="585" y="843"/>
      <point x="521" y="718" type="curve"/>
      <point x="398" y="479"/>
      <point x="280" y="237"/>
      <point x="158" y="-2" type="curve"/>
      <point x="46" y="-2" type="line"/>
      <point x="169" y="243"/>
      <point x="295" y="492"/>
      <point x="419" y="740" type="curve"/>
      <point x="480" y="856"/>
      <point x="542" y="964"/>
      <point x="664" y="1008" type="curve"/>
      <point x="651" y="1152" type="line"/>
      <point x="646" y="1239"/>
      <point x="598" y="1304"/>
      <point x="491" y="1304" type="curve"/>
      <point x="529" y="1390" type="line"/>
      <point x="769" y="1385"/>
      <point x="756" y="1195"/>
    </contour>
  </outline>
</glyph>
<glyph name="nu" format="1">
  <advance width="854"/>
  <unicode hex="03BD"/>
  <outline>
    <contour>
      <point x="342" y="0" type="line"/>
      <point x="250" y="998" type="line"/>
      <point x="366" y="998" type="line"/>
      <point x="440" y="116" type="line"/>
      <point x="896" y="998" type="line"/>
      <point x="1018" y="998" type="line"/>
      <point x="496" y="0" type="line"/>
    </contour>
  </outline>
</glyph>
<glyph name="xi" format="1">
  <advance width="860"/>
  <unicode hex="03BE"/>
  <outline>
    <contour>
      <point x="1060" y="1400" type="line"/>
      <point x="994" y="1298" type="line"/>
      <point x="752" y="1298" type="line" smooth="yes"/>
      <point x="637" y="1298"/>
      <point x="551" y="1235"/>
      <point x="529" y="1106" type="curve"/>
      <point x="500" y="937"/>
      <point x="586" y="829"/>
      <point x="710" y="808" type="curve"/>
      <point x="792" y="794" type="line"/>
      <point x="743" y="706" type="line"/>
      <point x="496" y="706" type="line" smooth="yes"/>
      <point x="425" y="706"/>
      <point x="313" y="682"/>
      <point x="275" y="502" type="curve"/>
      <point x="242" y="350" type="line" smooth="yes"/>
      <point x="202" y="160"/>
      <point x="227" y="64"/>
      <point x="496" y="76" type="curve"/>
      <point x="569" y="79"/>
      <point x="730" y="97"/>
      <point x="782" y="102" type="curve"/>
      <point x="670" y="-422" type="line"/>
      <point x="569" y="-377" type="line"/>
      <point x="652" y="-8" type="line"/>
      <point x="588" y="-12"/>
      <point x="533" y="-18"/>
      <point x="482" y="-20" type="curve"/>
      <point x="224" y="-30"/>
      <point x="65" y="42"/>
      <point x="127" y="336" type="curve"/>
      <point x="164" y="508" type="line" smooth="yes"/>
      <point x="207" y="711"/>
      <point x="347" y="808"/>
      <point x="493" y="808" type="curve"/>
      <point x="516" y="808" type="line"/>
      <point x="415" y="881"/>
      <point x="401" y="1027"/>
      <point x="416" y="1112" type="curve"/>
      <point x="449" y="1291"/>
      <point x="583" y="1400"/>
      <point x="768" y="1400" type="curve"/>
    </contour>
  </outline>
</glyph>
<glyph name="pi" format="1">
  <advance width="944"/>
  <unicode hex="03C0"/>
  <outline>
    <contour>
      <point x="1038" y="996" type="line"/>
      <point x="855" y="138" type="line"/>
      <point x="853" y="101"/>
      <point x="870" y="73"/>
      <point x="897" y="52" type="curve"/>
      <point x="829" y="-12" type="line"/>
      <point x="830" y="-13"/>
      <point x="720" y="22"/>
      <point x="749" y="156" type="curve"/>
      <point x="910" y="904" type="line"/>
      <point x="380" y="904" type="line"/>
      <point x="188" y="0" type="line"/>
      <point x="76" y="0" type="line"/>
      <point x="288" y="996" type="line"/>
    </contour>
  </outline>
</glyph>
<glyph name="rho" format="1">
  <advance width="872"/>
  <unicode hex="03C1"/>
  <outline>
    <contour>
      <point x="940" y="620" type="curve"/>
      <point x="880" y="340" type="line"/>
      <point x="828" y="95"/>
      <point x="684" y="-36"/>
      <point x="462" y="-36" type="curve"/>
      <point x="338" y="-36"/>
      <point x="237" y="30"/>
      <point x="208" y="112" type="curve"/>
      <point x="96" y="-424" type="line"/>
      <point x="-9" y="-377" type="line"/>
      <point x="202" y="620" type="line" smooth="yes"/>
      <point x="256" y="874"/>
      <point x="422" y="1012"/>
      <point x="657" y="1012" type="curve"/>
      <point x="894" y="1012"/>
      <point x="991" y="863"/>
    </contour>
    <contour>
      <point x="765" y="324" type="curve"/>
      <point x="828" y="620" type="line"/>
      <point x="869" y="815"/>
      <point x="809" y="908"/>
      <point x="641" y="908" type="curve"/>
      <point x="465" y="908"/>
      <point x="357" y="815"/>
      <point x="316" y="620" type="curve"/>
      <point x="255" y="334" type="line" smooth="yes"/>
      <point x="219" y="164"/>
      <point x="322" y="70"/>
      <point x="475" y="70" type="curve"/>
      <point x="627" y="70"/>
      <point x="729" y="156"/>
    </contour>
  </outline>
</glyph>
<glyph name="sigma1" format="1">
  <advance width="680"/>
  <unicode hex="03C2"/>
  <outline>
    <contour>
      <point x="305" y="700" type="curve"/>
      <point x="281" y="568" type="line"/>
      <point x="264" y="488"/>
      <point x="269" y="437"/>
      <point x="335" y="364" type="curve"/>
      <point x="457" y="232" type="line" smooth="yes"/>
      <point x="516" y="170"/>
      <point x="586" y="94"/>
      <point x="558" y="-38" type="curve"/>
      <point x="535" y="-146"/>
      <point x="450" y="-221"/>
      <point x="330" y="-284" type="curve"/>
      <point x="294" y="-216" type="line"/>
      <point x="373" y="-173"/>
      <point x="447" y="-109"/>
      <point x="461" y="-44" type="curve"/>
      <point x="476" y="28"/>
      <point x="457" y="63"/>
      <point x="395" y="128" type="curve"/>
      <point x="247" y="286" type="line" smooth="yes"/>
      <point x="160" y="376"/>
      <point x="142" y="448"/>
      <point x="166" y="566" type="curve"/>
      <point x="194" y="705" type="line" smooth="yes"/>
      <point x="243" y="946"/>
      <point x="424" y="1006"/>
      <point x="565" y="1006" type="curve"/>
      <point x="724" y="1009"/>
      <point x="825" y="935"/>
      <point x="825" y="938" type="curve"/>
      <point x="769" y="857" type="line"/>
      <point x="725" y="878"/>
      <point x="659" y="908"/>
      <point x="581" y="908" type="curve"/>
      <point x="459" y="916"/>
      <point x="334" y="850"/>
    </contour>
  </outline>
</glyph>
<glyph name="sigma" format="1">
  <advance width="936"/>
  <unicode hex="03C3"/>
  <outline>
    <contour>
      <point x="1050" y="1082" type="curve"/>
      <point x="1105" y="1030" type="line"/>
      <point x="1041" y="957"/>
      <point x="975" y="918"/>
      <point x="912" y="902" type="curve"/>
      <point x="940" y="859"/>
      <point x="961" y="785"/>
      <point x="930" y="638" type="curve"/>
      <point x="872" y="368" type="line" smooth="yes"/>
      <point x="823" y="138"/>
      <point x="671" y="-20"/>
      <point x="428" y="-20" type="curve"/>
      <point x="179" y="-20"/>
      <point x="88" y="153"/>
      <point x="134" y="368" type="curve"/>
      <point x="192" y="638" type="line" smooth="yes"/>
      <point x="255" y="938"/>
      <point x="469" y="1020"/>
      <point x="645" y="1020" type="curve"/>
      <point x="741" y="1020"/>
      <point x="826" y="996"/>
      <point x="883" y="1004" type="curve"/>
      <point x="927" y="1009"/>
      <point x="998" y="1039"/>
    </contour>
    <contour>
      <point x="754" y="348" type="curve"/>
      <point x="822" y="666" type="line"/>
      <point x="848" y="790"/>
      <point x="828" y="862"/>
      <point x="802" y="894" type="curve"/>
      <point x="747" y="899"/>
      <point x="684" y="914"/>
      <point x="622" y="914" type="curve"/>
      <point x="506" y="914"/>
      <point x="356" y="856"/>
      <point x="313" y="652" type="curve"/>
      <point x="248" y="348" type="line" smooth="yes"/>
      <point x="214" y="189"/>
      <point x="292" y="80"/>
      <point x="451" y="80" type="curve"/>
      <point x="618" y="80"/>
      <point x="719" y="185"/>
    </contour>
  </outline>
</glyph>
<glyph name="tau" format="1">
  <advance width="700"/>
  <unicode hex="03C4"/>
  <outline>
    <contour>
      <point x="582" y="892" type="line"/>
      <point x="448" y="264" type="line"/>
      <point x="426" y="158"/>
      <point x="456" y="92"/>
      <point x="537" y="60" type="curve"/>
      <point x="486" y="-26" type="line"/>
      <point x="346" y="17"/>
      <point x="303" y="107"/>
      <point x="336" y="264" type="curve"/>
      <point x="470" y="892" type="line"/>
      <point x="230" y="892" type="line"/>
      <point x="252" y="996" type="line"/>
      <point x="858" y="996" type="line"/>
      <point x="836" y="892" type="line"/>
    </contour>
  </outline>
</glyph>
<glyph name="upsilon" format="1">
  <advance width="880"/>
  <unicode hex="03C5"/>
  <outline>
    <contour>
      <point x="1020" y="998" type="line"/>
      <point x="886" y="368" type="line"/>
      <point x="838" y="136"/>
      <point x="690" y="-20"/>
      <point x="446" y="-20" type="curve"/>
      <point x="196" y="-20"/>
      <point x="100" y="153"/>
      <point x="146" y="368" type="curve"/>
      <point x="280" y="998" type="line"/>
      <point x="394" y="998" type="line"/>
      <point x="256" y="348" type="line" smooth="yes"/>
      <point x="222" y="189"/>
      <point x="305" y="80"/>
      <point x="465" y="80" type="curve"/>
      <point x="633" y="80"/>
      <point x="739" y="185"/>
      <point x="774" y="348" type="curve"/>
      <point x="912" y="998" type="line"/>
    </contour>
  </outline>
</glyph>
<glyph name="phi" format="1">
  <advance width="1170"/>
  <unicode hex="03C6"/>
  <outline>
    <contour>
      <point x="138" y="376" type="curve"/>
      <point x="191" y="626" type="line"/>
      <point x="234" y="829"/>
      <point x="340" y="953"/>
      <point x="505" y="1004" type="curve"/>
      <point x="544" y="914" type="line"/>
      <point x="421" y="885"/>
      <point x="338" y="789"/>
      <point x="303" y="626" type="curve"/>
      <point x="246" y="356" type="line" smooth="yes"/>
      <point x="208" y="180"/>
      <point x="294" y="86"/>
      <point x="454" y="86" type="curve"/>
      <point x="540" y="86" type="line"/>
      <point x="692" y="798" type="line"/>
      <point x="731" y="931"/>
      <point x="828" y="1012"/>
      <point x="953" y="1012" type="curve"/>
      <point x="1183" y="1012"/>
      <point x="1289" y="853"/>
      <point x="1238" y="612" type="curve"/>
      <point x="1188" y="376" type="line" smooth="yes"/>
      <point x="1137" y="136"/>
      <point x="986" y="-14"/>
      <point x="733" y="-14" type="curve"/>
      <point x="633" y="-14" type="line"/>
      <point x="544" y="-432" type="line"/>
      <point x="441" y="-377" type="line"/>
      <point x="519" y="-14" type="line"/>
      <point x="433" y="-14" type="line" smooth="yes"/>
      <point x="180" y="-14"/>
      <point x="87" y="136"/>
    </contour>
    <contour>
      <point x="654" y="86" type="line"/>
      <point x="754" y="86" type="line"/>
      <point x="914" y="86"/>
      <point x="1040" y="180"/>
      <point x="1078" y="356" type="curve"/>
      <point x="1136" y="632" type="line" smooth="yes"/>
      <point x="1174" y="808"/>
      <point x="1069" y="906"/>
      <point x="947" y="906" type="curve"/>
      <point x="869" y="906"/>
      <point x="819" y="862"/>
      <point x="802" y="782" type="curve"/>
    </contour>
  </outline>
</glyph>
<glyph name="chi" format="1">
  <advance width="974"/>
  <unicode hex="03C7"/>
  <outline>
    <contour>
      <point x="575" y="304" type="line"/>
      <point x="711" y="-192" type="line"/>
      <point x="736" y="-291"/>
      <point x="792" y="-327"/>
      <point x="894" y="-346" type="curve"/>
      <point x="822" y="-422" type="line"/>
      <point x="716" y="-422"/>
      <point x="640" y="-359"/>
      <point x="600" y="-234" type="curve"/>
      <point x="487" y="182" type="line"/>
      <point x="59" y="-408" type="line"/>
      <point x="-35" y="-360" type="line"/>
      <point x="451" y="308" type="line"/>
      <point x="262" y="996" type="line"/>
      <point x="386" y="996" type="line"/>
      <point x="542" y="432" type="line"/>
      <point x="950" y="996" type="line"/>
      <point x="1076" y="996" type="line"/>
    </contour>
  </outline>
</glyph>
<glyph name="psi" format="1">
  <advance width="1184"/>
  <unicode hex="03C8"/>
  <outline>
    <contour>
      <point x="1141" y="974" type="curve"/>
      <point x="1266" y="1008" type="line"/>
      <point x="1308" y="941"/>
      <point x="1302" y="873"/>
      <point x="1280" y="772" type="curve"/>
      <point x="1196" y="376" type="line" smooth="yes"/>
      <point x="1145" y="136"/>
      <point x="990" y="-14"/>
      <point x="737" y="-14" type="curve"/>
      <point x="649" y="-14" type="line"/>
      <point x="560" y="-432" type="line"/>
      <point x="456" y="-371" type="line"/>
      <point x="535" y="-14" type="line"/>
      <point x="435" y="-14" type="line" smooth="yes"/>
      <point x="184" y="-14"/>
      <point x="95" y="136"/>
      <point x="146" y="376" type="curve"/>
      <point x="278" y="996" type="line"/>
      <point x="384" y="996" type="line"/>
      <point x="248" y="356" type="line" smooth="yes"/>
      <point x="210" y="180"/>
      <point x="299" y="86"/>
      <point x="456" y="86" type="curve"/>
      <point x="556" y="86" type="line"/>
      <point x="750" y="996" type="line"/>
      <point x="864" y="996" type="line"/>
      <point x="670" y="86" type="line"/>
      <point x="758" y="86" type="line" smooth="yes"/>
      <point x="917" y="86"/>
      <point x="1042" y="181"/>
      <point x="1080" y="356" type="curve"/>
      <point x="1168" y="772" type="line" smooth="yes"/>
      <point x="1186" y="857"/>
      <point x="1192" y="923"/>
    </contour>
  </outline>
</glyph>
<glyph name="omega" format="1">
  <advance width="1188"/>
  <unicode hex="03C9"/>
  <outline>
    <contour>
      <point x="1039" y="906" type="curve"/>
      <point x="1121" y="994" type="line"/>
      <point x="1252" y="942"/>
      <point x="1296" y="821"/>
      <point x="1256" y="630" type="curve"/>
      <point x="1201" y="372" type="line" smooth="yes"/>
      <point x="1145" y="108"/>
      <point x="1012" y="-26"/>
      <point x="798" y="-26" type="curve"/>
      <point x="704" y="-26"/>
      <point x="639" y="9"/>
      <point x="611" y="80" type="curve"/>
      <point x="548" y="9"/>
      <point x="468" y="-26"/>
      <point x="378" y="-26" type="curve"/>
      <point x="165" y="-26"/>
      <point x="83" y="108"/>
      <point x="139" y="372" type="curve"/>
      <point x="194" y="630" type="line" smooth="yes"/>
      <point x="234" y="819"/>
      <point x="335" y="943"/>
      <point x="489" y="994" type="curve"/>
      <point x="533" y="906" type="line"/>
      <point x="416" y="874"/>
      <point x="340" y="789"/>
      <point x="310" y="648" type="curve"/>
      <point x="247" y="352" type="line" smooth="yes"/>
      <point x="208" y="168"/>
      <point x="281" y="80"/>
      <point x="393" y="80" type="curve"/>
      <point x="508" y="80"/>
      <point x="563" y="155"/>
      <point x="604" y="312" type="curve"/>
      <point x="664" y="592" type="line"/>
      <point x="778" y="592" type="line"/>
      <point x="718" y="312" type="line" smooth="yes"/>
      <point x="685" y="155"/>
      <point x="713" y="80"/>
      <point x="825" y="80" type="curve"/>
      <point x="940" y="80"/>
      <point x="1046" y="168"/>
      <point x="1085" y="352" type="curve"/>
      <point x="1148" y="648" type="line" smooth="yes"/>
      <point x="1178" y="789"/>
      <point x="1141" y="874"/>
    </contour>
  </outline>
</glyph>
<glyph name="quoteleft" format="1">
  <advance width="254"/>
  <unicode hex="2018"/>
  <outline>
    <contour>
      <point x="461" y="1424" type="curve"/>
      <point x="492" y="1400" type="line"/>
      <point x="438" y="1347"/>
      <point x="410" y="1293"/>
      <point x="396" y="1250" type="curve"/>
      <point x="429" y="1242"/>
      <point x="446" y="1216"/>
      <point x="440" y="1184" type="curve"/>
      <point x="432" y="1147"/>
      <point x="395" y="1118"/>
      <point x="358" y="1118" type="curve"/>
      <point x="323" y="1118"/>
      <point x="297" y="1144"/>
      <point x="306" y="1184" type="curve"/>
      <point x="332" y="1310"/>
      <point x="416" y="1387"/>
    </contour>
  </outline>
</glyph>
<glyph name="quoteright" format="1">
  <advance width="256"/>
  <unicode hex="2019"/>
  <outline>
    <contour>
      <point x="325" y="1088" type="curve"/>
      <point x="295" y="1114" type="line"/>
      <point x="349" y="1167"/>
      <point x="377" y="1219"/>
      <point x="388" y="1262" type="curve"/>
      <point x="361" y="1270"/>
      <point x="341" y="1296"/>
      <point x="348" y="1328" type="curve"/>
      <point x="356" y="1365"/>
      <point x="394" y="1396"/>
      <point x="429" y="1396" type="curve"/>
      <point x="466" y="1396"/>
      <point x="491" y="1368"/>
      <point x="482" y="1328" type="curve"/>
      <point x="456" y="1206"/>
      <point x="374" y="1124"/>
    </contour>
  </outline>
</glyph>
<glyph name="quotesinglbase" format="1">
  <advance width="278"/>
  <unicode hex="201A"/>
  <outline>
    <contour>
      <point x="69" y="-154" type="curve"/>
      <point x="40" y="-130" type="line"/>
      <point x="92" y="-77"/>
      <point x="121" y="-23"/>
      <point x="132" y="20" type="curve"/>
      <point x="104" y="25"/>
      <point x="85" y="51"/>
      <point x="92" y="86" type="curve"/>
      <point x="100" y="123"/>
      <point x="138" y="152"/>
      <point x="172" y="152" type="curve"/>
      <point x="210" y="152"/>
      <point x="232" y="126"/>
      <point x="226" y="86" type="curve"/>
      <point x="200" y="-40"/>
      <point x="116" y="-120"/>
    </contour>
  </outline>
</glyph>
<glyph name="quotedblleft" format="1">
  <advance width="612"/>
  <unicode hex="201C"/>
  <outline>
    <contour>
      <point x="821" y="1424" type="curve"/>
      <point x="850" y="1400" type="line"/>
      <point x="796" y="1347"/>
      <point x="771" y="1293"/>
      <point x="754" y="1250" type="curve"/>
      <point x="787" y="1242"/>
      <point x="804" y="1216"/>
      <point x="798" y="1184" type="curve"/>
      <point x="790" y="1147"/>
      <point x="753" y="1118"/>
      <point x="716" y="1118" type="curve"/>
      <point x="681" y="1118"/>
      <point x="655" y="1144"/>
      <point x="664" y="1184" type="curve"/>
      <point x="691" y="1311"/>
      <point x="775" y="1386"/>
    </contour>
    <contour>
      <point x="461" y="1424" type="curve"/>
      <point x="492" y="1400" type="line"/>
      <point x="438" y="1347"/>
      <point x="410" y="1293"/>
      <point x="396" y="1250" type="curve"/>
      <point x="429" y="1242"/>
      <point x="446" y="1216"/>
      <point x="440" y="1184" type="curve"/>
      <point x="432" y="1147"/>
      <point x="395" y="1118"/>
      <point x="358" y="1118" type="curve"/>
      <point x="323" y="1118"/>
      <point x="297" y="1144"/>
      <point x="306" y="1184" type="curve"/>
      <point x="332" y="1310"/>
      <point x="416" y="1387"/>
    </contour>
  </outline>
</glyph>
<glyph name="quotedblright" format="1">
  <advance width="614"/>
  <unicode hex="201D"/>
  <outline>
    <contour>
      <point x="325" y="1088" type="curve"/>
      <point x="295" y="1114" type="line"/>
      <point x="349" y="1167"/>
      <point x="377" y="1219"/>
      <point x="388" y="1262" type="curve"/>
      <point x="361" y="1270"/>
      <point x="341" y="1296"/>
      <point x="348" y="1328" type="curve"/>
      <point x="356" y="1365"/>
      <point x="391" y="1396"/>
      <point x="429" y="1396" type="curve"/>
      <point x="466" y="1396"/>
      <point x="488" y="1368"/>
      <point x="482" y="1328" type="curve"/>
      <point x="457" y="1207"/>
      <point x="372" y="1123"/>
    </contour>
    <contour>
      <point x="683" y="1088" type="curve"/>
      <point x="655" y="1114" type="line"/>
      <point x="709" y="1167"/>
      <point x="734" y="1219"/>
      <point x="748" y="1262" type="curve"/>
      <point x="718" y="1270"/>
      <point x="699" y="1296"/>
      <point x="706" y="1328" type="curve"/>
      <point x="714" y="1365"/>
      <point x="752" y="1396"/>
      <point x="787" y="1396" type="curve"/>
      <point x="824" y="1396"/>
      <point x="849" y="1368"/>
      <point x="840" y="1328" type="curve"/>
      <point x="814" y="1206"/>
      <point x="732" y="1124"/>
    </contour>
  </outline>
</glyph>
<glyph name="quotedblbase" format="1">
  <advance width="636"/>
  <unicode hex="201E"/>
  <outline>
    <contour>
      <point x="69" y="-154" type="curve"/>
      <point x="40" y="-130" type="line"/>
      <point x="92" y="-77"/>
      <point x="121" y="-23"/>
      <point x="132" y="20" type="curve"/>
      <point x="104" y="25"/>
      <point x="85" y="51"/>
      <point x="92" y="86" type="curve"/>
      <point x="100" y="123"/>
      <point x="135" y="152"/>
      <point x="172" y="152" type="curve"/>
      <point x="210" y="152"/>
      <point x="232" y="126"/>
      <point x="226" y="86" type="curve"/>
      <point x="200" y="-40"/>
      <point x="116" y="-120"/>
    </contour>
    <contour>
      <point x="429" y="-154" type="curve"/>
      <point x="398" y="-130" type="line"/>
      <point x="452" y="-77"/>
      <point x="481" y="-23"/>
      <point x="492" y="20" type="curve"/>
      <point x="461" y="25"/>
      <point x="443" y="51"/>
      <point x="450" y="86" type="curve"/>
      <point x="458" y="123"/>
      <point x="496" y="152"/>
      <point x="530" y="152" type="curve"/>
      <point x="568" y="152"/>
      <point x="593" y="126"/>
      <point x="584" y="86" type="curve"/>
      <point x="557" y="-42"/>
      <point x="474" y="-117"/>
    </contour>
  </outline>
</glyph>
